<svg width="50" height="50" fill="none" xmlns="http://www.w3.org/2000/svg"><path d="M49.76 12.7l-7-7.73a1 1 0 00-1.41 0l-.08.09H29.6a3.47 3.47 0 00-2.38-2.38V1a.95.95 0 00-1.9 0v1.73a3.47 3.47 0 00-2.39 2.38H11.24l-.09-.09a1 1 0 00-1.41 0l-7 7.73a.93.93 0 00-.25.63v1a7.81 7.81 0 007.8 7.8h.22a7.81 7.81 0 007.8-7.8v-1a.92.92 0 00-.24-.63L13 7h10a3.48 3.48 0 002.39 2.39v14.7H16.8s-4.83.21-6.64.91a18.01 18.01 0 01-3.26 1 1 1 0 00-.89-.62H1a1 1 0 00-1 .95v21.51a1 1 0 001 1h5a.92.92 0 00.71-.33 17.45 17.45 0 013.74.86c1.292.432 2.639.681 4 .74h20.69a3.45 3.45 0 003.05-5.12 3.47 3.47 0 003-3.42 3.37 3.37 0 00-.43-1.64 3.47 3.47 0 00-.52-6.91h-3.48a3.13 3.13 0 00.47-1.64 3.199 3.199 0 00-.94-2.27L31 23.73a3.27 3.27 0 00-3.74-.55V9.35A3.49 3.49 0 0029.6 7h10l-5.17 5.74a.92.92 0 00-.24.63v1a7.81 7.81 0 007.8 7.8h.22a7.81 7.81 0 007.8-7.8v-1a1 1 0 00-.25-.67zm-39.21 7.55h-.22a5.9 5.9 0 01-5.88-5.69h12a5.89 5.89 0 01-5.9 5.69zm5-7.59H5.37l5.07-5.64 5.11 5.64zM5.09 46.84H1.9V27.22h3.16l.03 19.62zm25.34-17.28l-2.63-2.63a1.299 1.299 0 010-1.86 1.33 1.33 0 011.85 0l5.27 5.27a1.31 1.31 0 01.39.93 1.27 1.27 0 01-.39.92 1.101 1.101 0 01-.38.27 1 1 0 00-.44.45H23.73a1 1 0 000 1.9h16.46a1.58 1.58 0 110 3.16H23.73a1 1 0 000 1.9h13.93a1.59 1.59 0 010 3.17H23.73a1 1 0 000 1.9h11.4a1.58 1.58 0 110 3.16H14.5a12.453 12.453 0 01-3.42-.63 19.099 19.099 0 00-4.12-1V27.86a18.93 18.93 0 003.88-1.13 28.533 28.533 0 016-.78h8.41a4.55 4.55 0 01-3.55 3.16h-3.93a1 1 0 00-.52 1.75 3.92 3.92 0 011.06 2.75c.39 3.56-.7 5.62-4.48 8.46a1 1 0 00.57 1.71.93.93 0 00.57-.19c4.33-3.25 5.69-5.92 5.23-10.18a8.81 8.81 0 00-.57-2.4H22a6.661 6.661 0 004.34-2.87c.034.049.07.095.11.14l2.64 2.63a.95.95 0 101.34-1.34v-.01zm-4.13-22a1.58 1.58 0 111.58-1.58 1.579 1.579 0 01-1.61 1.61l.03-.03zm15.82-.57l5.08 5.64H37l5.12-5.64zm.11 13.23H42a5.89 5.89 0 01-5.88-5.69H47.8c.106-.005.21-.025.31-.06a5.9 5.9 0 01-5.91 5.78l.03-.03z" fill="#fff"/></svg>