<svg width="50" height="50" fill="none" xmlns="http://www.w3.org/2000/svg"><path d="M29.6 25.18a1 1 0 00-.07 1.34l4 4.45a1 1 0 00.71.32.94.94 0 00.63-.24 1 1 0 00.08-1.34l-4-4.46a1 1 0 00-1.35-.07zm11.86 14.69a4.75 4.75 0 004.74-4.74v-2.54a4.75 4.75 0 00-9.49 0v2.54a4.75 4.75 0 004.75 4.74zm-2.85-7.28a2.85 2.85 0 015.69 0v2.54a2.85 2.85 0 01-5.69 0v-2.54zM25 12a4.75 4.75 0 004.75-4.75V4.72a4.75 4.75 0 10-9.5 0v2.53A4.75 4.75 0 0025 12zm-2.85-7.28a2.85 2.85 0 015.7 0v2.53a2.85 2.85 0 11-5.7 0V4.72zm25.29 35.76h-12a2.832 2.832 0 00-2.56 3.08c0 3.53 2.28 6.41 5.08 6.41h6.93c2.8 0 5.08-2.88 5.08-6.41a2.82 2.82 0 00-2.53-3.05v-.03zm-2.52 7.59H38c-1.72 0-3.18-2.07-3.18-4.51 0-.72.39-1.18.66-1.18h12c.27 0 .66.46.66 1.18-.04 2.44-1.49 4.54-3.22 4.54v-.03zM28.8 41.74h-7.6a.95.95 0 000 1.9h7.6a.95.95 0 100-1.9zM8.54 38.58a4.75 4.75 0 004.75-4.75V31.3a4.749 4.749 0 10-9.49 0v2.53a4.75 4.75 0 004.74 4.78v-.03zM5.7 31.3a2.85 2.85 0 115.69 0v2.53a2.847 2.847 0 01-2.845 3.019A2.85 2.85 0 015.7 33.83V31.3zM21 25.18a1 1 0 00-1.34.07l-4 4.46a1 1 0 00.08 1.34.94.94 0 00.63.24 1 1 0 00.71-.32l4-4.45a1 1 0 00-.08-1.34zm-6.51 14.06h-12a2.82 2.82 0 00-2.56 3.08c0 3.54 2.28 6.41 5.08 6.41H12c2.8 0 5.08-2.87 5.08-6.41a2.83 2.83 0 00-2.55-3.08h-.04zm-2.52 7.6H5.04c-1.73 0-3.18-2.07-3.18-4.52 0-.72.39-1.18.66-1.18h12c.27 0 .66.46.66 1.18.01 2.45-1.45 4.52-3.18 4.52h-.03zm9.52-24.69h6.94c2.8 0 5.07-2.87 5.07-6.41a2.82 2.82 0 00-2.55-3.08H19a2.82 2.82 0 00-2.55 3.08c.01 3.54 2.28 6.41 5.08 6.41h-.04zM19 14.56h12c.26 0 .66.46.66 1.18 0 2.45-1.46 4.51-3.18 4.51h-6.94c-1.72 0-3.18-2.06-3.18-4.51-.01-.74.39-1.18.64-1.18z" fill="#fff"/></svg>