<svg width="15" height="15" viewBox="0 0 15 15" fill="none" xmlns="http://www.w3.org/2000/svg">
<path d="M1.00781 6.5C0.455528 6.5 0.0078125 6.94772 0.0078125 7.5C0.0078125 8.05228 0.455528 8.5 1.00781 8.5V6.5ZM14.6949 8.20711C15.0854 7.81658 15.0854 7.18342 14.6949 6.79289L8.33096 0.428932C7.94043 0.0384078 7.30727 0.0384078 6.91674 0.428932C6.52622 0.819457 6.52622 1.45262 6.91674 1.84315L12.5736 7.5L6.91674 13.1569C6.52622 13.5474 6.52622 14.1805 6.91674 14.5711C7.30727 14.9616 7.94043 14.9616 8.33096 14.5711L14.6949 8.20711ZM1.00781 8.5H13.9878V6.5L1.00781 6.5V8.5Z" fill="#9E9E9E"/>
</svg>
