<svg width="50" height="47" fill="none" xmlns="http://www.w3.org/2000/svg"><path d="M49.8 31.76a3.14 3.14 0 00-3.6-1.77l-8.95 1.91a4.13 4.13 0 00-4-3.26h-7.91l-.83-.62a16.15 16.15 0 00-15.84-1.87L6 27.33l-.38-.7a.95.95 0 00-1.36-.34l-3.8 2.53a1 1 0 00-.31 1.24L9 46.5a1 1 0 00.61.47c.076.01.154.01.23 0a1 1 0 00.53-.16l3.79-2.53a.94.94 0 00.41-.79l.8.23c1.913.497 3.883.74 5.86.72a28.12 28.12 0 009.55-1.61l17.36-7.31a3.09 3.09 0 001.66-3.76zM10.15 44.68L2.2 29.9l2.21-1.47 7.95 14.78-2.21 1.47zm37.14-10.84L30 41.1a26.29 26.29 0 01-8.84 1.47c-1.808.02-3.61-.199-5.36-.65l-2-.58a1 1 0 00-.39 0L6.79 29.03l2.53-1.1a14.249 14.249 0 0114 1.65l1.08.81a.89.89 0 00.57.19h8.23a2.22 2.22 0 010 4.43h-12a1 1 0 000 1.9h12a4.1 4.1 0 003.94-3l9.45-2a1.28 1.28 0 011.43.64c.26.5-.36 1.09-.73 1.29zm-18-21.81a4.75 4.75 0 004.75-4.75V4.75a4.75 4.75 0 10-9.5 0v2.58a4.75 4.75 0 004.78 4.7h-.03zm-2.85-7.28a2.85 2.85 0 015.7 0v2.58a2.85 2.85 0 11-5.7 0V4.75zm8.83 7.91h-12a2.83 2.83 0 00-2.56 3.08c0 3.54 2.28 6.42 5.08 6.42h6.94c2.8 0 5.07-2.88 5.07-6.42a2.83 2.83 0 00-2.5-3.08h-.03zm-2.51 7.6h-6.94c-1.72 0-3.18-2.07-3.18-4.52 0-.72.39-1.18.66-1.18h12c.27 0 .66.46.66 1.18.04 2.45-1.45 4.52-3.17 4.52h-.03z" fill="#fff"/></svg>