<svg width="1367" height="275" viewBox="0 0 1367 275" fill="none" xmlns="http://www.w3.org/2000/svg">
<path opacity="0.3" d="M30.998 3.4209H31.498V2.9209H30.998V3.4209ZM30.998 98.2695H30.498V98.7695H30.998V98.2695ZM49.748 98.2695H50.248V97.7695H49.748V98.2695ZM49.748 122V122.5H50.248V122H49.748ZM0.163086 122H-0.336914V122.5H0.163086V122ZM0.163086 3.4209V2.9209H-0.336914V3.4209H0.163086ZM30.498 3.4209V98.2695H31.498V3.4209H30.498ZM30.998 98.7695H49.748V97.7695H30.998V98.7695ZM49.248 98.2695V122H50.248V98.2695H49.248ZM49.748 121.5H0.163086V122.5H49.748V121.5ZM0.663086 122V3.4209H-0.336914V122H0.663086ZM0.163086 3.9209H30.998V2.9209H0.163086V3.9209ZM57.292 3.4209V2.9209H56.792V3.4209H57.292ZM108.708 3.4209H109.208V2.9209H108.708V3.4209ZM108.708 27.1514V27.6514H109.208V27.1514H108.708ZM88.127 27.1514V26.6514H87.627V27.1514H88.127ZM88.127 49.6367H87.627V50.1367H88.127V49.6367ZM107.39 49.6367H107.89V49.1367H107.39V49.6367ZM107.39 72.1953V72.6953H107.89V72.1953H107.39ZM88.127 72.1953V71.6953H87.627V72.1953H88.127ZM88.127 98.2695H87.627V98.7695H88.127V98.2695ZM110.759 98.2695H111.259V97.7695H110.759V98.2695ZM110.759 122V122.5H111.259V122H110.759ZM57.292 122H56.792V122.5H57.292V122ZM57.292 3.9209H108.708V2.9209H57.292V3.9209ZM108.208 3.4209V27.1514H109.208V3.4209H108.208ZM108.708 26.6514H88.127V27.6514H108.708V26.6514ZM87.627 27.1514V49.6367H88.627V27.1514H87.627ZM88.127 50.1367H107.39V49.1367H88.127V50.1367ZM106.89 49.6367V72.1953H107.89V49.6367H106.89ZM107.39 71.6953H88.127V72.6953H107.39V71.6953ZM87.627 72.1953V98.2695H88.627V72.1953H87.627ZM88.127 98.7695H110.759V97.7695H88.127V98.7695ZM110.259 98.2695V122H111.259V98.2695H110.259ZM110.759 121.5H57.292V122.5H110.759V121.5ZM57.792 122V3.4209H56.792V122H57.792ZM179.753 3.4209H180.253V2.9209H179.753V3.4209ZM179.753 27.1514V27.6514H180.253V27.1514H179.753ZM161.442 27.1514V26.6514H160.942V27.1514H161.442ZM161.442 122V122.5H161.942V122H161.442ZM130.607 122H130.107V122.5H130.607V122ZM130.607 27.1514H131.107V26.6514H130.607V27.1514ZM112.37 27.1514H111.87V27.6514H112.37V27.1514ZM112.37 3.4209V2.9209H111.87V3.4209H112.37ZM179.253 3.4209V27.1514H180.253V3.4209H179.253ZM179.753 26.6514H161.442V27.6514H179.753V26.6514ZM160.942 27.1514V122H161.942V27.1514H160.942ZM161.442 121.5H130.607V122.5H161.442V121.5ZM131.107 122V27.1514H130.107V122H131.107ZM130.607 26.6514H112.37V27.6514H130.607V26.6514ZM112.87 27.1514V3.4209H111.87V27.1514H112.87ZM112.37 3.9209H179.753V2.9209H112.37V3.9209ZM203.117 3.4209H203.617V2.9209H203.117V3.4209ZM201.14 27.7373L201.609 27.9108L201.609 27.9087L201.14 27.7373ZM194.255 36.8193L194.557 37.2179L194.558 37.2172L194.255 36.8193ZM183.269 41.7998H182.769V42.4183L183.373 42.2887L183.269 41.7998ZM183.269 33.2305L183.028 32.7924L182.769 32.9348V33.2305H183.269ZM188.249 26.6387L188.744 26.7082L188.824 26.1387H188.249V26.6387ZM183.269 26.6387H182.769V27.1387H183.269V26.6387ZM183.269 3.4209V2.9209H182.769V3.4209H183.269ZM202.617 3.4209V14.041H203.617V3.4209H202.617ZM202.617 14.041C202.617 19.5234 201.962 24.0258 200.67 27.5659L201.609 27.9087C202.954 24.2222 203.617 19.5938 203.617 14.041H202.617ZM200.671 27.5639C199.388 31.032 197.154 33.9839 193.952 36.4215L194.558 37.2172C197.898 34.6743 200.255 31.5716 201.609 27.9108L200.671 27.5639ZM193.953 36.4208C190.791 38.8163 187.197 40.4467 183.164 41.3109L183.373 42.2887C187.544 41.3951 191.274 39.7051 194.557 37.2179L193.953 36.4208ZM183.769 41.7998V33.2305H182.769V41.7998H183.769ZM183.51 33.6686C186.548 31.9975 188.327 29.678 188.744 26.7082L187.754 26.5692C187.389 29.1657 185.849 31.2407 183.028 32.7924L183.51 33.6686ZM188.249 26.1387H183.269V27.1387H188.249V26.1387ZM183.769 26.6387V3.4209H182.769V26.6387H183.769ZM183.269 3.9209H203.117V2.9209H183.269V3.9209ZM277.312 39.3096V39.8096H277.812V39.3096H277.312ZM248.674 39.3096H248.174V39.8096H248.674V39.3096ZM239.665 23.2695L239.245 22.9984L239.239 23.0083L239.665 23.2695ZM239.885 39.0898L240.33 38.8619L240.325 38.8534L239.885 39.0898ZM248.601 46.3408L248.856 45.911L248.855 45.9105L248.601 46.3408ZM276.872 110.354L276.425 110.131L276.423 110.135L276.872 110.354ZM265.446 120.462L265.66 120.914L265.664 120.912L265.446 120.462ZM224.504 119.803L224.267 120.243L224.269 120.244L224.504 119.803ZM210.368 79.5195V79.0195H209.868V79.5195H210.368ZM239.006 79.5195H239.506V79.0195H239.006V79.5195ZM240.178 102.518L239.752 102.78L239.759 102.791L240.178 102.518ZM249.04 102.005L248.618 101.736L248.612 101.746L249.04 102.005ZM247.722 81.1309L248.096 80.7992L248.092 80.7945L247.722 81.1309ZM233.293 70.3643L233.017 70.7811L233.019 70.7823L233.293 70.3643ZM211.833 49.7832L211.368 49.9679L211.37 49.9727L211.833 49.7832ZM212.858 14.334L212.422 14.0903L212.42 14.0942L212.858 14.334ZM224.138 4.51953L224.344 4.97502L224.347 4.97338L224.138 4.51953ZM263.322 4.8125L263.113 5.2666L263.114 5.26728L263.322 4.8125ZM274.528 14.627L274.073 14.8347L274.077 14.8415L274.528 14.627ZM277.312 38.8096H248.674V39.8096H277.312V38.8096ZM249.174 39.3096V30.5205H248.174V39.3096H249.174ZM249.174 30.5205C249.174 28.4577 249.082 26.7538 248.894 25.4157C248.709 24.0939 248.423 23.0682 247.994 22.4105L247.156 22.9567C247.46 23.4221 247.723 24.2641 247.904 25.5545C248.083 26.8287 248.174 28.4817 248.174 30.5205H249.174ZM247.994 22.4105C247.144 21.1069 245.739 20.499 243.913 20.499V21.499C245.506 21.499 246.542 22.0142 247.156 22.9567L247.994 22.4105ZM243.913 20.499C241.894 20.499 240.317 21.337 239.245 22.9985L240.085 23.5406C240.966 22.1747 242.221 21.499 243.913 21.499V20.499ZM239.239 23.0083C238.239 24.6391 237.773 27.0451 237.773 30.1543H238.773C238.773 27.1111 239.235 24.9273 240.091 23.5308L239.239 23.0083ZM237.773 30.1543C237.773 34.139 238.312 37.2161 239.444 39.3263L240.325 38.8534C239.309 36.9597 238.773 34.0798 238.773 30.1543H237.773ZM239.44 39.3178C239.997 40.4062 241.039 41.5622 242.513 42.7884C243.993 44.0198 245.94 45.3472 248.346 46.7711L248.855 45.9105C246.476 44.5024 244.578 43.2053 243.153 42.0197C241.721 40.8289 240.798 39.7754 240.33 38.8619L239.44 39.3178ZM248.345 46.7706C255.195 50.8416 260.767 54.5411 265.067 57.869C269.372 61.2014 272.376 64.1423 274.115 66.691L274.941 66.1274C273.116 63.4515 270.016 60.4353 265.679 57.0782C261.336 53.7168 255.727 49.9943 248.856 45.911L248.345 46.7706ZM274.115 66.691C277.593 71.7879 279.375 80.0846 279.375 91.6777H280.375C280.375 80.0287 278.593 71.4796 274.941 66.1274L274.115 66.691ZM279.375 91.6777C279.375 100.105 278.373 106.234 276.425 110.131L277.319 110.578C279.375 106.467 280.375 100.145 280.375 91.6777H279.375ZM276.423 110.135C274.535 114.004 270.833 117.306 265.229 120.012L265.664 120.912C271.388 118.149 275.302 114.713 277.321 110.574L276.423 110.135ZM265.232 120.01C259.647 122.658 253.131 123.99 245.671 123.99V124.99C253.25 124.99 259.917 123.637 265.66 120.914L265.232 120.01ZM245.671 123.99C237.481 123.99 230.511 122.44 224.739 119.362L224.269 120.244C230.216 123.416 237.356 124.99 245.671 124.99V123.99ZM224.741 119.362C219.006 116.278 215.3 112.381 213.546 107.689L212.61 108.039C214.47 113.016 218.38 117.077 224.267 120.243L224.741 119.362ZM213.546 107.689C211.771 102.938 210.868 96.1469 210.868 87.2832H209.868C209.868 96.1929 210.772 103.123 212.61 108.039L213.546 107.689ZM210.868 87.2832V79.5195H209.868V87.2832H210.868ZM210.368 80.0195H239.006V79.0195H210.368V80.0195ZM238.506 79.5195V93.9482H239.506V79.5195H238.506ZM238.506 93.9482C238.506 96.1819 238.604 98.0316 238.803 99.4908C239.001 100.936 239.305 102.053 239.752 102.78L240.604 102.256C240.27 101.713 239.987 100.767 239.794 99.3553C239.603 97.9582 239.506 96.158 239.506 93.9482H238.506ZM239.759 102.791C240.713 104.249 242.345 104.922 244.499 104.922V103.922C242.551 103.922 241.303 103.325 240.596 102.244L239.759 102.791ZM244.499 104.922C246.706 104.922 248.391 104.04 249.468 102.264L248.612 101.746C247.736 103.192 246.394 103.922 244.499 103.922V104.922ZM249.462 102.273C250.562 100.545 251.078 98.0397 251.078 94.8271H250.078C250.078 97.9622 249.569 100.242 248.618 101.736L249.462 102.273ZM251.078 94.8271C251.078 91.3168 250.839 88.3926 250.353 86.0642C249.87 83.7439 249.131 81.9673 248.096 80.7992L247.348 81.4625C248.216 82.4428 248.906 84.0232 249.375 86.2683C249.841 88.5053 250.078 91.3551 250.078 94.8271H251.078ZM248.092 80.7945C246.088 78.5907 241.222 74.9681 233.567 69.9462L233.019 70.7823C240.696 75.819 245.449 79.3741 247.352 81.4672L248.092 80.7945ZM233.569 69.9474C225.9 64.8672 220.854 61.201 218.397 58.937L217.72 59.6724C220.243 61.9982 225.354 65.705 233.017 70.7811L233.569 69.9474ZM218.397 58.937C215.974 56.704 213.936 53.5978 212.296 49.5937L211.37 49.9727C213.05 54.0741 215.162 57.3155 217.72 59.6724L218.397 58.937ZM212.298 49.5985C210.718 45.6245 209.916 40.5172 209.916 34.2559H208.916C208.916 40.5922 209.726 45.8365 211.368 49.9679L212.298 49.5985ZM209.916 34.2559C209.916 25.1949 211.064 18.6592 213.297 14.5738L212.42 14.0942C210.063 18.4072 208.916 25.1527 208.916 34.2559H209.916ZM213.295 14.5777C215.578 10.488 219.247 7.28289 224.344 4.97501L223.931 4.06405C218.676 6.44368 214.827 9.78156 212.422 14.0903L213.295 14.5777ZM224.347 4.97338C229.442 2.61856 235.616 1.43066 242.888 1.43066V0.430664C235.511 0.430664 229.185 1.63534 223.928 4.06568L224.347 4.97338ZM242.888 1.43066C250.844 1.43066 257.58 2.71649 263.113 5.2666L263.532 4.3584C257.834 1.73273 250.947 0.430664 242.888 0.430664V1.43066ZM263.114 5.26728C268.716 7.82648 272.335 11.028 274.074 14.8347L274.983 14.4192C273.109 10.3158 269.257 6.9743 263.53 4.35772L263.114 5.26728ZM274.077 14.8415C275.88 18.6388 276.812 25.205 276.812 34.6221H277.812C277.812 25.1915 276.887 18.4276 274.98 14.4124L274.077 14.8415ZM276.812 34.6221V39.3096H277.812V34.6221H276.812ZM316.13 3.4209V2.9209H315.63V3.4209H316.13ZM368.938 5.69141L368.792 6.1698L368.793 6.17019L368.938 5.69141ZM381.096 14.9199L380.679 15.1963L380.68 15.1983L381.096 14.9199ZM382.414 51.6875L382.024 51.3743L382.021 51.3786L382.414 51.6875ZM369.597 57.9863L369.485 57.4989L369.486 58.474L369.597 57.9863ZM384.099 66.043L383.684 66.3228L383.686 66.3253L384.099 66.043ZM385.124 111.966L384.673 111.749L384.671 111.754L385.124 111.966ZM316.13 122H315.63V122.5H316.13V122ZM346.965 23.709L346.973 23.209L346.465 23.2012V23.709H346.965ZM346.965 50.0762H346.465V50.595L346.983 50.5758L346.965 50.0762ZM355.827 47.8057L356.262 48.0522L356.266 48.0461L355.827 47.8057ZM356.047 27.2246L355.591 27.4304L355.594 27.4361L356.047 27.2246ZM353.337 24.3682L353.166 24.8381L353.173 24.8404L353.337 24.3682ZM346.965 68.5332L346.981 68.0335L346.465 68.017V68.5332H346.965ZM346.965 101.712H346.465V102.229L346.982 102.212L346.965 101.712ZM355.241 99.6611L354.888 99.3075L354.881 99.3149L355.241 99.6611ZM316.13 3.9209H346.892V2.9209H316.13V3.9209ZM346.892 3.9209C356.594 3.9209 363.883 4.67792 368.792 6.1698L369.083 5.21301C364.031 3.67755 356.623 2.9209 346.892 2.9209V3.9209ZM368.793 6.17019C373.704 7.64814 377.663 10.6485 380.679 15.1963L381.512 14.6436C378.376 9.91397 374.23 6.76202 369.082 5.21262L368.793 6.17019ZM380.68 15.1983C383.671 19.6611 385.21 26.9581 385.21 37.1855H386.21C386.21 26.9052 384.672 19.3584 381.511 14.6416L380.68 15.1983ZM385.21 37.1855C385.21 44.0996 384.108 48.7816 382.024 51.3743L382.804 52.0007C385.115 49.1247 386.21 44.1387 386.21 37.1855H385.21ZM382.021 51.3786C379.983 53.9722 375.856 56.04 369.485 57.4989L369.708 58.4737C376.13 57.003 380.548 54.8716 382.807 51.9964L382.021 51.3786ZM369.486 58.474C376.563 60.0736 381.249 62.717 383.684 66.3228L384.513 65.7631C381.87 61.8494 376.888 59.1217 369.707 57.4986L369.486 58.474ZM383.686 66.3253C386.14 69.9124 387.407 75.5034 387.407 83.1816H388.407C388.407 75.4302 387.135 69.5954 384.511 65.7606L383.686 66.3253ZM387.407 83.1816V94.168H388.407V83.1816H387.407ZM387.407 94.168C387.407 102.155 386.479 107.995 384.673 111.749L385.575 112.183C387.48 108.221 388.407 102.196 388.407 94.168H387.407ZM384.671 111.754C382.921 115.49 380.119 118.033 376.241 119.405L376.575 120.347C380.705 118.887 383.714 116.156 385.577 112.178L384.671 111.754ZM376.241 119.405C374.301 120.091 371.301 120.618 367.21 120.971C363.128 121.323 357.992 121.5 351.799 121.5V122.5C358.008 122.5 363.175 122.323 367.296 121.967C371.408 121.612 374.511 121.077 376.575 120.347L376.241 119.405ZM351.799 121.5H316.13V122.5H351.799V121.5ZM316.63 122V3.4209H315.63V122H316.63ZM346.465 23.709V50.0762H347.465V23.709H346.465ZM346.983 50.5758C348.3 50.5271 349.318 50.5029 350.041 50.5029V49.5029C349.299 49.5029 348.267 49.5276 346.946 49.5765L346.983 50.5758ZM350.041 50.5029C353.104 50.5029 355.29 49.7682 356.262 48.0522L355.392 47.5592C354.704 48.7729 353.033 49.5029 350.041 49.5029V50.5029ZM356.266 48.0461C356.736 47.1889 357.052 45.6464 357.259 43.5144C357.468 41.3553 357.572 38.5113 357.572 34.9883H356.572C356.572 38.4965 356.469 41.3044 356.263 43.4177C356.055 45.5582 355.749 46.9087 355.389 47.5652L356.266 48.0461ZM357.572 34.9883C357.572 31.2753 357.235 28.5874 356.5 27.0132L355.594 27.4361C356.226 28.7915 356.572 31.2794 356.572 34.9883H357.572ZM356.503 27.0188C355.785 25.4309 354.798 24.3471 353.501 23.8959L353.173 24.8404C354.121 25.1704 354.941 25.991 355.591 27.4304L356.503 27.0188ZM353.508 23.8983C352.343 23.4747 350.136 23.2577 346.973 23.209L346.957 24.2089C350.141 24.2579 352.183 24.4804 353.166 24.8381L353.508 23.8983ZM346.465 68.5332V101.712H347.465V68.5332H346.465ZM346.982 102.212C349.173 102.138 350.987 101.928 352.413 101.575C353.829 101.224 354.92 100.718 355.602 100.007L354.881 99.3149C354.391 99.8251 353.516 100.271 352.173 100.604C350.84 100.934 349.102 101.14 346.948 101.212L346.982 102.212ZM355.595 100.015C356.31 99.2994 356.793 98.1255 357.104 96.593C357.419 95.0459 357.572 93.062 357.572 90.6523H356.572C356.572 93.0279 356.42 94.938 356.125 96.3938C355.826 97.8642 355.393 98.8022 354.888 99.3076L355.595 100.015ZM357.572 90.6523V79.5928H356.572V90.6523H357.572ZM357.572 79.5928C357.572 77.0404 357.438 74.9695 357.162 73.3911C356.891 71.8393 356.469 70.665 355.814 70.0107L355.107 70.7178C355.527 71.1377 355.911 72.0387 356.177 73.563C356.438 75.0607 356.572 77.0671 356.572 79.5928H357.572ZM355.814 70.0107C355.171 69.3676 354.075 68.922 352.637 68.6121C351.179 68.298 349.291 68.1072 346.981 68.0335L346.949 69.033C349.229 69.1057 351.051 69.2933 352.426 69.5896C353.82 69.89 354.676 70.2867 355.107 70.7178L355.814 70.0107ZM469.133 3.4209H469.633V2.9209H469.133V3.4209ZM468.254 101.639L468.747 101.719L468.748 101.718L468.254 101.639ZM463.054 112.845L463.452 113.146L463.454 113.144L463.054 112.845ZM451.628 121.561L451.82 122.022L451.823 122.021L451.628 121.561ZM399.333 99.9541L398.836 100.012L398.836 100.013L399.333 99.9541ZM398.601 3.4209V2.9209H398.101V3.4209H398.601ZM429.436 3.4209H429.936V2.9209H429.436V3.4209ZM430.241 102.298L429.772 102.47L429.775 102.48L429.779 102.489L430.241 102.298ZM437.419 102.078L436.949 101.907L436.946 101.916L437.419 102.078ZM438.298 3.4209V2.9209H437.798V3.4209H438.298ZM468.633 3.4209V82.6689H469.633V3.4209H468.633ZM468.633 82.6689C468.633 91.6535 468.339 97.941 467.76 101.56L468.748 101.718C469.341 98.0122 469.633 91.6531 469.633 82.6689H468.633ZM467.76 101.559C467.191 105.071 465.5 108.733 462.653 112.546L463.454 113.144C466.369 109.242 468.145 105.433 468.747 101.719L467.76 101.559ZM462.655 112.543C459.831 116.276 456.095 119.129 451.433 121.1L451.823 122.021C456.633 119.988 460.515 117.03 463.452 113.146L462.655 112.543ZM451.436 121.099C446.823 123.021 441.349 123.99 435.002 123.99V124.99C441.448 124.99 447.058 124.006 451.82 122.022L451.436 121.099ZM435.002 123.99C427.977 123.99 421.797 122.827 416.45 120.516L416.053 121.434C421.547 123.809 427.867 124.99 435.002 124.99V123.99ZM416.45 120.516C411.091 118.198 407.12 115.197 404.501 111.529L403.687 112.11C406.438 115.962 410.573 119.064 416.053 121.434L416.45 120.516ZM404.501 111.529C401.859 107.83 400.307 103.954 399.83 99.8957L398.836 100.013C399.336 104.255 400.958 108.289 403.687 112.11L404.501 111.529ZM399.83 99.8964C399.345 95.7311 399.101 86.9718 399.101 73.5869H398.101C398.101 86.9598 398.344 95.7787 398.836 100.012L399.83 99.8964ZM399.101 73.5869V3.4209H398.101V73.5869H399.101ZM398.601 3.9209H429.436V2.9209H398.601V3.9209ZM428.936 3.4209V92.3369H429.936V3.4209H428.936ZM428.936 92.3369C428.936 94.9318 429.003 97.0705 429.139 98.7493C429.273 100.415 429.478 101.67 429.772 102.47L430.711 102.126C430.467 101.461 430.269 100.323 430.135 98.6687C430.003 97.0271 429.936 94.9178 429.936 92.3369H428.936ZM429.779 102.489C430.107 103.28 430.604 103.9 431.279 104.316C431.95 104.731 432.761 104.922 433.684 104.922V103.922C432.897 103.922 432.28 103.759 431.804 103.465C431.331 103.174 430.962 102.731 430.703 102.107L429.779 102.489ZM433.684 104.922C434.724 104.922 435.624 104.714 436.348 104.259C437.079 103.801 437.591 103.116 437.892 102.241L436.946 101.916C436.71 102.603 436.33 103.09 435.817 103.412C435.296 103.739 434.596 103.922 433.684 103.922V104.922ZM437.889 102.249C438.207 101.375 438.43 99.973 438.577 98.0886C438.724 96.1908 438.798 93.7595 438.798 90.7988H437.798C437.798 93.7463 437.725 96.1491 437.58 98.011C437.434 99.8864 437.217 101.17 436.949 101.907L437.889 102.249ZM438.798 90.7988V3.4209H437.798V90.7988H438.798ZM438.298 3.9209H469.133V2.9209H438.298V3.9209ZM511.906 3.4209H512.406V2.9209H511.906V3.4209ZM511.906 122V122.5H512.406V122H511.906ZM481.071 122H480.571V122.5H481.071V122ZM481.071 3.4209V2.9209H480.571V3.4209H481.071ZM511.406 3.4209V122H512.406V3.4209H511.406ZM511.906 121.5H481.071V122.5H511.906V121.5ZM481.571 122V3.4209H480.571V122H481.571ZM481.071 3.9209H511.906V2.9209H481.071V3.9209ZM555.119 3.4209H555.619V2.9209H555.119V3.4209ZM555.119 98.2695H554.619V98.7695H555.119V98.2695ZM573.869 98.2695H574.369V97.7695H573.869V98.2695ZM573.869 122V122.5H574.369V122H573.869ZM524.284 122H523.784V122.5H524.284V122ZM524.284 3.4209V2.9209H523.784V3.4209H524.284ZM554.619 3.4209V98.2695H555.619V3.4209H554.619ZM555.119 98.7695H573.869V97.7695H555.119V98.7695ZM573.369 98.2695V122H574.369V98.2695H573.369ZM573.869 121.5H524.284V122.5H573.869V121.5ZM524.784 122V3.4209H523.784V122H524.784ZM524.284 3.9209H555.119V2.9209H524.284V3.9209ZM581.413 3.4209V2.9209H580.913V3.4209H581.413ZM634.66 5.47168L634.534 5.95539L634.535 5.95568L634.66 5.47168ZM651.799 22.6836L651.307 22.7708L651.307 22.7719L651.799 22.6836ZM651.286 108.157L650.805 108.021L650.804 108.025L651.286 108.157ZM646.086 116.58L646.399 116.97L646.404 116.966L646.086 116.58ZM636.857 120.828L636.962 121.317L636.968 121.316L636.857 120.828ZM581.413 122H580.913V122.5H581.413V122ZM612.248 23.709V23.209H611.748V23.709H612.248ZM612.248 101.712H611.748V102.212H612.248V101.712ZM620.451 99.0752L620.883 99.3271L620.886 99.322L620.451 99.0752ZM619.133 24.8076L618.876 25.2364L618.882 25.2402L618.888 25.2439L619.133 24.8076ZM581.413 3.9209H604.484V2.9209H581.413V3.9209ZM604.484 3.9209C619.384 3.9209 629.38 4.60685 634.534 5.95539L634.787 4.98797C629.491 3.60213 619.37 2.9209 604.484 2.9209V3.9209ZM634.535 5.95568C639.741 7.30542 643.645 9.51018 646.296 12.5392L647.048 11.8807C644.23 8.65974 640.126 6.37231 634.786 4.98768L634.535 5.95568ZM646.296 12.5392C648.974 15.5999 650.64 19.0086 651.307 22.7708L652.291 22.5963C651.591 18.6437 649.839 15.07 647.048 11.8807L646.296 12.5392ZM651.307 22.7719C651.981 26.5298 652.324 34.0052 652.324 45.2422H653.324C653.324 34.0182 652.984 26.4546 652.291 22.5953L651.307 22.7719ZM652.324 45.2422V86.7705H653.324V45.2422H652.324ZM652.324 86.7705C652.324 97.4243 651.809 104.485 650.805 108.021L651.767 108.294C652.814 104.603 653.324 97.4058 653.324 86.7705H652.324ZM650.804 108.025C649.851 111.505 648.167 114.218 645.768 116.194L646.404 116.966C648.985 114.84 650.769 111.938 651.768 108.289L650.804 108.025ZM645.773 116.19C643.351 118.137 640.348 119.524 636.747 120.34L636.968 121.316C640.691 120.472 643.84 119.027 646.399 116.97L645.773 116.19ZM636.753 120.339C633.144 121.109 627.669 121.5 620.305 121.5V122.5C627.686 122.5 633.246 122.11 636.962 121.317L636.753 120.339ZM620.305 121.5H581.413V122.5H620.305V121.5ZM581.913 122V3.4209H580.913V122H581.913ZM611.748 23.709V101.712H612.748V23.709H611.748ZM612.248 102.212C614.497 102.212 616.348 101.99 617.784 101.529C619.221 101.067 620.287 100.349 620.883 99.3271L620.019 98.8233C619.59 99.5588 618.776 100.16 617.478 100.577C616.18 100.994 614.443 101.212 612.248 101.212V102.212ZM620.886 99.322C621.455 98.3192 621.846 96.5583 622.102 94.1289C622.361 91.675 622.489 88.4633 622.489 84.5H621.489C621.489 88.4468 621.361 91.6195 621.107 94.0239C620.851 96.4529 620.473 98.0245 620.016 98.8284L620.886 99.322ZM622.489 84.5V38.4307H621.489V84.5H622.489ZM622.489 38.4307C622.489 33.0751 622.321 29.5723 621.964 27.9934L620.989 28.2136C621.316 29.6621 621.489 33.0441 621.489 38.4307H622.489ZM621.964 27.9934C621.595 26.3582 620.736 25.1322 619.377 24.3714L618.888 25.2439C619.971 25.8502 620.674 26.8214 620.989 28.2136L621.964 27.9934ZM619.39 24.3789C618.701 23.9655 617.751 23.6775 616.575 23.4899C615.393 23.3012 613.948 23.209 612.248 23.209V24.209C613.917 24.209 615.305 24.2998 616.417 24.4774C617.537 24.656 618.344 24.9173 618.876 25.2364L619.39 24.3789ZM756.169 39.3096V39.8096H756.669V39.3096H756.169ZM727.531 39.3096H727.031V39.8096H727.531V39.3096ZM718.522 23.2695L718.102 22.9984L718.096 23.0083L718.522 23.2695ZM718.742 39.0898L719.187 38.8619L719.183 38.8534L718.742 39.0898ZM727.458 46.3408L727.713 45.911L727.713 45.9105L727.458 46.3408ZM755.729 110.354L755.282 110.131L755.28 110.135L755.729 110.354ZM744.304 120.462L744.518 120.914L744.521 120.912L744.304 120.462ZM703.361 119.803L703.125 120.243L703.126 120.244L703.361 119.803ZM689.226 79.5195V79.0195H688.726V79.5195H689.226ZM717.863 79.5195H718.363V79.0195H717.863V79.5195ZM719.035 102.518L718.609 102.78L718.617 102.791L719.035 102.518ZM727.897 102.005L727.476 101.736L727.47 101.746L727.897 102.005ZM726.579 81.1309L726.953 80.7992L726.949 80.7945L726.579 81.1309ZM712.15 70.3643L711.874 70.7811L711.876 70.7823L712.15 70.3643ZM690.69 49.7832L690.226 49.9679L690.228 49.9727L690.69 49.7832ZM691.716 14.334L691.279 14.0903L691.277 14.0942L691.716 14.334ZM702.995 4.51953L703.201 4.97502L703.205 4.97338L702.995 4.51953ZM742.18 4.8125L741.97 5.2666L741.972 5.26728L742.18 4.8125ZM753.386 14.627L752.931 14.8347L752.934 14.8415L753.386 14.627ZM756.169 38.8096H727.531V39.8096H756.169V38.8096ZM728.031 39.3096V30.5205H727.031V39.3096H728.031ZM728.031 30.5205C728.031 28.4577 727.939 26.7538 727.752 25.4157C727.566 24.0939 727.28 23.0682 726.851 22.4105L726.014 22.9567C726.317 23.4221 726.581 24.2641 726.761 25.5545C726.94 26.8287 727.031 28.4817 727.031 30.5205H728.031ZM726.851 22.4105C726.001 21.1069 724.596 20.499 722.771 20.499V21.499C724.363 21.499 725.399 22.0142 726.014 22.9567L726.851 22.4105ZM722.771 20.499C720.751 20.499 719.174 21.337 718.102 22.9985L718.943 23.5406C719.824 22.1747 721.079 21.499 722.771 21.499V20.499ZM718.096 23.0083C717.097 24.6391 716.631 27.0451 716.631 30.1543H717.631C717.631 27.1111 718.093 24.9273 718.949 23.5308L718.096 23.0083ZM716.631 30.1543C716.631 34.139 717.169 37.2161 718.302 39.3263L719.183 38.8534C718.167 36.9597 717.631 34.0798 717.631 30.1543H716.631ZM718.297 39.3178C718.855 40.4062 719.896 41.5622 721.37 42.7884C722.851 44.0198 724.797 45.3472 727.203 46.7711L727.713 45.9105C725.333 44.5024 723.435 43.2053 722.01 42.0197C720.579 40.8289 719.655 39.7754 719.187 38.8619L718.297 39.3178ZM727.203 46.7706C734.053 50.8416 739.625 54.5411 743.924 57.869C748.23 61.2014 751.234 64.1423 752.973 66.691L753.799 66.1274C751.973 63.4515 748.874 60.4353 744.536 57.0782C740.194 53.7168 734.584 49.9943 727.713 45.911L727.203 46.7706ZM752.973 66.691C756.45 71.7879 758.232 80.0846 758.232 91.6777H759.232C759.232 80.0287 757.45 71.4796 753.799 66.1274L752.973 66.691ZM758.232 91.6777C758.232 100.105 757.231 106.234 755.282 110.131L756.177 110.578C758.232 106.467 759.232 100.145 759.232 91.6777H758.232ZM755.28 110.135C753.393 114.004 749.69 117.306 744.086 120.012L744.521 120.912C750.245 118.149 754.16 114.713 756.179 110.574L755.28 110.135ZM744.089 120.01C738.504 122.658 731.988 123.99 724.528 123.99V124.99C732.107 124.99 738.775 123.637 744.518 120.914L744.089 120.01ZM724.528 123.99C716.339 123.99 709.368 122.44 703.597 119.362L703.126 120.244C709.073 123.416 716.214 124.99 724.528 124.99V123.99ZM703.598 119.362C697.864 116.278 694.157 112.381 692.404 107.689L691.467 108.039C693.327 113.016 697.238 117.077 703.125 120.243L703.598 119.362ZM692.404 107.689C690.628 102.938 689.726 96.1469 689.726 87.2832H688.726C688.726 96.1929 689.63 103.123 691.467 108.039L692.404 107.689ZM689.726 87.2832V79.5195H688.726V87.2832H689.726ZM689.226 80.0195H717.863V79.0195H689.226V80.0195ZM717.363 79.5195V93.9482H718.363V79.5195H717.363ZM717.363 93.9482C717.363 96.1819 717.461 98.0316 717.661 99.4908C717.858 100.936 718.162 102.053 718.609 102.78L719.461 102.256C719.127 101.713 718.845 100.767 718.652 99.3553C718.461 97.9582 718.363 96.158 718.363 93.9482H717.363ZM718.617 102.791C719.57 104.249 721.203 104.922 723.356 104.922V103.922C721.409 103.922 720.16 103.325 719.454 102.244L718.617 102.791ZM723.356 104.922C725.563 104.922 727.249 104.04 728.325 102.264L727.47 101.746C726.593 103.192 725.251 103.922 723.356 103.922V104.922ZM728.319 102.273C729.419 100.545 729.936 98.0397 729.936 94.8271H728.936C728.936 97.9622 728.426 100.242 727.476 101.736L728.319 102.273ZM729.936 94.8271C729.936 91.3168 729.697 88.3926 729.211 86.0642C728.727 83.7439 727.989 81.9673 726.953 80.7992L726.205 81.4625C727.074 82.4428 727.764 84.0232 728.232 86.2683C728.698 88.5053 728.936 91.3551 728.936 94.8271H729.936ZM726.949 80.7945C724.946 78.5907 720.079 74.9681 712.425 69.9462L711.876 70.7823C719.553 75.819 724.306 79.3741 726.209 81.4672L726.949 80.7945ZM712.427 69.9474C704.757 64.8672 699.712 61.201 697.255 58.937L696.577 59.6724C699.101 61.9982 704.211 65.705 711.874 70.7811L712.427 69.9474ZM697.255 58.937C694.832 56.704 692.793 53.5978 691.153 49.5937L690.228 49.9727C691.908 54.0741 694.02 57.3155 696.577 59.6724L697.255 58.937ZM691.155 49.5985C689.575 45.6245 688.773 40.5172 688.773 34.2559H687.773C687.773 40.5922 688.583 45.8365 690.226 49.9679L691.155 49.5985ZM688.773 34.2559C688.773 25.1949 689.922 18.6592 692.155 14.5738L691.277 14.0942C688.92 18.4072 687.773 25.1527 687.773 34.2559H688.773ZM692.152 14.5777C694.435 10.488 698.105 7.28289 703.201 4.97501L702.789 4.06405C697.534 6.44368 693.684 9.78156 691.279 14.0903L692.152 14.5777ZM703.205 4.97338C708.299 2.61856 714.474 1.43066 721.745 1.43066V0.430664C714.368 0.430664 708.043 1.63534 702.785 4.06568L703.205 4.97338ZM721.745 1.43066C729.701 1.43066 736.437 2.71649 741.97 5.2666L742.389 4.3584C736.692 1.73273 729.805 0.430664 721.745 0.430664V1.43066ZM741.972 5.26728C747.573 7.82648 751.192 11.028 752.931 14.8347L753.841 14.4192C751.966 10.3158 748.114 6.9743 742.387 4.35772L741.972 5.26728ZM752.934 14.8415C754.738 18.6388 755.669 25.205 755.669 34.6221H756.669C756.669 25.1915 755.745 18.4276 753.837 14.4124L752.934 14.8415ZM755.669 34.6221V39.3096H756.669V34.6221H755.669ZM838.054 98.1963L837.557 98.1379L837.557 98.1422L838.054 98.1963ZM832.78 111.746L832.376 111.452L832.373 111.455L832.78 111.746ZM786.125 121.414L785.932 121.876L785.938 121.878L786.125 121.414ZM768.4 27.2979L767.904 27.2394L767.903 27.2437L768.4 27.2979ZM773.674 13.6748L773.269 13.381L773.267 13.3842L773.674 13.6748ZM820.329 4.08008L820.136 4.54152L820.142 4.5437L820.329 4.08008ZM807.146 23.3428L806.677 23.5183L806.681 23.5273L806.684 23.5361L807.146 23.3428ZM799.675 22.9033L799.264 22.6187L799.261 22.6222L799.675 22.9033ZM799.235 102.005L798.761 102.163L798.765 102.176L799.235 102.005ZM838.433 72.8545C838.433 84.7682 838.139 93.1894 837.557 98.1379L838.55 98.2547C839.14 93.2422 839.433 84.7689 839.433 72.8545H838.433ZM837.557 98.1422C837.029 102.985 835.304 107.42 832.376 111.452L833.185 112.04C836.213 107.869 838.004 103.271 838.551 98.2504L837.557 98.1422ZM832.373 111.455C829.501 115.477 825.596 118.572 820.642 120.736L821.042 121.653C826.146 119.422 830.2 116.218 833.187 112.037L832.373 111.455ZM820.642 120.736C815.688 122.9 809.899 123.99 803.264 123.99V124.99C810.007 124.99 815.937 123.883 821.042 121.653L820.642 120.736ZM803.264 123.99C796.97 123.99 791.322 122.974 786.312 120.95L785.938 121.878C791.084 123.956 796.862 124.99 803.264 124.99V123.99ZM786.318 120.953C781.367 118.886 777.388 115.815 774.368 111.741L773.565 112.337C776.698 116.564 780.825 119.743 785.932 121.875L786.318 120.953ZM774.368 111.741C771.341 107.657 769.545 103.222 768.97 98.4297L767.977 98.5488C768.574 103.522 770.44 108.12 773.565 112.337L774.368 111.741ZM768.97 98.4297C768.388 93.5799 768.095 85.0622 768.095 72.8545H767.095C767.095 85.0608 767.387 93.633 767.977 98.5488L768.97 98.4297ZM768.095 72.8545V52.5664H767.095V72.8545H768.095ZM768.095 52.5664C768.095 40.6524 768.364 32.2539 768.897 27.352L767.903 27.2437C767.363 32.2051 767.095 40.6523 767.095 52.5664H768.095ZM768.897 27.3563C769.473 22.46 771.2 17.9988 774.081 13.9654L773.267 13.3842C770.289 17.554 768.5 22.1748 767.904 27.2394L768.897 27.3563ZM774.078 13.9686C777 9.94496 780.931 6.84943 785.886 4.68474L785.485 3.76838C780.381 5.99823 776.304 9.20152 773.269 13.381L774.078 13.9686ZM785.886 4.68474C790.84 2.5204 796.628 1.43066 803.264 1.43066V0.430664C796.52 0.430664 790.59 1.53819 785.485 3.76838L785.886 4.68474ZM803.264 1.43066C809.556 1.43066 815.177 2.47119 820.136 4.54148L820.522 3.61867C815.422 1.48975 809.667 0.430664 803.264 0.430664V1.43066ZM820.142 4.5437C825.14 6.56215 829.141 9.60767 832.159 13.6796L832.962 13.0841C829.828 8.85522 825.674 5.69957 820.516 3.61646L820.142 4.5437ZM832.159 13.6796C835.186 17.7638 836.982 22.1991 837.557 26.9912L838.55 26.8721C837.953 21.8986 836.087 17.3006 832.962 13.0841L832.159 13.6796ZM837.557 26.9912C838.139 31.841 838.433 40.3587 838.433 52.5664H839.433C839.433 40.3601 839.14 31.7879 838.55 26.8721L837.557 26.9912ZM838.433 52.5664V72.8545H839.433V52.5664H838.433ZM808.598 33.8896C808.598 31.1232 808.518 28.8484 808.358 27.0698C808.198 25.3057 807.956 23.9822 807.607 23.1494L806.684 23.5361C806.97 24.217 807.203 25.4081 807.362 27.1597C807.518 28.8967 807.598 31.1385 807.598 33.8896H808.598ZM807.614 23.1672C807.288 22.2979 806.766 21.618 806.038 21.1614C805.315 20.7081 804.429 20.499 803.41 20.499V21.499C804.296 21.499 804.984 21.6806 805.506 22.0085C806.024 22.3331 806.417 22.8251 806.677 23.5183L807.614 23.1672ZM803.41 20.499C801.643 20.499 800.241 21.2075 799.264 22.6187L800.086 23.1879C800.867 22.0601 801.954 21.499 803.41 21.499V20.499ZM799.261 22.6222C799.006 22.9976 798.807 23.5204 798.646 24.1531C798.482 24.7931 798.349 25.5803 798.244 26.5091C798.034 28.367 797.93 30.8295 797.93 33.8896H798.93C798.93 30.8462 799.033 28.426 799.238 26.6217C799.34 25.7195 799.466 24.9809 799.615 24.4002C799.765 23.8121 799.929 23.4194 800.088 23.1845L799.261 22.6222ZM797.93 33.8896V89.2607H798.93V33.8896H797.93ZM797.93 89.2607C797.93 92.7081 797.997 95.503 798.132 97.6419C798.266 99.7635 798.469 101.288 798.761 102.163L799.71 101.847C799.464 101.11 799.265 99.7052 799.13 97.5788C798.997 95.4697 798.93 92.6982 798.93 89.2607H797.93ZM798.765 102.176C799.093 103.076 799.636 103.776 800.403 104.244C801.162 104.708 802.102 104.922 803.19 104.922V103.922C802.228 103.922 801.483 103.733 800.924 103.391C800.372 103.054 799.964 102.546 799.705 101.834L798.765 102.176ZM803.19 104.922C804.313 104.922 805.28 104.674 806.056 104.137C806.836 103.599 807.376 102.802 807.696 101.789L806.742 101.488C806.476 102.331 806.051 102.925 805.488 103.315C804.921 103.706 804.168 103.922 803.19 103.922V104.922ZM807.696 101.789C808.008 100.799 808.23 99.1778 808.377 96.9659C808.524 94.7411 808.598 91.8786 808.598 88.3818H807.598C807.598 91.8675 807.524 94.7057 807.379 96.8998C807.233 99.1068 807.015 100.623 806.742 101.488L807.696 101.789ZM808.598 88.3818V33.8896H807.598V88.3818H808.598ZM945.646 3.4209H946.146V2.9209H945.646V3.4209ZM945.646 122V122.5H946.146V122H945.646ZM918.693 122H918.193V122.5H918.693V122ZM918.693 41.9463H919.193L918.198 41.8796L918.693 41.9463ZM907.927 122V122.5H908.364L908.422 122.067L907.927 122ZM888.811 122L888.316 122.072L888.378 122.5H888.811V122ZM877.458 43.7773L877.953 43.7055L876.958 43.7773H877.458ZM877.458 122V122.5H877.958V122H877.458ZM850.505 122H850.005V122.5H850.505V122ZM850.505 3.4209V2.9209H850.005V3.4209H850.505ZM890.422 3.4209L890.915 3.3398L890.846 2.9209H890.422V3.4209ZM894.157 28.6162L893.662 28.6838L893.662 28.6859L894.157 28.6162ZM898.405 58.792L897.91 58.8617L898.901 58.855L898.405 58.792ZM905.437 3.4209V2.9209H904.996L904.94 3.35791L905.437 3.4209ZM945.146 3.4209V122H946.146V3.4209H945.146ZM945.646 121.5H918.693V122.5H945.646V121.5ZM919.193 122V41.9463H918.193V122H919.193ZM918.198 41.8796L907.431 121.933L908.422 122.067L919.189 42.0129L918.198 41.8796ZM907.927 121.5H888.811V122.5H907.927V121.5ZM889.305 121.928L877.953 43.7055L876.963 43.8492L888.316 122.072L889.305 121.928ZM876.958 43.7773V122H877.958V43.7773H876.958ZM877.458 121.5H850.505V122.5H877.458V121.5ZM851.005 122V3.4209H850.005V122H851.005ZM850.505 3.9209H890.422V2.9209H850.505V3.9209ZM889.928 3.502C891.099 10.6252 892.344 19.0189 893.662 28.6838L894.653 28.5487C893.334 18.8776 892.088 10.4745 890.915 3.3398L889.928 3.502ZM893.662 28.6859L897.91 58.8617L898.9 58.7223L894.652 28.5465L893.662 28.6859ZM898.901 58.855L905.933 3.48388L904.94 3.35791L897.909 58.729L898.901 58.855ZM905.437 3.9209H945.646V2.9209H905.437V3.9209ZM958.024 3.4209V2.9209H957.524V3.4209H958.024ZM1009.44 3.4209H1009.94V2.9209H1009.44V3.4209ZM1009.44 27.1514V27.6514H1009.94V27.1514H1009.44ZM988.859 27.1514V26.6514H988.359V27.1514H988.859ZM988.859 49.6367H988.359V50.1367H988.859V49.6367ZM1008.12 49.6367H1008.62V49.1367H1008.12V49.6367ZM1008.12 72.1953V72.6953H1008.62V72.1953H1008.12ZM988.859 72.1953V71.6953H988.359V72.1953H988.859ZM988.859 98.2695H988.359V98.7695H988.859V98.2695ZM1011.49 98.2695H1011.99V97.7695H1011.49V98.2695ZM1011.49 122V122.5H1011.99V122H1011.49ZM958.024 122H957.524V122.5H958.024V122ZM958.024 3.9209H1009.44V2.9209H958.024V3.9209ZM1008.94 3.4209V27.1514H1009.94V3.4209H1008.94ZM1009.44 26.6514H988.859V27.6514H1009.44V26.6514ZM988.359 27.1514V49.6367H989.359V27.1514H988.359ZM988.859 50.1367H1008.12V49.1367H988.859V50.1367ZM1007.62 49.6367V72.1953H1008.62V49.6367H1007.62ZM1008.12 71.6953H988.859V72.6953H1008.12V71.6953ZM988.359 72.1953V98.2695H989.359V72.1953H988.359ZM988.859 98.7695H1011.49V97.7695H988.859V98.7695ZM1010.99 98.2695V122H1011.99V98.2695H1010.99ZM1011.49 121.5H958.024V122.5H1011.49V121.5ZM958.524 122V3.4209H957.524V122H958.524ZM1080.49 3.4209H1080.99V2.9209H1080.49V3.4209ZM1080.49 27.1514V27.6514H1080.99V27.1514H1080.49ZM1062.17 27.1514V26.6514H1061.67V27.1514H1062.17ZM1062.17 122V122.5H1062.67V122H1062.17ZM1031.34 122H1030.84V122.5H1031.34V122ZM1031.34 27.1514H1031.84V26.6514H1031.34V27.1514ZM1013.1 27.1514H1012.6V27.6514H1013.1V27.1514ZM1013.1 3.4209V2.9209H1012.6V3.4209H1013.1ZM1079.99 3.4209V27.1514H1080.99V3.4209H1079.99ZM1080.49 26.6514H1062.17V27.6514H1080.49V26.6514ZM1061.67 27.1514V122H1062.67V27.1514H1061.67ZM1062.17 121.5H1031.34V122.5H1062.17V121.5ZM1031.84 122V27.1514H1030.84V122H1031.84ZM1031.34 26.6514H1013.1V27.6514H1031.34V26.6514ZM1013.6 27.1514V3.4209H1012.6V27.1514H1013.6ZM1013.1 3.9209H1080.49V2.9209H1013.1V3.9209ZM1158.42 3.4209H1158.92V2.9209H1158.42V3.4209ZM1158.42 122V122.5H1158.92V122H1158.42ZM1127.58 122H1127.08V122.5H1127.58V122ZM1127.58 72.1953H1128.08V71.6953H1127.58V72.1953ZM1118.35 72.1953V71.6953H1117.85V72.1953H1118.35ZM1118.35 122V122.5H1118.85V122H1118.35ZM1087.52 122H1087.02V122.5H1087.52V122ZM1087.52 3.4209V2.9209H1087.02V3.4209H1087.52ZM1118.35 3.4209H1118.85V2.9209H1118.35V3.4209ZM1118.35 45.8281H1117.85V46.3281H1118.35V45.8281ZM1127.58 45.8281V46.3281H1128.08V45.8281H1127.58ZM1127.58 3.4209V2.9209H1127.08V3.4209H1127.58ZM1157.92 3.4209V122H1158.92V3.4209H1157.92ZM1158.42 121.5H1127.58V122.5H1158.42V121.5ZM1128.08 122V72.1953H1127.08V122H1128.08ZM1127.58 71.6953H1118.35V72.6953H1127.58V71.6953ZM1117.85 72.1953V122H1118.85V72.1953H1117.85ZM1118.35 121.5H1087.52V122.5H1118.35V121.5ZM1088.02 122V3.4209H1087.02V122H1088.02ZM1087.52 3.9209H1118.35V2.9209H1087.52V3.9209ZM1117.85 3.4209V45.8281H1118.85V3.4209H1117.85ZM1118.35 46.3281H1127.58V45.3281H1118.35V46.3281ZM1128.08 45.8281V3.4209H1127.08V45.8281H1128.08ZM1127.58 3.9209H1158.42V2.9209H1127.58V3.9209ZM1201.7 3.4209H1202.2V2.9209H1201.7V3.4209ZM1201.7 122V122.5H1202.2V122H1201.7ZM1170.87 122H1170.37V122.5H1170.87V122ZM1170.87 3.4209V2.9209H1170.37V3.4209H1170.87ZM1201.2 3.4209V122H1202.2V3.4209H1201.2ZM1201.7 121.5H1170.87V122.5H1201.7V121.5ZM1171.37 122V3.4209H1170.37V122H1171.37ZM1170.87 3.9209H1201.7V2.9209H1170.87V3.9209ZM1282.93 3.4209H1283.43V2.9209H1282.93V3.4209ZM1282.93 122V122.5H1283.43V122H1282.93ZM1255.9 122L1255.42 122.143L1255.53 122.5H1255.9V122ZM1239.86 68.0938L1240.34 67.9511L1239.36 68.0938H1239.86ZM1239.86 122V122.5H1240.36V122H1239.86ZM1214.08 122H1213.58V122.5H1214.08V122ZM1214.08 3.4209V2.9209H1213.58V3.4209H1214.08ZM1239.86 3.4209L1240.34 3.2669L1240.22 2.9209H1239.86V3.4209ZM1257.15 56.8145L1256.67 56.9685L1257.65 56.8145H1257.15ZM1257.15 3.4209V2.9209H1256.65V3.4209H1257.15ZM1282.43 3.4209V122H1283.43V3.4209H1282.43ZM1282.93 121.5H1255.9V122.5H1282.93V121.5ZM1256.38 121.857L1240.34 67.9511L1239.38 68.2364L1255.42 122.143L1256.38 121.857ZM1239.36 68.0938V122H1240.36V68.0938H1239.36ZM1239.86 121.5H1214.08V122.5H1239.86V121.5ZM1214.58 122V3.4209H1213.58V122H1214.58ZM1214.08 3.9209H1239.86V2.9209H1214.08V3.9209ZM1239.38 3.5749L1256.67 56.9685L1257.62 56.6605L1240.34 3.2669L1239.38 3.5749ZM1257.65 56.8145V3.4209H1256.65V56.8145H1257.65ZM1257.15 3.9209H1282.93V2.9209H1257.15V3.9209ZM1366.13 47.0732V47.5732H1366.63V47.0732H1366.13ZM1335.29 47.0732H1334.79V47.5732H1335.29V47.0732ZM1326.36 101.932L1325.9 102.117L1325.9 102.122L1326.36 101.932ZM1335 101.565L1334.54 101.366L1334.54 101.376L1335 101.565ZM1336.25 76.3701H1336.75V75.8701H1336.25V76.3701ZM1330.02 76.3701H1329.52V76.8701H1330.02V76.3701ZM1330.02 58.3525V57.8525H1329.52V58.3525H1330.02ZM1366.13 58.3525H1366.63V57.8525H1366.13V58.3525ZM1366.13 122V122.5H1366.63V122H1366.13ZM1346.72 122L1346.25 122.159L1346.36 122.5H1346.72V122ZM1343.86 113.504L1344.34 113.345L1343.98 112.29L1343.43 113.255L1343.86 113.504ZM1335.88 121.78L1336.13 122.215L1336.13 122.214L1335.88 121.78ZM1310.03 120.755L1309.78 121.19L1309.79 121.193L1310.03 120.755ZM1295.38 99.7344L1294.88 99.8051L1294.88 99.8059L1295.38 99.7344ZM1306.8 7.37598L1307.1 7.77842L1307.1 7.77799L1306.8 7.37598ZM1363.42 19.7539L1362.95 19.9201L1362.95 19.9215L1363.42 19.7539ZM1366.13 46.5732H1335.29V47.5732H1366.13V46.5732ZM1335.79 47.0732V36.3066H1334.79V47.0732H1335.79ZM1335.79 36.3066C1335.79 32.9075 1335.72 30.136 1335.57 27.9959C1335.43 25.8711 1335.21 24.323 1334.89 23.4003L1333.94 23.7247C1334.21 24.5109 1334.43 25.9414 1334.58 28.0647C1334.72 30.1726 1334.79 32.9187 1334.79 36.3066H1335.79ZM1334.89 23.4003C1334.56 22.4485 1334 21.7084 1333.19 21.2138C1332.4 20.7243 1331.4 20.499 1330.24 20.499V21.499C1331.28 21.499 1332.08 21.701 1332.67 22.066C1333.26 22.4259 1333.68 22.9676 1333.94 23.7247L1334.89 23.4003ZM1330.24 20.499C1329.23 20.499 1328.34 20.6941 1327.6 21.1132C1326.85 21.5352 1326.29 22.1668 1325.91 22.9848L1326.81 23.4077C1327.11 22.7609 1327.54 22.2939 1328.09 21.9835C1328.64 21.6701 1329.35 21.499 1330.24 21.499V20.499ZM1325.91 22.9848C1325.52 23.8039 1325.26 25.1885 1325.09 27.0695C1324.92 28.9706 1324.83 31.441 1324.83 34.4756H1325.83C1325.83 31.4555 1325.92 29.0187 1326.09 27.16C1326.26 25.2813 1326.51 24.0535 1326.81 23.4077L1325.91 22.9848ZM1324.83 34.4756V91.3848H1325.83V34.4756H1324.83ZM1324.83 91.3848C1324.83 94.0548 1324.92 96.2818 1325.09 98.0616C1325.26 99.8317 1325.53 101.195 1325.9 102.117L1326.82 101.746C1326.51 100.959 1326.26 99.7103 1326.09 97.9648C1325.92 96.2289 1325.83 94.0369 1325.83 91.3848H1324.83ZM1325.9 102.122C1326.27 103.038 1326.85 103.75 1327.64 104.227C1328.42 104.701 1329.37 104.922 1330.46 104.922V103.922C1329.5 103.922 1328.74 103.728 1328.16 103.372C1327.58 103.019 1327.13 102.485 1326.82 101.741L1325.9 102.122ZM1330.46 104.922C1331.65 104.922 1332.69 104.669 1333.55 104.131C1334.4 103.591 1335.04 102.789 1335.46 101.755L1334.54 101.376C1334.18 102.247 1333.67 102.872 1333.01 103.285C1332.36 103.699 1331.51 103.922 1330.46 103.922V104.922ZM1335.46 101.765C1335.91 100.744 1336.22 99.2819 1336.43 97.4096C1336.64 95.5292 1336.75 93.2021 1336.75 90.4326H1335.75C1335.75 93.1807 1335.64 95.4679 1335.44 97.2984C1335.23 99.1371 1334.93 100.482 1334.54 101.366L1335.46 101.765ZM1336.75 90.4326V76.3701H1335.75V90.4326H1336.75ZM1336.25 75.8701H1330.02V76.8701H1336.25V75.8701ZM1330.52 76.3701V58.3525H1329.52V76.3701H1330.52ZM1330.02 58.8525H1366.13V57.8525H1330.02V58.8525ZM1365.63 58.3525V122H1366.63V58.3525H1365.63ZM1366.13 121.5H1346.72V122.5H1366.13V121.5ZM1347.19 121.841L1344.34 113.345L1343.39 113.663L1346.25 122.159L1347.19 121.841ZM1343.43 113.255C1341.37 116.851 1338.77 119.541 1335.63 121.347L1336.13 122.214C1339.44 120.308 1342.16 117.481 1344.3 113.753L1343.43 113.255ZM1335.63 121.346C1332.55 123.102 1328.88 123.99 1324.6 123.99V124.99C1329.02 124.99 1332.87 124.072 1336.13 122.215L1335.63 121.346ZM1324.6 123.99C1319.51 123.99 1314.73 122.766 1310.27 120.316L1309.79 121.193C1314.4 123.724 1319.34 124.99 1324.6 124.99V123.99ZM1310.27 120.32C1305.84 117.814 1302.49 114.743 1300.2 111.113L1299.35 111.647C1301.74 115.439 1305.23 118.618 1309.78 121.19L1310.27 120.32ZM1300.2 111.113C1297.89 107.457 1296.45 103.641 1295.87 99.6628L1294.88 99.8059C1295.48 103.933 1296.97 107.881 1299.35 111.647L1300.2 111.113ZM1295.87 99.6637C1295.29 95.5984 1295 89.4992 1295 81.3506H1294C1294 89.5105 1294.29 95.6673 1294.88 99.8051L1295.87 99.6637ZM1295 81.3506V46.1211H1294V81.3506H1295ZM1295 46.1211C1295 34.798 1295.61 26.6204 1296.82 21.5543L1295.84 21.3227C1294.61 26.5104 1294 34.7879 1294 46.1211H1295ZM1296.82 21.5543C1298 16.5777 1301.4 11.9815 1307.1 7.77842L1306.51 6.97353C1300.68 11.2665 1297.1 16.0453 1295.84 21.3227L1296.82 21.5543ZM1307.1 7.77799C1312.8 3.56014 1320.19 1.43066 1329.29 1.43066V0.430664C1320.03 0.430664 1312.42 2.59806 1306.51 6.97396L1307.1 7.77799ZM1329.29 1.43066C1338.26 1.43066 1345.65 3.27227 1351.51 6.92146L1352.04 6.07268C1345.98 2.3 1338.39 0.430664 1329.29 0.430664V1.43066ZM1351.51 6.92146C1357.4 10.59 1361.19 14.928 1362.95 19.9201L1363.89 19.5877C1362.04 14.3259 1358.06 9.82597 1352.04 6.07268L1351.51 6.92146ZM1362.95 19.9215C1364.73 24.9189 1365.63 32.2484 1365.63 41.9463H1366.63C1366.63 32.2106 1365.73 24.7452 1363.89 19.5863L1362.95 19.9215ZM1365.63 41.9463V47.0732H1366.63V41.9463H1365.63ZM168.84 153.421L169.334 153.347L169.271 152.921H168.84V153.421ZM186.491 272V272.5H187.071L186.986 271.926L186.491 272ZM154.924 272L154.425 272.036L154.459 272.5H154.924V272ZM153.386 250.687L153.884 250.651L153.851 250.187H153.386V250.687ZM142.326 250.687V250.187H141.867L141.828 250.644L142.326 250.687ZM140.495 272V272.5H140.954L140.993 272.043L140.495 272ZM108.562 272L108.066 271.934L107.991 272.5H108.562V272ZM124.235 153.421V152.921H123.797L123.74 153.355L124.235 153.421ZM152.507 229.666V230.166H153.068L153.003 229.608L152.507 229.666ZM147.819 179.935L148.318 179.895L147.324 179.866L147.819 179.935ZM141.96 229.666L141.461 229.629L141.421 230.166H141.96V229.666ZM168.345 153.495L185.997 272.074L186.986 271.926L169.334 153.347L168.345 153.495ZM186.491 271.5H154.924V272.5H186.491V271.5ZM155.423 271.964L153.884 250.651L152.887 250.723L154.425 272.036L155.423 271.964ZM153.386 250.187H142.326V251.187H153.386V250.187ZM141.828 250.644L139.997 271.957L140.993 272.043L142.824 250.729L141.828 250.644ZM140.495 271.5H108.562V272.5H140.495V271.5ZM109.057 272.066L124.731 153.486L123.74 153.355L108.066 271.934L109.057 272.066ZM124.235 153.921H168.84V152.921H124.235V153.921ZM153.003 229.608C151.442 216.189 149.88 199.618 148.318 179.895L147.321 179.974C148.884 199.704 150.447 216.288 152.01 229.724L153.003 229.608ZM147.324 179.866C144.199 202.524 142.244 219.114 141.461 229.629L142.459 229.703C143.239 219.222 145.19 202.658 148.315 180.003L147.324 179.866ZM141.96 230.166H152.507V229.166H141.96V230.166ZM286.906 153.421H287.406V152.921H286.906V153.421ZM286.906 272V272.5H287.406V272H286.906ZM259.953 272H259.453V272.5H259.953V272ZM259.953 191.946H260.453L259.458 191.88L259.953 191.946ZM249.187 272V272.5H249.624L249.682 272.067L249.187 272ZM230.07 272L229.576 272.072L229.638 272.5H230.07V272ZM218.718 193.777L219.213 193.706L218.218 193.777H218.718ZM218.718 272V272.5H219.218V272H218.718ZM191.765 272H191.265V272.5H191.765V272ZM191.765 153.421V152.921H191.265V153.421H191.765ZM231.682 153.421L232.175 153.34L232.106 152.921H231.682V153.421ZM235.417 178.616L234.922 178.684L234.922 178.686L235.417 178.616ZM239.665 208.792L239.17 208.862L240.161 208.855L239.665 208.792ZM246.696 153.421V152.921H246.256L246.2 153.358L246.696 153.421ZM286.406 153.421V272H287.406V153.421H286.406ZM286.906 271.5H259.953V272.5H286.906V271.5ZM260.453 272V191.946H259.453V272H260.453ZM259.458 191.88L248.691 271.933L249.682 272.067L260.449 192.013L259.458 191.88ZM249.187 271.5H230.07V272.5H249.187V271.5ZM230.565 271.928L219.213 193.706L218.223 193.849L229.576 272.072L230.565 271.928ZM218.218 193.777V272H219.218V193.777H218.218ZM218.718 271.5H191.765V272.5H218.718V271.5ZM192.265 272V153.421H191.265V272H192.265ZM191.765 153.921H231.682V152.921H191.765V153.921ZM231.188 153.502C232.359 160.625 233.604 169.019 234.922 178.684L235.912 178.549C234.594 168.878 233.348 160.474 232.175 153.34L231.188 153.502ZM234.922 178.686L239.17 208.862L240.16 208.722L235.912 178.547L234.922 178.686ZM240.161 208.855L247.192 153.484L246.2 153.358L239.169 208.729L240.161 208.855ZM246.696 153.921H286.906V152.921H246.696V153.921ZM352.531 153.421L353.026 153.347L352.962 152.921H352.531V153.421ZM370.183 272V272.5H370.763L370.677 271.926L370.183 272ZM338.615 272L338.117 272.036L338.15 272.5H338.615V272ZM337.077 250.687L337.576 250.651L337.542 250.187H337.077V250.687ZM326.018 250.687V250.187H325.559L325.519 250.644L326.018 250.687ZM324.187 272V272.5H324.645L324.685 272.043L324.187 272ZM292.253 272L291.757 271.934L291.682 272.5H292.253V272ZM307.927 153.421V152.921H307.488L307.431 153.355L307.927 153.421ZM336.198 229.666V230.166H336.76L336.695 229.608L336.198 229.666ZM331.511 179.935L332.009 179.895L331.015 179.866L331.511 179.935ZM325.651 229.666L325.153 229.629L325.113 230.166H325.651V229.666ZM352.037 153.495L369.688 272.074L370.677 271.926L353.026 153.347L352.037 153.495ZM370.183 271.5H338.615V272.5H370.183V271.5ZM339.114 271.964L337.576 250.651L336.578 250.723L338.117 272.036L339.114 271.964ZM337.077 250.187H326.018V251.187H337.077V250.187ZM325.519 250.644L323.688 271.957L324.685 272.043L326.516 250.729L325.519 250.644ZM324.187 271.5H292.253V272.5H324.187V271.5ZM292.749 272.066L308.422 153.486L307.431 153.355L291.757 271.934L292.749 272.066ZM307.927 153.921H352.531V152.921H307.927V153.921ZM336.695 229.608C335.133 216.189 333.571 199.618 332.009 179.895L331.012 179.974C332.575 199.704 334.138 216.288 335.702 229.724L336.695 229.608ZM331.015 179.866C327.89 202.524 325.935 219.114 325.153 229.629L326.15 229.703C326.93 219.222 328.881 202.658 332.006 180.003L331.015 179.866ZM325.651 230.166H336.198V229.166H325.651V230.166ZM430.827 153.421H431.327V152.921H430.827V153.421ZM430.827 177.151L431.303 177.305L431.327 177.23V177.151H430.827ZM407.829 248.27L407.353 248.116L407.142 248.77H407.829V248.27ZM430.827 248.27H431.327V247.77H430.827V248.27ZM430.827 272V272.5H431.327V272H430.827ZM373.991 272H373.491V272.5H373.991V272ZM373.991 254.788L373.513 254.642L373.491 254.713V254.788H373.991ZM397.722 177.151L398.2 177.298L398.397 176.651H397.722V177.151ZM376.774 177.151H376.274V177.651H376.774V177.151ZM376.774 153.421V152.921H376.274V153.421H376.774ZM430.327 153.421V177.151H431.327V153.421H430.327ZM430.351 176.998L407.353 248.116L408.305 248.423L431.303 177.305L430.351 176.998ZM407.829 248.77H430.827V247.77H407.829V248.77ZM430.327 248.27V272H431.327V248.27H430.327ZM430.827 271.5H373.991V272.5H430.827V271.5ZM374.491 272V254.788H373.491V272H374.491ZM374.469 254.934L398.2 177.298L397.244 177.005L373.513 254.642L374.469 254.934ZM397.722 176.651H376.774V177.651H397.722V176.651ZM377.274 177.151V153.421H376.274V177.151H377.274ZM376.774 153.921H430.827V152.921H376.774V153.921ZM469.719 153.421H470.219V152.921H469.719V153.421ZM469.719 272V272.5H470.219V272H469.719ZM438.884 272H438.384V272.5H438.884V272ZM438.884 153.421V152.921H438.384V153.421H438.884ZM469.219 153.421V272H470.219V153.421H469.219ZM469.719 271.5H438.884V272.5H469.719V271.5ZM439.384 272V153.421H438.384V272H439.384ZM438.884 153.921H469.719V152.921H438.884V153.921ZM550.944 153.421H551.444V152.921H550.944V153.421ZM550.944 272V272.5H551.444V272H550.944ZM523.918 272L523.439 272.143L523.545 272.5H523.918V272ZM507.878 218.094L508.357 217.951L507.378 218.094H507.878ZM507.878 272V272.5H508.378V272H507.878ZM482.097 272H481.597V272.5H482.097V272ZM482.097 153.421V152.921H481.597V153.421H482.097ZM507.878 153.421L508.354 153.267L508.242 152.921H507.878V153.421ZM525.163 206.814L524.687 206.968L525.663 206.814H525.163ZM525.163 153.421V152.921H524.663V153.421H525.163ZM550.444 153.421V272H551.444V153.421H550.444ZM550.944 271.5H523.918V272.5H550.944V271.5ZM524.397 271.857L508.357 217.951L507.399 218.236L523.439 272.143L524.397 271.857ZM507.378 218.094V272H508.378V218.094H507.378ZM507.878 271.5H482.097V272.5H507.878V271.5ZM482.597 272V153.421H481.597V272H482.597ZM482.097 153.921H507.878V152.921H482.097V153.921ZM507.402 153.575L524.687 206.968L525.639 206.66L508.354 153.267L507.402 153.575ZM525.663 206.814V153.421H524.663V206.814H525.663ZM525.163 153.921H550.944V152.921H525.163V153.921ZM634.147 197.073V197.573H634.647V197.073H634.147ZM603.312 197.073H602.812V197.573H603.312V197.073ZM594.377 251.932L593.913 252.117L593.915 252.122L594.377 251.932ZM603.02 251.565L602.561 251.366L602.557 251.376L603.02 251.565ZM604.265 226.37H604.765V225.87H604.265V226.37ZM598.039 226.37H597.539V226.87H598.039V226.37ZM598.039 208.353V207.853H597.539V208.353H598.039ZM634.147 208.353H634.647V207.853H634.147V208.353ZM634.147 272V272.5H634.647V272H634.147ZM614.738 272L614.264 272.159L614.379 272.5H614.738V272ZM611.882 263.504L612.356 263.345L612.001 262.29L611.448 263.255L611.882 263.504ZM603.898 271.78L604.146 272.215L604.148 272.214L603.898 271.78ZM578.044 270.755L577.798 271.19L577.804 271.193L578.044 270.755ZM563.396 249.734L562.901 249.805L562.901 249.806L563.396 249.734ZM574.821 157.376L575.118 157.778L575.119 157.778L574.821 157.376ZM631.438 169.754L630.966 169.92L630.966 169.921L631.438 169.754ZM634.147 196.573H603.312V197.573H634.147V196.573ZM603.812 197.073V186.307H602.812V197.073H603.812ZM603.812 186.307C603.812 182.907 603.739 180.136 603.592 177.996C603.445 175.871 603.223 174.323 602.907 173.4L601.961 173.725C602.23 174.511 602.448 175.941 602.594 178.065C602.739 180.173 602.812 182.919 602.812 186.307H603.812ZM602.907 173.4C602.58 172.448 602.018 171.708 601.212 171.214C600.415 170.724 599.419 170.499 598.259 170.499V171.499C599.296 171.499 600.094 171.701 600.689 172.066C601.275 172.426 601.701 172.968 601.961 173.725L602.907 173.4ZM598.259 170.499C597.244 170.499 596.354 170.694 595.614 171.113C594.868 171.535 594.306 172.167 593.924 172.985L594.83 173.408C595.132 172.761 595.558 172.294 596.106 171.983C596.66 171.67 597.369 171.499 598.259 171.499V170.499ZM593.924 172.985C593.542 173.804 593.281 175.188 593.11 177.069C592.937 178.971 592.852 181.441 592.852 184.476H593.852C593.852 181.456 593.937 179.019 594.106 177.16C594.277 175.281 594.529 174.054 594.83 173.408L593.924 172.985ZM592.852 184.476V241.385H593.852V184.476H592.852ZM592.852 241.385C592.852 244.055 592.937 246.282 593.11 248.062C593.282 249.832 593.544 251.195 593.913 252.117L594.841 251.746C594.526 250.959 594.275 249.71 594.106 247.965C593.937 246.229 593.852 244.037 593.852 241.385H592.852ZM593.915 252.122C594.292 253.038 594.87 253.75 595.656 254.227C596.437 254.701 597.387 254.922 598.479 254.922V253.922C597.519 253.922 596.761 253.728 596.174 253.372C595.593 253.019 595.146 252.485 594.839 251.741L593.915 252.122ZM598.479 254.922C599.672 254.922 600.71 254.669 601.565 254.131C602.422 253.591 603.058 252.789 603.482 251.755L602.557 251.376C602.2 252.246 601.688 252.872 601.032 253.285C600.373 253.699 599.531 253.922 598.479 253.922V254.922ZM603.478 251.765C603.923 250.744 604.241 249.282 604.45 247.41C604.661 245.529 604.765 243.202 604.765 240.433H603.765C603.765 243.181 603.661 245.468 603.456 247.298C603.251 249.137 602.946 250.482 602.561 251.366L603.478 251.765ZM604.765 240.433V226.37H603.765V240.433H604.765ZM604.265 225.87H598.039V226.87H604.265V225.87ZM598.539 226.37V208.353H597.539V226.37H598.539ZM598.039 208.853H634.147V207.853H598.039V208.853ZM633.647 208.353V272H634.647V208.353H633.647ZM634.147 271.5H614.738V272.5H634.147V271.5ZM615.212 271.841L612.356 263.345L611.408 263.663L614.264 272.159L615.212 271.841ZM611.448 263.255C609.386 266.851 606.785 269.541 603.649 271.347L604.148 272.214C607.457 270.308 610.178 267.481 612.316 263.753L611.448 263.255ZM603.651 271.346C600.566 273.102 596.895 273.99 592.619 273.99V274.99C597.035 274.99 600.883 274.072 604.146 272.215L603.651 271.346ZM592.619 273.99C587.527 273.99 582.752 272.766 578.284 270.316L577.804 271.193C582.418 273.724 587.359 274.99 592.619 274.99V273.99ZM578.29 270.32C573.857 267.814 570.505 264.743 568.213 261.113L567.367 261.647C569.762 265.439 573.246 268.618 577.798 271.19L578.29 270.32ZM568.213 261.113C565.904 257.457 564.466 253.641 563.89 249.663L562.901 249.806C563.497 253.933 564.989 257.881 567.367 261.647L568.213 261.113ZM563.891 249.664C563.31 245.598 563.017 239.499 563.017 231.351H562.017C562.017 239.511 562.309 245.667 562.901 249.805L563.891 249.664ZM563.017 231.351V196.121H562.017V231.351H563.017ZM563.017 196.121C563.017 184.798 563.628 176.62 564.834 171.554L563.861 171.323C562.626 176.51 562.017 184.788 562.017 196.121H563.017ZM564.834 171.554C566.019 166.578 569.417 161.982 575.118 157.778L574.525 156.974C568.702 161.267 565.118 166.045 563.861 171.323L564.834 171.554ZM575.119 157.778C580.822 153.56 588.205 151.431 597.307 151.431V150.431C588.049 150.431 580.441 152.598 574.524 156.974L575.119 157.778ZM597.307 151.431C606.273 151.431 613.67 153.272 619.528 156.921L620.056 156.073C614 152.3 606.407 150.431 597.307 150.431V151.431ZM619.528 156.921C625.417 160.59 629.207 164.928 630.966 169.92L631.909 169.588C630.055 164.326 626.081 159.826 620.056 156.073L619.528 156.921ZM630.966 169.921C632.744 174.919 633.647 182.248 633.647 191.946H634.647C634.647 182.211 633.744 174.745 631.909 169.586L630.966 169.921ZM633.647 191.946V197.073H634.647V191.946H633.647ZM734.782 153.421H735.282V152.921H734.782V153.421ZM734.782 177.151V177.651H735.282V177.151H734.782ZM716.472 177.151V176.651H715.972V177.151H716.472ZM716.472 272V272.5H716.972V272H716.472ZM685.637 272H685.137V272.5H685.637V272ZM685.637 177.151H686.137V176.651H685.637V177.151ZM667.399 177.151H666.899V177.651H667.399V177.151ZM667.399 153.421V152.921H666.899V153.421H667.399ZM734.282 153.421V177.151H735.282V153.421H734.282ZM734.782 176.651H716.472V177.651H734.782V176.651ZM715.972 177.151V272H716.972V177.151H715.972ZM716.472 271.5H685.637V272.5H716.472V271.5ZM686.137 272V177.151H685.137V272H686.137ZM685.637 176.651H667.399V177.651H685.637V176.651ZM667.899 177.151V153.421H666.899V177.151H667.899ZM667.399 153.921H734.782V152.921H667.399V153.921ZM811.394 248.196L810.897 248.138L810.896 248.142L811.394 248.196ZM806.12 261.746L805.716 261.452L805.713 261.455L806.12 261.746ZM759.465 271.414L759.272 271.875L759.278 271.878L759.465 271.414ZM741.74 177.298L741.244 177.239L741.243 177.244L741.74 177.298ZM747.014 163.675L746.609 163.381L746.607 163.384L747.014 163.675ZM793.669 154.08L793.476 154.542L793.482 154.544L793.669 154.08ZM780.485 173.343L780.017 173.518L780.021 173.527L780.024 173.536L780.485 173.343ZM773.015 172.903L772.604 172.619L772.601 172.622L773.015 172.903ZM772.575 252.005L772.101 252.163L772.105 252.176L772.575 252.005ZM811.772 222.854C811.772 234.768 811.479 243.189 810.897 248.138L811.89 248.255C812.48 243.242 812.772 234.769 812.772 222.854H811.772ZM810.896 248.142C810.369 252.985 808.644 257.42 805.716 261.452L806.525 262.04C809.553 257.869 811.344 253.271 811.891 248.25L810.896 248.142ZM805.713 261.455C802.841 265.477 798.936 268.572 793.981 270.736L794.382 271.653C799.486 269.422 803.54 266.218 806.527 262.037L805.713 261.455ZM793.981 270.736C789.028 272.901 783.239 273.99 776.604 273.99V274.99C783.347 274.99 789.277 273.883 794.382 271.653L793.981 270.736ZM776.604 273.99C770.31 273.99 764.662 272.974 759.652 270.95L759.278 271.878C764.424 273.956 770.202 274.99 776.604 274.99V273.99ZM759.657 270.953C754.707 268.886 750.728 265.815 747.708 261.741L746.905 262.337C750.038 266.564 754.164 269.743 759.272 271.875L759.657 270.953ZM747.708 261.741C744.681 257.657 742.885 253.222 742.31 248.43L741.317 248.549C741.914 253.522 743.78 258.12 746.905 262.337L747.708 261.741ZM742.31 248.43C741.728 243.58 741.435 235.062 741.435 222.854H740.435C740.435 235.061 740.727 243.633 741.317 248.549L742.31 248.43ZM741.435 222.854V202.566H740.435V222.854H741.435ZM741.435 202.566C741.435 190.652 741.703 182.254 742.237 177.352L741.243 177.244C740.703 182.205 740.435 190.652 740.435 202.566H741.435ZM742.237 177.356C742.813 172.46 744.54 167.999 747.421 163.965L746.607 163.384C743.628 167.554 741.839 172.175 741.244 177.239L742.237 177.356ZM747.418 163.969C750.34 159.945 754.271 156.849 759.226 154.685L758.825 153.768C753.721 155.998 749.644 159.202 746.609 163.381L747.418 163.969ZM759.226 154.685C764.18 152.52 769.968 151.431 776.604 151.431V150.431C769.86 150.431 763.93 151.538 758.825 153.768L759.226 154.685ZM776.604 151.431C782.896 151.431 788.517 152.471 793.476 154.541L793.862 153.619C788.762 151.49 783.007 150.431 776.604 150.431V151.431ZM793.482 154.544C798.48 156.562 802.481 159.608 805.499 163.68L806.302 163.084C803.168 158.855 799.014 155.7 793.856 153.616L793.482 154.544ZM805.499 163.68C808.526 167.764 810.322 172.199 810.897 176.991L811.89 176.872C811.293 171.899 809.427 167.301 806.302 163.084L805.499 163.68ZM810.897 176.991C811.479 181.841 811.772 190.359 811.772 202.566H812.772C812.772 190.36 812.48 181.788 811.89 176.872L810.897 176.991ZM811.772 202.566V222.854H812.772V202.566H811.772ZM781.938 183.89C781.938 181.123 781.858 178.848 781.697 177.07C781.538 175.306 781.296 173.982 780.946 173.149L780.024 173.536C780.31 174.217 780.543 175.408 780.701 177.16C780.858 178.897 780.938 181.139 780.938 183.89H781.938ZM780.953 173.167C780.628 172.298 780.106 171.618 779.378 171.161C778.655 170.708 777.769 170.499 776.75 170.499V171.499C777.635 171.499 778.324 171.681 778.846 172.008C779.364 172.333 779.757 172.825 780.017 173.518L780.953 173.167ZM776.75 170.499C774.983 170.499 773.581 171.207 772.604 172.619L773.426 173.188C774.207 172.06 775.294 171.499 776.75 171.499V170.499ZM772.601 172.622C772.346 172.998 772.147 173.52 771.985 174.153C771.822 174.793 771.689 175.58 771.584 176.509C771.373 178.367 771.27 180.83 771.27 183.89H772.27C772.27 180.846 772.373 178.426 772.578 176.622C772.68 175.72 772.806 174.981 772.954 174.4C773.104 173.812 773.268 173.419 773.428 173.184L772.601 172.622ZM771.27 183.89V239.261H772.27V183.89H771.27ZM771.27 239.261C771.27 242.708 771.337 245.503 771.472 247.642C771.606 249.764 771.809 251.288 772.101 252.163L773.05 251.847C772.804 251.11 772.604 249.705 772.47 247.579C772.337 245.47 772.27 242.698 772.27 239.261H771.27ZM772.105 252.176C772.432 253.076 772.976 253.776 773.743 254.244C774.502 254.708 775.442 254.922 776.53 254.922V253.922C775.568 253.922 774.823 253.733 774.264 253.391C773.712 253.054 773.304 252.546 773.045 251.834L772.105 252.176ZM776.53 254.922C777.653 254.922 778.62 254.674 779.396 254.137C780.176 253.599 780.716 252.802 781.035 251.789L780.082 251.488C779.816 252.331 779.391 252.925 778.828 253.315C778.261 253.706 777.508 253.922 776.53 253.922V254.922ZM781.035 251.789C781.348 250.799 781.57 249.178 781.717 246.966C781.864 244.741 781.938 241.879 781.938 238.382H780.938C780.938 241.868 780.864 244.706 780.719 246.9C780.573 249.107 780.355 250.623 780.082 251.488L781.035 251.789ZM781.938 238.382V183.89H780.938V238.382H781.938ZM894.597 197.073V197.573H895.097V197.073H894.597ZM863.762 197.073H863.262V197.573H863.762V197.073ZM854.826 251.932L854.362 252.117L854.364 252.122L854.826 251.932ZM863.469 251.565L863.01 251.366L863.006 251.376L863.469 251.565ZM864.714 226.37H865.214V225.87H864.714V226.37ZM858.488 226.37H857.988V226.87H858.488V226.37ZM858.488 208.353V207.853H857.988V208.353H858.488ZM894.597 208.353H895.097V207.853H894.597V208.353ZM894.597 272V272.5H895.097V272H894.597ZM875.188 272L874.714 272.159L874.828 272.5H875.188V272ZM872.331 263.504L872.805 263.345L872.451 262.29L871.897 263.255L872.331 263.504ZM864.348 271.78L864.595 272.215L864.597 272.214L864.348 271.78ZM838.493 270.755L838.247 271.19L838.253 271.193L838.493 270.755ZM823.845 249.734L823.35 249.805L823.35 249.806L823.845 249.734ZM835.271 157.376L835.567 157.778L835.568 157.778L835.271 157.376ZM891.887 169.754L891.415 169.92L891.416 169.921L891.887 169.754ZM894.597 196.573H863.762V197.573H894.597V196.573ZM864.262 197.073V186.307H863.262V197.073H864.262ZM864.262 186.307C864.262 182.907 864.188 180.136 864.041 177.996C863.894 175.871 863.672 174.323 863.356 173.4L862.41 173.725C862.679 174.511 862.897 175.941 863.043 178.065C863.189 180.173 863.262 182.919 863.262 186.307H864.262ZM863.356 173.4C863.029 172.448 862.467 171.708 861.661 171.214C860.864 170.724 859.868 170.499 858.708 170.499V171.499C859.745 171.499 860.544 171.701 861.138 172.066C861.724 172.426 862.15 172.968 862.41 173.725L863.356 173.4ZM858.708 170.499C857.693 170.499 856.803 170.694 856.063 171.113C855.318 171.535 854.755 172.167 854.373 172.985L855.279 173.408C855.581 172.761 856.007 172.294 856.556 171.983C857.109 171.67 857.818 171.499 858.708 171.499V170.499ZM854.373 172.985C853.991 173.804 853.73 175.188 853.559 177.069C853.386 178.971 853.301 181.441 853.301 184.476H854.301C854.301 181.456 854.386 179.019 854.555 177.16C854.726 175.281 854.978 174.054 855.279 173.408L854.373 172.985ZM853.301 184.476V241.385H854.301V184.476H853.301ZM853.301 241.385C853.301 244.055 853.386 246.282 853.559 248.062C853.732 249.832 853.993 251.195 854.362 252.117L855.29 251.746C854.976 250.959 854.724 249.71 854.555 247.965C854.386 246.229 854.301 244.037 854.301 241.385H853.301ZM854.364 252.122C854.741 253.038 855.319 253.75 856.105 254.227C856.886 254.701 857.836 254.922 858.928 254.922V253.922C857.968 253.922 857.21 253.728 856.624 253.372C856.042 253.019 855.595 252.485 855.289 251.741L854.364 252.122ZM858.928 254.922C860.121 254.922 861.159 254.669 862.014 254.131C862.872 253.591 863.507 252.789 863.931 251.755L863.006 251.376C862.649 252.246 862.137 252.872 861.481 253.285C860.822 253.699 859.981 253.922 858.928 253.922V254.922ZM863.927 251.765C864.372 250.744 864.69 249.282 864.899 247.41C865.11 245.529 865.214 243.202 865.214 240.433H864.214C864.214 243.181 864.11 245.468 863.906 247.298C863.7 249.137 863.396 250.482 863.01 251.366L863.927 251.765ZM865.214 240.433V226.37H864.214V240.433H865.214ZM864.714 225.87H858.488V226.87H864.714V225.87ZM858.988 226.37V208.353H857.988V226.37H858.988ZM858.488 208.853H894.597V207.853H858.488V208.853ZM894.097 208.353V272H895.097V208.353H894.097ZM894.597 271.5H875.188V272.5H894.597V271.5ZM875.661 271.841L872.805 263.345L871.857 263.663L874.714 272.159L875.661 271.841ZM871.897 263.255C869.836 266.851 867.234 269.541 864.098 271.347L864.597 272.214C867.906 270.308 870.627 267.481 872.765 263.753L871.897 263.255ZM864.1 271.346C861.015 273.102 857.344 273.99 853.068 273.99V274.99C857.484 274.99 861.333 274.072 864.595 272.215L864.1 271.346ZM853.068 273.99C847.977 273.99 843.201 272.766 838.734 270.316L838.253 271.193C842.867 273.724 847.808 274.99 853.068 274.99V273.99ZM838.739 270.32C834.306 267.814 830.954 264.743 828.662 261.113L827.817 261.647C830.212 265.439 833.696 268.618 838.247 271.19L838.739 270.32ZM828.662 261.113C826.353 257.457 824.915 253.641 824.34 249.663L823.35 249.806C823.947 253.933 825.438 257.881 827.817 261.647L828.662 261.113ZM824.34 249.664C823.759 245.598 823.466 239.499 823.466 231.351H822.466C822.466 239.511 822.759 245.667 823.35 249.805L824.34 249.664ZM823.466 231.351V196.121H822.466V231.351H823.466ZM823.466 196.121C823.466 184.798 824.077 176.62 825.283 171.554L824.31 171.323C823.075 176.51 822.466 184.788 822.466 196.121H823.466ZM825.283 171.554C826.468 166.578 829.867 161.982 835.567 157.778L834.974 156.974C829.151 161.267 825.567 166.045 824.31 171.323L825.283 171.554ZM835.568 157.778C841.271 153.56 848.654 151.431 857.756 151.431V150.431C848.498 150.431 840.891 152.598 834.973 156.974L835.568 157.778ZM857.756 151.431C866.722 151.431 874.119 153.272 879.977 156.921L880.506 156.073C874.449 152.3 866.856 150.431 857.756 150.431V151.431ZM879.977 156.921C885.866 160.59 889.656 164.928 891.415 169.92L892.358 169.588C890.504 164.326 886.531 159.826 880.506 156.073L879.977 156.921ZM891.416 169.921C893.194 174.919 894.097 182.248 894.097 191.946H895.097C895.097 182.211 894.193 174.745 892.358 169.586L891.416 169.921ZM894.097 191.946V197.073H895.097V191.946H894.097ZM906.608 153.421V152.921H906.108V153.421H906.608ZM958.024 153.421H958.524V152.921H958.024V153.421ZM958.024 177.151V177.651H958.524V177.151H958.024ZM937.443 177.151V176.651H936.943V177.151H937.443ZM937.443 199.637H936.943V200.137H937.443V199.637ZM956.706 199.637H957.206V199.137H956.706V199.637ZM956.706 222.195V222.695H957.206V222.195H956.706ZM937.443 222.195V221.695H936.943V222.195H937.443ZM937.443 248.27H936.943V248.77H937.443V248.27ZM960.075 248.27H960.575V247.77H960.075V248.27ZM960.075 272V272.5H960.575V272H960.075ZM906.608 272H906.108V272.5H906.608V272ZM906.608 153.921H958.024V152.921H906.608V153.921ZM957.524 153.421V177.151H958.524V153.421H957.524ZM958.024 176.651H937.443V177.651H958.024V176.651ZM936.943 177.151V199.637H937.943V177.151H936.943ZM937.443 200.137H956.706V199.137H937.443V200.137ZM956.206 199.637V222.195H957.206V199.637H956.206ZM956.706 221.695H937.443V222.695H956.706V221.695ZM936.943 222.195V248.27H937.943V222.195H936.943ZM937.443 248.77H960.075V247.77H937.443V248.77ZM959.575 248.27V272H960.575V248.27H959.575ZM960.075 271.5H906.608V272.5H960.075V271.5ZM907.108 272V153.421H906.108V272H907.108ZM1029.07 153.421H1029.57V152.921H1029.07V153.421ZM1029.07 177.151V177.651H1029.57V177.151H1029.07ZM1010.76 177.151V176.651H1010.26V177.151H1010.76ZM1010.76 272V272.5H1011.26V272H1010.76ZM979.924 272H979.424V272.5H979.924V272ZM979.924 177.151H980.424V176.651H979.924V177.151ZM961.687 177.151H961.187V177.651H961.687V177.151ZM961.687 153.421V152.921H961.187V153.421H961.687ZM1028.57 153.421V177.151H1029.57V153.421H1028.57ZM1029.07 176.651H1010.76V177.651H1029.07V176.651ZM1010.26 177.151V272H1011.26V177.151H1010.26ZM1010.76 271.5H979.924V272.5H1010.76V271.5ZM980.424 272V177.151H979.424V272H980.424ZM979.924 176.651H961.687V177.651H979.924V176.651ZM962.187 177.151V153.421H961.187V177.151H962.187ZM961.687 153.921H1029.07V152.921H961.687V153.921ZM1107 153.421H1107.5V152.921H1107V153.421ZM1107 272V272.5H1107.5V272H1107ZM1076.16 272H1075.66V272.5H1076.16V272ZM1076.16 222.195H1076.66V221.695H1076.16V222.195ZM1066.94 222.195V221.695H1066.44V222.195H1066.94ZM1066.94 272V272.5H1067.44V272H1066.94ZM1036.1 272H1035.6V272.5H1036.1V272ZM1036.1 153.421V152.921H1035.6V153.421H1036.1ZM1066.94 153.421H1067.44V152.921H1066.94V153.421ZM1066.94 195.828H1066.44V196.328H1066.94V195.828ZM1076.16 195.828V196.328H1076.66V195.828H1076.16ZM1076.16 153.421V152.921H1075.66V153.421H1076.16ZM1106.5 153.421V272H1107.5V153.421H1106.5ZM1107 271.5H1076.16V272.5H1107V271.5ZM1076.66 272V222.195H1075.66V272H1076.66ZM1076.16 221.695H1066.94V222.695H1076.16V221.695ZM1066.44 222.195V272H1067.44V222.195H1066.44ZM1066.94 271.5H1036.1V272.5H1066.94V271.5ZM1036.6 272V153.421H1035.6V272H1036.6ZM1036.1 153.921H1066.94V152.921H1036.1V153.921ZM1066.44 153.421V195.828H1067.44V153.421H1066.44ZM1066.94 196.328H1076.16V195.328H1066.94V196.328ZM1076.66 195.828V153.421H1075.66V195.828H1076.66ZM1076.16 153.921H1107V152.921H1076.16V153.921ZM1119.45 153.421V152.921H1118.95V153.421H1119.45ZM1170.87 153.421H1171.37V152.921H1170.87V153.421ZM1170.87 177.151V177.651H1171.37V177.151H1170.87ZM1150.29 177.151V176.651H1149.79V177.151H1150.29ZM1150.29 199.637H1149.79V200.137H1150.29V199.637ZM1169.55 199.637H1170.05V199.137H1169.55V199.637ZM1169.55 222.195V222.695H1170.05V222.195H1169.55ZM1150.29 222.195V221.695H1149.79V222.195H1150.29ZM1150.29 248.27H1149.79V248.77H1150.29V248.27ZM1172.92 248.27H1173.42V247.77H1172.92V248.27ZM1172.92 272V272.5H1173.42V272H1172.92ZM1119.45 272H1118.95V272.5H1119.45V272ZM1119.45 153.921H1170.87V152.921H1119.45V153.921ZM1170.37 153.421V177.151H1171.37V153.421H1170.37ZM1170.87 176.651H1150.29V177.651H1170.87V176.651ZM1149.79 177.151V199.637H1150.79V177.151H1149.79ZM1150.29 200.137H1169.55V199.137H1150.29V200.137ZM1169.05 199.637V222.195H1170.05V199.637H1169.05ZM1169.55 221.695H1150.29V222.695H1169.55V221.695ZM1149.79 222.195V248.27H1150.79V222.195H1149.79ZM1150.29 248.77H1172.92V247.77H1150.29V248.77ZM1172.42 248.27V272H1173.42V248.27H1172.42ZM1172.92 271.5H1119.45V272.5H1172.92V271.5ZM1119.95 272V153.421H1118.95V272H1119.95ZM1181.85 153.421V152.921H1181.35V153.421H1181.85ZM1233.2 155.105L1233.09 155.594L1233.09 155.594L1233.2 155.105ZM1245.79 163.748L1245.38 164.033L1245.39 164.038L1245.79 163.748ZM1233.71 210.11L1233.66 209.613L1233.59 210.596L1233.71 210.11ZM1249.89 223.221L1249.41 223.332L1249.41 223.345L1249.89 223.221ZM1250.7 272V272.5H1251.2V272H1250.7ZM1222.06 272H1221.56V272.5H1222.06V272ZM1220.52 220.804L1220.1 221.075L1220.11 221.084L1220.52 220.804ZM1212.69 218.533V218.033H1212.19V218.533H1212.69ZM1212.69 272V272.5H1213.19V272H1212.69ZM1181.85 272H1181.35V272.5H1181.85V272ZM1212.69 173.709V173.209H1212.19V173.709H1212.69ZM1212.69 200.076H1212.19V200.576H1212.69V200.076ZM1219.94 198.685L1220.22 199.098L1220.22 199.096L1219.94 198.685ZM1220.01 175.467L1219.68 175.841L1219.69 175.846L1220.01 175.467ZM1181.85 153.921H1203.68V152.921H1181.85V153.921ZM1203.68 153.921C1218.24 153.921 1228.02 154.484 1233.09 155.594L1233.3 154.617C1228.11 153.481 1218.22 152.921 1203.68 152.921V153.921ZM1233.09 155.594C1238.13 156.688 1242.23 159.491 1245.38 164.033L1246.2 163.463C1242.91 158.728 1238.61 155.769 1233.3 154.617L1233.09 155.594ZM1245.39 164.038C1248.57 168.499 1250.2 175.718 1250.2 185.794H1251.2C1251.2 175.655 1249.56 168.177 1246.2 163.458L1245.39 164.038ZM1250.2 185.794C1250.2 190.39 1249.91 194.215 1249.35 197.275C1248.78 200.342 1247.94 202.603 1246.85 204.104L1247.66 204.69C1248.87 203.018 1249.75 200.591 1250.33 197.457C1250.91 194.316 1251.2 190.426 1251.2 185.794H1250.2ZM1246.85 204.104C1244.69 207.1 1240.36 208.982 1233.66 209.613L1233.75 210.608C1240.54 209.969 1245.24 208.043 1247.66 204.69L1246.85 204.104ZM1233.59 210.596C1239.67 212.104 1243.63 214.098 1245.63 216.508L1246.4 215.871C1244.19 213.202 1239.96 211.144 1233.83 209.625L1233.59 210.596ZM1245.63 216.508C1247.7 219.014 1248.94 221.288 1249.41 223.332L1250.38 223.11C1249.87 220.857 1248.52 218.443 1246.4 215.871L1245.63 216.508ZM1249.41 223.345C1249.66 224.338 1249.86 226.273 1250 229.195C1250.13 232.101 1250.2 235.944 1250.2 240.726H1251.2C1251.2 235.937 1251.13 232.077 1251 229.149C1250.86 226.236 1250.66 224.203 1250.38 223.097L1249.41 223.345ZM1250.2 240.726V272H1251.2V240.726H1250.2ZM1250.7 271.5H1222.06V272.5H1250.7V271.5ZM1222.56 272V232.596H1221.56V272H1222.56ZM1222.56 232.596C1222.56 229.411 1222.43 226.818 1222.17 224.822C1221.92 222.85 1221.52 221.385 1220.94 220.523L1220.11 221.084C1220.55 221.736 1220.93 222.994 1221.18 224.952C1221.43 226.887 1221.56 229.432 1221.56 232.596H1222.56ZM1220.94 220.533C1220.36 219.634 1219.34 219.016 1217.97 218.621C1216.6 218.224 1214.84 218.033 1212.69 218.033V219.033C1214.79 219.033 1216.45 219.221 1217.69 219.581C1218.94 219.942 1219.71 220.46 1220.1 221.075L1220.94 220.533ZM1212.19 218.533V272H1213.19V218.533H1212.19ZM1212.69 271.5H1181.85V272.5H1212.69V271.5ZM1182.35 272V153.421H1181.35V272H1182.35ZM1212.19 173.709V200.076H1213.19V173.709H1212.19ZM1212.69 200.576C1216.17 200.576 1218.72 200.117 1220.22 199.098L1219.66 198.271C1218.42 199.107 1216.14 199.576 1212.69 199.576V200.576ZM1220.22 199.096C1221.09 198.497 1221.66 197.318 1222.02 195.738C1222.38 194.135 1222.56 192.012 1222.56 189.383H1221.56C1221.56 191.978 1221.39 194.017 1221.04 195.515C1220.7 197.036 1220.2 197.896 1219.65 198.273L1220.22 199.096ZM1222.56 189.383V182.864H1221.56V189.383H1222.56ZM1222.56 182.864C1222.56 180.958 1222.39 179.353 1222.03 178.061C1221.67 176.771 1221.12 175.76 1220.34 175.087L1219.69 175.846C1220.27 176.346 1220.74 177.153 1221.07 178.329C1221.39 179.503 1221.56 181.01 1221.56 182.864H1222.56ZM1220.34 175.093C1218.88 173.79 1216.27 173.209 1212.69 173.209V174.209C1216.24 174.209 1218.51 174.8 1219.68 175.84L1220.34 175.093Z" fill="white"/>
</svg>
