<?xml version="1.0" encoding="utf-8"?>
<!-- Generator: Adobe Illustrator 16.0.0, SVG Export Plug-In . SVG Version: 6.00 Build 0)  -->
<!DOCTYPE svg PUBLIC "-//W3C//DTD SVG 1.1//EN" "http://www.w3.org/Graphics/SVG/1.1/DTD/svg11.dtd">
<svg version="1.1" id="레이어_1" xmlns="http://www.w3.org/2000/svg" xmlns:xlink="http://www.w3.org/1999/xlink" x="0px"
	 y="0px" width="500px" height="350px" viewBox="0 0 500 350" enable-background="new 0 0 500 350" xml:space="preserve">
<g transform="translate(0.000000,350.000000) scale(0.100000,-0.100000)">
	<path fill="#0C87E2" d="M0,1750V0h2500h2500v1750v1750H2500H0V1750z M2722.998,3058.999c47.002-12.998,102.002-60,127.998-110
		c18.008-36.001,19.004-61.997,19.004-471.997v-435l42.998,15c107.998,37.998,240-32.002,269.004-143.003
		c10.996-40,13.994-42.998,37.002-36.001c41.992,11.001,125,6.001,156.992-10.996c45-23.003,102.002-91.001,109.004-129.004
		c4.004-18.994,5-180,2.998-358.994c-3.994-306.006-5-328.008-27.002-394.004c-45-137.998-96.992-222.002-200.996-325.996
		c-80.996-81.006-109.004-102.002-190-142.002c-132.998-65-205.996-81.006-365-80c-149.004,0.996-235,18.994-360,77.002
		c-196.001,90-362.002,262.998-443.999,460.996c-53.999,129.004-63.999,190.996-65,390c-1.001,167.002,1.001,184.004,22.998,237.998
		c31.001,79.004,110,158.003,186.001,186.001c30,12.002,62.002,21.001,70,21.001c12.998,0,15,58.999,15,422.998v424.004
		l22.998,43.999c34.004,63.999,93.003,101.997,166.001,106.997c33.003,2.002,73.999,0,90-5.996l31.001-11.001v51.997
		C2440,2996.001,2577.002,3100,2722.998,3058.999z M1613.999,2843.999c22.002-21.997,20-53.999-6.001-81.001L1587.002,2740h191.997
		c113.003,0,200-3.999,212.002-10c12.998-7.002,18.999-21.001,18.999-45c0-60-18.999-65-227.998-65h-183.003l15-22.002
		c31.001-43.999,8.003-97.998-42.998-97.998C1535,2500,1390,2643.999,1390,2680c0,17.002,22.002,47.002,77.002,102.002
		C1548.999,2863.999,1581.001,2877.998,1613.999,2843.999z M3532.001,2782.998c55.996-55.996,77.998-85,77.998-102.998
		c0-33.999-144.004-180-179.004-180c-51.992,0-76.992,52.998-45,97.998l15,22.002h-182.998c-208.994,0-227.998,5-227.998,65
		c0,23.999,5.996,37.998,19.004,45c11.992,6.001,98.994,10,211.992,10h192.002l-20.996,22.998
		c-40,42.002-19.004,97.002,35.996,97.002C3447.998,2860,3474.003,2840,3532.001,2782.998z"/>
	<path fill="#0C87E2" d="M2589.004,2921.001L2560,2892.002v-499.004c0-380-2.998-503.999-12.998-522.998
		c-16.006-31.001-61.001-38.999-88.003-13.999c-17.998,16.001-18.999,36.001-18.999,392.998c0,418.003,1.001,408.999-67.002,438.003
		c-30.996,11.997-37.998,11.997-70.996-4.004c-20-10-42.002-28.999-49.004-42.998c-10-18.999-12.998-177.002-12.998-676.001
		c0-618.003-1.001-651.997-17.998-666.997c-22.002-20-63.003-22.002-80-5c-9.004,8.994-12.002,67.998-12.002,205.996v194.004
		l-27.002-7.002c-45-10-95.996-57.002-125-115c-26.997-50.996-27.998-60-27.998-199.004c0-211.992,30-323.994,127.002-475
		c200.996-312.998,612.998-435,935-276.992C3172.002,697.998,3290,840,3350.996,1025c21.006,65,23.008,92.002,27.002,362.998
		c4.004,310,1.006,337.002-42.002,367.002c-26.992,18.999-70.996,18.999-100.996-1.001c-29.004-18.999-45-61.997-45-119.995
		c0-45-17.002-64.004-57.998-64.004c-42.002,0-50,27.002-54.004,177.998L3075,1892.002l-32.998,28.999
		c-79.004,71.001-172.002,7.998-172.002-118.003c0-50-60-72.002-92.998-35c-15,17.002-17.002,70-17.002,560
		c0,398.003-2.998,548.003-12.002,567.002C2720.996,2953.999,2635.996,2967.998,2589.004,2921.001z"/>
</g>
</svg>
