<svg width="435" height="155" viewBox="0 0 435 155" fill="none" xmlns="http://www.w3.org/2000/svg">
<g filter="url(#filter0_d_240_4266)">
<path d="M187.895 43.8971H30V128H217.218V33C206.786 33 200.207 37.9363 198.045 39.9853C192.632 44.0088 189.023 44.2696 187.895 43.8971Z" fill="white"/>
<path d="M247.105 43.8971H405V128H217.218V33C227.086 33 234.793 37.9363 236.955 39.9853C242.368 44.0088 245.977 44.2696 247.105 43.8971Z" fill="white"/>
</g>
<g opacity="0.5" filter="url(#filter1_i_240_4266)">
<ellipse cx="217.5" cy="62.2427" rx="29.5" ry="29.2339" fill="white"/>
</g>
<g filter="url(#filter2_i_240_4266)">
<ellipse cx="217.5" cy="61.5057" rx="22.5" ry="22.4979" fill="#123250"/>
</g>
<path d="M213.055 63.9017C212.962 63.9011 212.872 63.8774 212.791 63.8327C212.71 63.788 212.642 63.7238 212.592 63.646C212.543 63.5682 212.514 63.4792 212.508 63.3872C212.502 63.2953 212.519 63.2033 212.558 63.1197C213.074 62.0319 213.927 61.1387 214.992 60.5723C215.119 60.5112 215.266 60.5018 215.401 60.5462C215.536 60.5905 215.648 60.6852 215.714 60.8104C215.781 60.9356 215.796 61.0815 215.757 61.2177C215.718 61.3538 215.628 61.4696 215.505 61.5408C214.651 61.9956 213.966 62.7131 213.553 63.587C213.508 63.6809 213.437 63.7602 213.349 63.8159C213.261 63.8715 213.159 63.9013 213.055 63.9017Z" fill="white" stroke="white" stroke-width="0.25"/>
<path d="M217.5 58.0068V55.5068" stroke="white" stroke-width="1.5" stroke-linecap="round"/>
<circle cx="217.5" cy="54.0068" r="1.25" stroke="white" stroke-width="1.5"/>
<path d="M217.5 67.5049V70.0049M208.5 70.0049H226" stroke="white" stroke-width="1.5" stroke-linecap="round"/>
<path d="M217.454 58.0059C212.626 58.0059 209.781 61.0309 209 67.0059H226C225.219 61.0334 222.38 58.0059 217.522 58.0059H217.454Z" stroke="white" stroke-width="1.5" stroke-linejoin="round"/>
<path d="M223 56.0068V54.0068" stroke="white" stroke-width="1.5" stroke-linecap="round"/>
<path d="M226 59.0058L228 59.0059" stroke="white" stroke-width="1.5" stroke-linecap="round"/>
<path d="M225 56.9826L226.99 55.2708" stroke="white" stroke-width="1.5" stroke-linecap="round"/>
<ellipse cx="228" cy="50.8375" rx="3" ry="2.97322" fill="#FE4A4A"/>
<rect opacity="0.5" x="337" y="58.7656" width="38" height="37.6573" fill="white"/>
<rect x="345" y="66.6934" width="22" height="21.8016" rx="3.5" fill="#D0D6DC"/>
<rect x="350" y="71.6484" width="12" height="1.98215" fill="white"/>
<rect x="350" y="76.6035" width="12" height="1.98215" fill="white"/>
<rect x="350" y="81.5586" width="9" height="1.98215" fill="white"/>
<path d="M347.156 96.8429V105.003H346.004V99.3749L343.46 103.551H342.728L340.16 99.3389L340.184 105.003H339.032V96.8429H339.872L343.088 102.135L346.304 96.8429H347.156ZM350.356 97.8989V100.431H354.532V101.487H350.356V103.947H355.012V105.003H349.216V96.8429H355.012V97.8989H350.356ZM363.784 96.8429V105.003H362.848L357.856 98.9549V105.003H356.716V96.8429H357.616L362.632 102.987V96.8429H363.784ZM372.805 96.8429V101.463C372.805 103.695 371.389 105.183 369.265 105.183C367.141 105.183 365.725 103.695 365.725 101.463V96.8429H366.865V101.463C366.865 102.999 367.825 104.115 369.265 104.115C370.705 104.115 371.665 102.999 371.665 101.463V96.8429H372.805Z" fill="#A0ADB9"/>
<path d="M266.048 100.779C267.188 100.995 267.74 101.787 267.74 102.771C267.74 104.103 266.588 105.003 264.776 105.003H261.032V96.8429H264.656C266.324 96.8429 267.344 97.6469 267.344 98.9309C267.344 99.7949 266.864 100.515 266.048 100.779ZM262.172 97.8509V100.395H264.452C265.616 100.395 266.252 99.8909 266.252 99.0749C266.252 98.3189 265.628 97.8509 264.536 97.8509H262.172ZM262.172 103.995H264.728C265.94 103.995 266.612 103.407 266.612 102.639C266.612 101.847 265.916 101.415 264.764 101.415H262.172V103.995ZM270.563 97.8989V100.431H274.739V101.487H270.563V103.947H275.219V105.003H269.423V96.8429H275.219V97.8989H270.563ZM283.991 96.8429V105.003H283.055L278.063 98.9549V105.003H276.923V96.8429H277.823L282.839 102.987V96.8429H283.991ZM287.192 97.8989V100.431H291.368V101.487H287.192V103.947H291.848V105.003H286.052V96.8429H291.848V97.8989H287.192ZM294.692 97.8989V100.647H298.736V101.703H294.692V105.003H293.552V96.8429H299.252V97.8989H294.692ZM301.793 96.8429V105.003H300.653V96.8429H301.793ZM310.059 97.8989H307.119V105.003H305.979V97.8989H303.039V96.8429H310.059V97.8989Z" fill="#A0ADB9"/>
<path d="M294.6 76.6032C294.6 75.2344 295.674 74.1257 297 74.1257V69.1708C297 67.802 295.926 66.6934 294.6 66.6934H275.4C274.074 66.6934 273.012 67.802 273.012 69.1708L273.006 74.1257C274.332 74.1319 275.4 75.2406 275.4 76.6032C275.4 77.972 274.326 79.0806 273.006 79.0806L273 84.0355C273 85.4043 274.074 86.513 275.4 86.513H294.6C295.926 86.513 297 85.4043 297 84.0355V79.0806C295.674 79.0806 294.6 77.972 294.6 76.6032ZM289.296 82.549L285 79.7L280.704 82.549L282 77.4517L278.052 74.1195L283.146 73.8098L285 68.9231L286.854 73.8098L291.948 74.1195L288 77.4517L289.296 82.549Z" fill="#D0D6DC"/>
<rect x="278" y="68.6758" width="14" height="16.8467" fill="#D0D6DC"/>
<path d="M280.444 74.0572C280.444 73.4492 280.62 72.9732 280.972 72.6292C281.332 72.2852 281.792 72.1132 282.352 72.1132C282.912 72.1132 283.368 72.2852 283.72 72.6292C284.08 72.9732 284.26 73.4492 284.26 74.0572C284.26 74.6732 284.08 75.1532 283.72 75.4972C283.368 75.8412 282.912 76.0132 282.352 76.0132C281.792 76.0132 281.332 75.8412 280.972 75.4972C280.62 75.1532 280.444 74.6732 280.444 74.0572ZM288.148 72.2572L283.432 80.6572H281.8L286.504 72.2572H288.148ZM282.34 73.1212C281.9 73.1212 281.68 73.4332 281.68 74.0572C281.68 74.6892 281.9 75.0052 282.34 75.0052C282.556 75.0052 282.724 74.9292 282.844 74.7772C282.964 74.6172 283.024 74.3772 283.024 74.0572C283.024 73.4332 282.796 73.1212 282.34 73.1212ZM285.712 78.8452C285.712 78.2292 285.888 77.7532 286.24 77.4172C286.6 77.0732 287.06 76.9012 287.62 76.9012C288.18 76.9012 288.632 77.0732 288.976 77.4172C289.328 77.7532 289.504 78.2292 289.504 78.8452C289.504 79.4612 289.328 79.9412 288.976 80.2852C288.632 80.6292 288.18 80.8012 287.62 80.8012C287.052 80.8012 286.592 80.6292 286.24 80.2852C285.888 79.9412 285.712 79.4612 285.712 78.8452ZM287.608 77.9092C287.152 77.9092 286.924 78.2212 286.924 78.8452C286.924 79.4772 287.152 79.7932 287.608 79.7932C288.056 79.7932 288.28 79.4772 288.28 78.8452C288.28 78.2212 288.056 77.9092 287.608 77.9092Z" fill="white"/>
<path d="M280.972 72.6292L280.903 72.5569L280.902 72.5577L280.972 72.6292ZM283.72 72.6292L283.65 72.7007L283.651 72.7015L283.72 72.6292ZM283.72 75.4972L283.651 75.4249L283.65 75.4257L283.72 75.4972ZM280.972 75.4972L280.902 75.5687L280.903 75.5695L280.972 75.4972ZM288.148 72.2572L288.235 72.3062L288.319 72.1572H288.148V72.2572ZM283.432 80.6572V80.7572H283.491L283.519 80.7062L283.432 80.6572ZM281.8 80.6572L281.713 80.6084L281.629 80.7572H281.8V80.6572ZM286.504 72.2572V72.1572H286.445L286.417 72.2084L286.504 72.2572ZM282.844 74.7772L282.923 74.8392L282.924 74.8372L282.844 74.7772ZM286.24 77.4172L286.309 77.4896L286.309 77.4895L286.24 77.4172ZM288.976 77.4172L288.905 77.488L288.907 77.4896L288.976 77.4172ZM288.976 80.2852L288.906 80.2137L288.905 80.2145L288.976 80.2852ZM286.24 80.2852L286.31 80.2137L286.24 80.2852ZM280.544 74.0572C280.544 73.4694 280.713 73.0217 281.042 72.7007L280.902 72.5577C280.527 72.9248 280.344 73.429 280.344 74.0572H280.544ZM281.041 72.7015C281.38 72.3776 281.814 72.2132 282.352 72.2132V72.0132C281.77 72.0132 281.284 72.1929 280.903 72.5569L281.041 72.7015ZM282.352 72.2132C282.89 72.2132 283.319 72.3776 283.65 72.7007L283.79 72.5577C283.417 72.1929 282.934 72.0132 282.352 72.0132V72.2132ZM283.651 72.7015C283.987 73.0226 284.16 73.4701 284.16 74.0572H284.36C284.36 73.4284 284.173 72.9238 283.789 72.5569L283.651 72.7015ZM284.16 74.0572C284.16 74.6528 283.987 75.1041 283.651 75.4249L283.789 75.5695C284.173 75.2024 284.36 74.6936 284.36 74.0572H284.16ZM283.65 75.4257C283.319 75.7489 282.89 75.9132 282.352 75.9132V76.1132C282.934 76.1132 283.417 75.9336 283.79 75.5687L283.65 75.4257ZM282.352 75.9132C281.814 75.9132 281.38 75.7489 281.041 75.4249L280.903 75.5695C281.284 75.9336 281.77 76.1132 282.352 76.1132V75.9132ZM281.042 75.4257C280.714 75.105 280.544 74.6535 280.544 74.0572H280.344C280.344 74.693 280.526 75.2014 280.902 75.5687L281.042 75.4257ZM288.061 72.2083L283.345 80.6083L283.519 80.7062L288.235 72.3062L288.061 72.2083ZM283.432 80.5572H281.8V80.7572H283.432V80.5572ZM281.887 80.7061L286.591 72.3061L286.417 72.2084L281.713 80.6084L281.887 80.7061ZM286.504 72.3572H288.148V72.1572H286.504V72.3572ZM282.34 73.0212C282.093 73.0212 281.895 73.1107 281.763 73.2976C281.636 73.4781 281.58 73.7365 281.58 74.0572H281.78C281.78 73.7539 281.834 73.5443 281.927 73.4129C282.015 73.2878 282.147 73.2212 282.34 73.2212V73.0212ZM281.58 74.0572C281.58 74.3818 281.636 74.6429 281.763 74.8254C281.895 75.0144 282.093 75.1052 282.34 75.1052V74.9052C282.147 74.9052 282.015 74.8381 281.927 74.7111C281.834 74.5775 281.78 74.3647 281.78 74.0572H281.58ZM282.34 75.1052C282.583 75.1052 282.781 75.0182 282.922 74.8392L282.766 74.7153C282.667 74.8403 282.529 74.9052 282.34 74.9052V75.1052ZM282.924 74.8372C283.063 74.6523 283.124 74.3868 283.124 74.0572H282.924C282.924 74.3676 282.865 74.5822 282.764 74.7172L282.924 74.8372ZM283.124 74.0572C283.124 73.736 283.066 73.477 282.934 73.2962C282.797 73.1096 282.593 73.0212 282.34 73.0212V73.2212C282.543 73.2212 282.681 73.2888 282.772 73.4142C282.868 73.5455 282.924 73.7544 282.924 74.0572H283.124ZM285.812 78.8452C285.812 78.2489 285.982 77.802 286.309 77.4896L286.171 77.3449C285.794 77.7045 285.612 78.2096 285.612 78.8452H285.812ZM286.309 77.4895C286.648 77.1656 287.082 77.0012 287.62 77.0012V76.8012C287.038 76.8012 286.552 76.9809 286.171 77.3449L286.309 77.4895ZM287.62 77.0012C288.158 77.0012 288.583 77.1656 288.905 77.4879L289.047 77.3465C288.681 76.9809 288.202 76.8012 287.62 76.8012V77.0012ZM288.907 77.4896C289.234 77.802 289.404 78.2489 289.404 78.8452H289.604C289.604 78.2096 289.422 77.7045 289.045 77.3449L288.907 77.4896ZM289.404 78.8452C289.404 79.4415 289.234 79.893 288.906 80.2137L289.046 80.3567C289.422 79.9894 289.604 79.481 289.604 78.8452H289.404ZM288.905 80.2145C288.583 80.5369 288.158 80.7012 287.62 80.7012V80.9012C288.202 80.9012 288.681 80.7216 289.047 80.3559L288.905 80.2145ZM287.62 80.7012C287.074 80.7012 286.64 80.5366 286.31 80.2137L286.17 80.3567C286.544 80.7218 287.03 80.9012 287.62 80.9012V80.7012ZM286.31 80.2137C285.982 79.893 285.812 79.4415 285.812 78.8452H285.612C285.612 79.481 285.794 79.9894 286.17 80.3567L286.31 80.2137ZM287.608 77.8092C287.355 77.8092 287.151 77.8976 287.014 78.0842C286.882 78.265 286.824 78.524 286.824 78.8452H287.024C287.024 78.5424 287.08 78.3335 287.176 78.2022C287.267 78.0768 287.405 78.0092 287.608 78.0092V77.8092ZM286.824 78.8452C286.824 79.1703 286.882 79.432 287.014 79.6147C287.15 79.8035 287.354 79.8932 287.608 79.8932V79.6932C287.406 79.6932 287.268 79.625 287.176 79.4977C287.08 79.3644 287.024 79.1522 287.024 78.8452H286.824ZM287.608 79.8932C287.859 79.8932 288.06 79.8029 288.194 79.6141C288.323 79.4315 288.38 79.17 288.38 78.8452H288.18C288.18 79.1525 288.125 79.365 288.03 79.4984C287.94 79.6255 287.805 79.6932 287.608 79.6932V79.8932ZM288.38 78.8452C288.38 78.5243 288.323 78.2656 288.193 78.0849C288.059 77.8981 287.858 77.8092 287.608 77.8092V78.0092C287.806 78.0092 287.941 78.0763 288.031 78.2015C288.125 78.3329 288.18 78.5422 288.18 78.8452H288.38Z" fill="white"/>
<path d="M121.261 96.8429H124.213C126.121 96.8429 127.393 97.9469 127.393 99.6029C127.393 101.331 126.061 102.471 124.069 102.471H122.401V105.003H121.261V96.8429ZM122.401 101.415H124.177C125.425 101.415 126.265 100.683 126.265 99.6029C126.265 98.5829 125.425 97.8989 124.177 97.8989H122.401V101.415ZM131.713 102.183H129.889V105.003H128.749V96.8429H131.941C133.777 96.8429 135.073 97.8749 135.073 99.5069C135.073 100.803 134.269 101.715 133.021 102.051L135.493 105.003H134.089L131.713 102.183ZM129.889 101.127H131.905C133.069 101.127 133.945 100.515 133.945 99.5069C133.945 98.5109 133.069 97.8989 131.905 97.8989H129.889V101.127ZM140.525 96.6749C142.877 96.6749 144.773 98.5709 144.773 100.923C144.773 103.275 142.877 105.171 140.525 105.171C138.173 105.171 136.277 103.275 136.277 100.923C136.277 98.5709 138.173 96.6749 140.525 96.6749ZM140.525 104.103C142.265 104.103 143.609 102.663 143.609 100.923C143.609 99.1829 142.265 97.7429 140.525 97.7429C138.773 97.7429 137.429 99.1829 137.429 100.923C137.429 102.663 138.773 104.103 140.525 104.103ZM146.538 96.8429H149.49C151.998 96.8429 153.81 98.5349 153.81 100.875C153.81 103.275 151.998 105.003 149.49 105.003H146.538V96.8429ZM147.678 103.947H149.49C151.302 103.947 152.634 102.651 152.634 100.875C152.634 99.1709 151.302 97.8989 149.49 97.8989H147.678V103.947ZM162.381 96.8429V101.463C162.381 103.695 160.965 105.183 158.841 105.183C156.717 105.183 155.301 103.695 155.301 101.463V96.8429H156.441V101.463C156.441 102.999 157.401 104.115 158.841 104.115C160.281 104.115 161.241 102.999 161.241 101.463V96.8429H162.381ZM168.158 104.067C169.562 104.067 170.558 103.275 170.894 101.991H172.07C171.686 103.887 170.174 105.171 168.158 105.171C165.806 105.171 163.91 103.347 163.91 100.923C163.91 98.4989 165.806 96.6749 168.158 96.6749C170.174 96.6749 171.686 97.9589 172.07 99.8549H170.894C170.558 98.5709 169.562 97.7789 168.158 97.7789C166.406 97.7789 165.062 99.0989 165.062 100.923C165.062 102.747 166.406 104.067 168.158 104.067ZM179.44 97.8989H176.5V105.003H175.36V97.8989H172.42V96.8429H179.44V97.8989Z" fill="#A0ADB9"/>
<path d="M160.444 68.3971L158.751 66.3623C158.409 65.9626 157.902 65.7021 157.333 65.7021H142.667C142.098 65.7021 141.591 65.9626 141.255 66.3623L139.562 68.3971C139.208 68.821 139 69.3539 139 69.9413V85.0813C139 86.4197 140.094 87.5037 141.444 87.5037H158.556C159.906 87.5037 161 86.4197 161 85.0813V69.9413C161 69.3539 160.792 68.821 160.444 68.3971ZM150 73.5749L156.722 80.2365H152.444V82.6589H147.556V80.2365H143.278L150 73.5749ZM141.597 68.1245L142.593 66.9133H157.26L158.403 68.1245H141.597Z" fill="#D0D6DC"/>
<rect x="142" y="71.6484" width="16" height="12.8827" fill="#D0D6DC"/>
<path d="M152.934 75.9316C152.934 74.143 151.415 73.6299 150.18 73.6299H146C146.343 74.1607 146.537 74.7785 146.563 75.4156V81.5585H148.124V78.2827H148.624C149.266 78.2827 149.716 78.5001 150.383 79.4162L151.949 81.5585H154L151.269 78.1406C152.16 77.842 152.934 77.1753 152.934 75.9316ZM148.129 77.6072V74.3053H149.629C150.489 74.3053 151.297 74.746 151.297 75.9809C151.297 77.2159 150.422 77.6072 149.724 77.6072H148.129Z" fill="white"/>
<rect opacity="0.5" x="60" y="58.7656" width="38" height="37.6573" fill="white"/>
<rect x="68" y="66.6934" width="22" height="21.8016" rx="3.5" fill="#D0D6DC"/>
<path d="M84 82.5504V76.2655L79 72.6396L74 76.2655V82.5504H77.1579V78.4411H80.8421V82.5504H84Z" fill="white"/>
<path d="M68.824 96.8429V105.003H67.672V101.511H63.172V105.003H62.032V96.8429H63.172V100.455H67.672V96.8429H68.824ZM74.8394 96.6749C77.1914 96.6749 79.0874 98.5709 79.0874 100.923C79.0874 103.275 77.1914 105.171 74.8394 105.171C72.4874 105.171 70.5914 103.275 70.5914 100.923C70.5914 98.5709 72.4874 96.6749 74.8394 96.6749ZM74.8394 104.103C76.5794 104.103 77.9234 102.663 77.9234 100.923C77.9234 99.1829 76.5794 97.7429 74.8394 97.7429C73.0874 97.7429 71.7434 99.1829 71.7434 100.923C71.7434 102.663 73.0874 104.103 74.8394 104.103ZM88.9763 96.8429V105.003H87.8243V99.3749L85.2803 103.551H84.5483L81.9803 99.3389L82.0043 105.003H80.8523V96.8429H81.6923L84.9083 102.135L88.1243 96.8429H88.9763ZM92.1759 97.8989V100.431H96.3519V101.487H92.1759V103.947H96.8319V105.003H91.0359V96.8429H96.8319V97.8989H92.1759Z" fill="#A0ADB9"/>
<defs>
<filter id="filter0_d_240_4266" x="0" y="0" width="435" height="155" filterUnits="userSpaceOnUse" color-interpolation-filters="sRGB">
<feFlood flood-opacity="0" result="BackgroundImageFix"/>
<feColorMatrix in="SourceAlpha" type="matrix" values="0 0 0 0 0 0 0 0 0 0 0 0 0 0 0 0 0 0 127 0" result="hardAlpha"/>
<feOffset dy="-3"/>
<feGaussianBlur stdDeviation="15"/>
<feComposite in2="hardAlpha" operator="out"/>
<feColorMatrix type="matrix" values="0 0 0 0 0 0 0 0 0 0 0 0 0 0 0 0 0 0 0.05 0"/>
<feBlend mode="normal" in2="BackgroundImageFix" result="effect1_dropShadow_240_4266"/>
<feBlend mode="normal" in="SourceGraphic" in2="effect1_dropShadow_240_4266" result="shape"/>
</filter>
<filter id="filter1_i_240_4266" x="188" y="29.0088" width="59" height="62.4678" filterUnits="userSpaceOnUse" color-interpolation-filters="sRGB">
<feFlood flood-opacity="0" result="BackgroundImageFix"/>
<feBlend mode="normal" in="SourceGraphic" in2="BackgroundImageFix" result="shape"/>
<feColorMatrix in="SourceAlpha" type="matrix" values="0 0 0 0 0 0 0 0 0 0 0 0 0 0 0 0 0 0 127 0" result="hardAlpha"/>
<feOffset dy="-5"/>
<feGaussianBlur stdDeviation="2"/>
<feComposite in2="hardAlpha" operator="arithmetic" k2="-1" k3="1"/>
<feColorMatrix type="matrix" values="0 0 0 0 0 0 0 0 0 0 0 0 0 0 0 0 0 0 0.1 0"/>
<feBlend mode="normal" in2="shape" result="effect1_innerShadow_240_4266"/>
</filter>
<filter id="filter2_i_240_4266" x="195" y="39.0078" width="48" height="47.9961" filterUnits="userSpaceOnUse" color-interpolation-filters="sRGB">
<feFlood flood-opacity="0" result="BackgroundImageFix"/>
<feBlend mode="normal" in="SourceGraphic" in2="BackgroundImageFix" result="shape"/>
<feColorMatrix in="SourceAlpha" type="matrix" values="0 0 0 0 0 0 0 0 0 0 0 0 0 0 0 0 0 0 127 0" result="hardAlpha"/>
<feOffset dx="3" dy="3"/>
<feGaussianBlur stdDeviation="2.5"/>
<feComposite in2="hardAlpha" operator="arithmetic" k2="-1" k3="1"/>
<feColorMatrix type="matrix" values="0 0 0 0 0 0 0 0 0 0 0 0 0 0 0 0 0 0 0.3 0"/>
<feBlend mode="normal" in2="shape" result="effect1_innerShadow_240_4266"/>
</filter>
</defs>
</svg>
