<svg width="375" height="155" viewBox="0 0 375 155" fill="none" xmlns="http://www.w3.org/2000/svg">
<g filter="url(#filter0_d_435_5675)">
<path d="M157.895 43.8971H0V128H187.218V33C176.786 33 170.207 37.9363 168.045 39.9853C162.632 44.0088 159.023 44.2696 157.895 43.8971Z" fill="white"/>
<path d="M217.105 43.8971H375V128H187.218V33C197.086 33 204.793 37.9363 206.955 39.9853C212.368 44.0088 215.977 44.2696 217.105 43.8971Z" fill="white"/>
</g>
<g opacity="0.5" filter="url(#filter1_i_435_5675)">
<circle cx="188" cy="63" r="30" fill="white"/>
</g>
<g filter="url(#filter2_i_435_5675)">
<ellipse cx="187.5" cy="62.4979" rx="22.5" ry="22.4979" fill="#123250"/>
</g>
<path d="M182.056 64.9022C181.963 64.9016 181.873 64.8779 181.792 64.8332C181.711 64.7885 181.643 64.7243 181.593 64.6465C181.544 64.5687 181.515 64.4797 181.509 64.3877C181.503 64.2958 181.52 64.2038 181.559 64.1202C182.075 63.0324 182.928 62.1392 183.992 61.5728C184.12 61.5117 184.267 61.5023 184.402 61.5467C184.537 61.591 184.649 61.6857 184.715 61.8109C184.782 61.9361 184.797 62.082 184.758 62.2181C184.719 62.3543 184.629 62.4701 184.506 62.5413C183.652 62.9961 182.967 63.7136 182.554 64.5875C182.509 64.6814 182.438 64.7607 182.35 64.8164C182.262 64.872 182.16 64.9017 182.056 64.9022Z" fill="white" stroke="white" stroke-width="0.25"/>
<path d="M186.5 59.0068V56.5068" stroke="white" stroke-width="1.5" stroke-linecap="round"/>
<circle cx="186.5" cy="55.0073" r="1.25" stroke="white" stroke-width="1.5"/>
<path d="M186.5 68.5059V71.0059M177.5 71.0059H195" stroke="white" stroke-width="1.5" stroke-linecap="round"/>
<path d="M186.454 59.0066C181.626 59.0066 178.781 62.0316 178 68.0066H195C194.219 62.0341 191.38 59.0066 186.522 59.0066H186.454Z" stroke="white" stroke-width="1.5" stroke-linejoin="round"/>
<path d="M192 57.0071V55.0071" stroke="white" stroke-width="1.5" stroke-linecap="round"/>
<path d="M195 60.0066L197 60.0066" stroke="white" stroke-width="1.5" stroke-linecap="round"/>
<path d="M194 57.9826L195.99 56.2708" stroke="white" stroke-width="1.5" stroke-linecap="round"/>
<circle cx="199" cy="51" r="3" fill="#FE4A4A"/>
<path d="M326.504 93.8399V102H325.352V96.3719L322.808 100.548H322.076L319.508 96.3359L319.532 102H318.38V93.8399H319.22L322.436 99.1319L325.652 93.8399H326.504ZM335.499 93.8399L332.175 99.1679V102H331.011V99.1679L327.687 93.8399H328.959L331.587 98.0639L334.227 93.8399H335.499Z" fill="#A0ADB9"/>
<path d="M316 67.4443V84.5554C316 85.906 317.094 86.9999 318.444 86.9999H335.556C336.906 86.9999 338 85.906 338 84.5554V67.4443C338 66.0938 336.906 64.9999 335.556 64.9999H318.444C317.094 64.9999 316 66.0938 316 67.4443ZM330.667 72.3332C330.667 74.3621 329.023 75.9999 327 75.9999C324.977 75.9999 323.333 74.3621 323.333 72.3332C323.333 70.3104 324.977 68.6665 327 68.6665C329.023 68.6665 330.667 70.3104 330.667 72.3332ZM319.667 82.111C319.667 79.6665 324.556 78.3221 327 78.3221C329.444 78.3221 334.333 79.6665 334.333 82.111V83.3332H319.667V82.111Z" fill="#D0D6DC"/>
<path d="M236.048 97.7759C237.188 97.9919 237.74 98.7839 237.74 99.7679C237.74 101.1 236.588 102 234.776 102H231.032V93.8399H234.656C236.324 93.8399 237.344 94.6439 237.344 95.9279C237.344 96.7919 236.864 97.5119 236.048 97.7759ZM232.172 94.8479V97.3919H234.452C235.616 97.3919 236.252 96.8879 236.252 96.0719C236.252 95.3159 235.628 94.8479 234.536 94.8479H232.172ZM232.172 100.992H234.728C235.94 100.992 236.612 100.404 236.612 99.6359C236.612 98.8439 235.916 98.4119 234.764 98.4119H232.172V100.992ZM240.563 94.8959V97.4279H244.739V98.4839H240.563V100.944H245.219V102H239.423V93.8399H245.219V94.8959H240.563ZM253.991 93.8399V102H253.055L248.063 95.9519V102H246.923V93.8399H247.823L252.839 99.9839V93.8399H253.991ZM257.192 94.8959V97.4279H261.368V98.4839H257.192V100.944H261.848V102H256.052V93.8399H261.848V94.8959H257.192ZM264.692 94.8959V97.6439H268.736V98.6999H264.692V102H263.552V93.8399H269.252V94.8959H264.692ZM271.793 93.8399V102H270.653V93.8399H271.793ZM280.059 94.8959H277.119V102H275.979V94.8959H273.039V93.8399H280.059V94.8959Z" fill="#A0ADB9"/>
<g clip-path="url(#clip0_435_5675)">
<path d="M264.6 75.603C264.6 74.2342 265.674 73.1256 267 73.1256V68.1707C267 66.8019 265.926 65.6932 264.6 65.6932H245.4C244.074 65.6932 243.012 66.8019 243.012 68.1707L243.006 73.1256C244.332 73.1318 245.4 74.2404 245.4 75.603C245.4 76.9718 244.326 78.0805 243.006 78.0805L243 83.0354C243 84.4042 244.074 85.5128 245.4 85.5128H264.6C265.926 85.5128 267 84.4042 267 83.0354V78.0805C265.674 78.0805 264.6 76.9718 264.6 75.603ZM259.296 81.5489L255 78.6999L250.704 81.5489L252 76.4516L248.052 73.1194L253.146 72.8097L255 67.9229L256.854 72.8097L261.948 73.1194L258 76.4516L259.296 81.5489Z" fill="#D0D6DC"/>
<rect x="248" y="67.6754" width="14" height="16.8467" fill="#D0D6DC"/>
<path d="M250.444 73.0573C250.444 72.4493 250.62 71.9733 250.972 71.6293C251.332 71.2853 251.792 71.1133 252.352 71.1133C252.912 71.1133 253.368 71.2853 253.72 71.6293C254.08 71.9733 254.26 72.4493 254.26 73.0573C254.26 73.6733 254.08 74.1533 253.72 74.4973C253.368 74.8413 252.912 75.0133 252.352 75.0133C251.792 75.0133 251.332 74.8413 250.972 74.4973C250.62 74.1533 250.444 73.6733 250.444 73.0573ZM258.148 71.2573L253.432 79.6573H251.8L256.504 71.2573H258.148ZM252.34 72.1213C251.9 72.1213 251.68 72.4333 251.68 73.0573C251.68 73.6893 251.9 74.0053 252.34 74.0053C252.556 74.0053 252.724 73.9293 252.844 73.7773C252.964 73.6173 253.024 73.3773 253.024 73.0573C253.024 72.4333 252.796 72.1213 252.34 72.1213ZM255.712 77.8453C255.712 77.2293 255.888 76.7533 256.24 76.4173C256.6 76.0733 257.06 75.9013 257.62 75.9013C258.18 75.9013 258.632 76.0733 258.976 76.4173C259.328 76.7533 259.504 77.2293 259.504 77.8453C259.504 78.4613 259.328 78.9413 258.976 79.2853C258.632 79.6293 258.18 79.8013 257.62 79.8013C257.052 79.8013 256.592 79.6293 256.24 79.2853C255.888 78.9413 255.712 78.4613 255.712 77.8453ZM257.608 76.9093C257.152 76.9093 256.924 77.2213 256.924 77.8453C256.924 78.4773 257.152 78.7933 257.608 78.7933C258.056 78.7933 258.28 78.4773 258.28 77.8453C258.28 77.2213 258.056 76.9093 257.608 76.9093Z" fill="white"/>
<path d="M250.972 71.6293L250.903 71.557L250.902 71.5578L250.972 71.6293ZM253.72 71.6293L253.65 71.7009L253.651 71.7016L253.72 71.6293ZM253.72 74.4973L253.651 74.425L253.65 74.4258L253.72 74.4973ZM250.972 74.4973L250.902 74.5689L250.903 74.5696L250.972 74.4973ZM258.148 71.2573L258.235 71.3063L258.319 71.1573H258.148V71.2573ZM253.432 79.6573V79.7573H253.491L253.519 79.7063L253.432 79.6573ZM251.8 79.6573L251.713 79.6085L251.629 79.7573H251.8V79.6573ZM256.504 71.2573V71.1573H256.445L256.417 71.2085L256.504 71.2573ZM252.844 73.7773L252.923 73.8393L252.924 73.8373L252.844 73.7773ZM256.24 76.4173L256.309 76.4897L256.309 76.4896L256.24 76.4173ZM258.976 76.4173L258.905 76.4881L258.907 76.4897L258.976 76.4173ZM258.976 79.2853L258.906 79.2138L258.905 79.2146L258.976 79.2853ZM256.24 79.2853L256.31 79.2138L256.24 79.2853ZM250.544 73.0573C250.544 72.4695 250.713 72.0218 251.042 71.7009L250.902 71.5578C250.527 71.9249 250.344 72.4292 250.344 73.0573H250.544ZM251.041 71.7016C251.38 71.3777 251.814 71.2133 252.352 71.2133V71.0133C251.77 71.0133 251.284 71.193 250.903 71.557L251.041 71.7016ZM252.352 71.2133C252.89 71.2133 253.319 71.3777 253.65 71.7009L253.79 71.5578C253.417 71.193 252.934 71.0133 252.352 71.0133V71.2133ZM253.651 71.7016C253.987 72.0227 254.16 72.4702 254.16 73.0573H254.36C254.36 72.4285 254.173 71.924 253.789 71.557L253.651 71.7016ZM254.16 73.0573C254.16 73.653 253.987 74.1042 253.651 74.425L253.789 74.5696C254.173 74.2025 254.36 73.6937 254.36 73.0573H254.16ZM253.65 74.4258C253.319 74.749 252.89 74.9133 252.352 74.9133V75.1133C252.934 75.1133 253.417 74.9337 253.79 74.5689L253.65 74.4258ZM252.352 74.9133C251.814 74.9133 251.38 74.749 251.041 74.425L250.903 74.5696C251.284 74.9337 251.77 75.1133 252.352 75.1133V74.9133ZM251.042 74.4258C250.714 74.1051 250.544 73.6536 250.544 73.0573H250.344C250.344 73.6931 250.526 74.2016 250.902 74.5689L251.042 74.4258ZM258.061 71.2084L253.345 79.6084L253.519 79.7063L258.235 71.3063L258.061 71.2084ZM253.432 79.5573H251.8V79.7573H253.432V79.5573ZM251.887 79.7062L256.591 71.3062L256.417 71.2085L251.713 79.6085L251.887 79.7062ZM256.504 71.3573H258.148V71.1573H256.504V71.3573ZM252.34 72.0213C252.093 72.0213 251.895 72.1108 251.763 72.2977C251.636 72.4782 251.58 72.7366 251.58 73.0573H251.78C251.78 72.754 251.834 72.5445 251.927 72.413C252.015 72.2879 252.147 72.2213 252.34 72.2213V72.0213ZM251.58 73.0573C251.58 73.3819 251.636 73.6431 251.763 73.8255C251.895 74.0145 252.093 74.1053 252.34 74.1053V73.9053C252.147 73.9053 252.015 73.8382 251.927 73.7112C251.834 73.5776 251.78 73.3648 251.78 73.0573H251.58ZM252.34 74.1053C252.583 74.1053 252.781 74.0183 252.922 73.8393L252.766 73.7154C252.667 73.8404 252.529 73.9053 252.34 73.9053V74.1053ZM252.924 73.8373C253.063 73.6524 253.124 73.387 253.124 73.0573H252.924C252.924 73.3677 252.865 73.5823 252.764 73.7173L252.924 73.8373ZM253.124 73.0573C253.124 72.7361 253.066 72.4771 252.934 72.2963C252.797 72.1097 252.593 72.0213 252.34 72.0213V72.2213C252.543 72.2213 252.681 72.289 252.772 72.4144C252.868 72.5456 252.924 72.7546 252.924 73.0573H253.124ZM255.812 77.8453C255.812 77.249 255.982 76.8021 256.309 76.4897L256.171 76.345C255.794 76.7046 255.612 77.2097 255.612 77.8453H255.812ZM256.309 76.4896C256.648 76.1657 257.082 76.0013 257.62 76.0013V75.8013C257.038 75.8013 256.552 75.981 256.171 76.345L256.309 76.4896ZM257.62 76.0013C258.158 76.0013 258.583 76.1657 258.905 76.4881L259.047 76.3466C258.681 75.981 258.202 75.8013 257.62 75.8013V76.0013ZM258.907 76.4897C259.234 76.8021 259.404 77.249 259.404 77.8453H259.604C259.604 77.2097 259.422 76.7046 259.045 76.345L258.907 76.4897ZM259.404 77.8453C259.404 78.4416 259.234 78.8931 258.906 79.2138L259.046 79.3569C259.422 78.9896 259.604 78.4811 259.604 77.8453H259.404ZM258.905 79.2146C258.583 79.537 258.158 79.7013 257.62 79.7013V79.9013C258.202 79.9013 258.681 79.7217 259.047 79.3561L258.905 79.2146ZM257.62 79.7013C257.074 79.7013 256.64 79.5367 256.31 79.2138L256.17 79.3569C256.544 79.722 257.03 79.9013 257.62 79.9013V79.7013ZM256.31 79.2138C255.982 78.8931 255.812 78.4416 255.812 77.8453H255.612C255.612 78.4811 255.794 78.9896 256.17 79.3569L256.31 79.2138ZM257.608 76.8093C257.355 76.8093 257.151 76.8977 257.014 77.0843C256.882 77.2651 256.824 77.5241 256.824 77.8453H257.024C257.024 77.5426 257.08 77.3336 257.176 77.2024C257.267 77.077 257.405 77.0093 257.608 77.0093V76.8093ZM256.824 77.8453C256.824 78.1704 256.882 78.4322 257.014 78.6149C257.15 78.8036 257.354 78.8933 257.608 78.8933V78.6933C257.406 78.6933 257.268 78.6251 257.176 78.4978C257.08 78.3645 257.024 78.1523 257.024 77.8453H256.824ZM257.608 78.8933C257.859 78.8933 258.06 78.8031 258.194 78.6142C258.323 78.4316 258.38 78.1701 258.38 77.8453H258.18C258.18 78.1526 258.125 78.3651 258.03 78.4985C257.94 78.6256 257.805 78.6933 257.608 78.6933V78.8933ZM258.38 77.8453C258.38 77.5244 258.323 77.2657 258.193 77.085C258.059 76.8983 257.858 76.8093 257.608 76.8093V77.0093C257.806 77.0093 257.941 77.0764 258.031 77.2017C258.125 77.333 258.18 77.5423 258.18 77.8453H258.38Z" fill="white"/>
</g>
<path d="M91.2605 93.84H94.2125C96.1205 93.84 97.3925 94.944 97.3925 96.6C97.3925 98.328 96.0605 99.468 94.0685 99.468H92.4005V102H91.2605V93.84ZM92.4005 98.412H94.1765C95.4245 98.412 96.2645 97.68 96.2645 96.6C96.2645 95.58 95.4245 94.896 94.1765 94.896H92.4005V98.412ZM101.713 99.18H99.8888V102H98.7488V93.84H101.941C103.777 93.84 105.073 94.872 105.073 96.504C105.073 97.8 104.269 98.712 103.021 99.048L105.493 102H104.089L101.713 99.18ZM99.8888 98.124H101.905C103.069 98.124 103.945 97.512 103.945 96.504C103.945 95.508 103.069 94.896 101.905 94.896H99.8888V98.124ZM110.525 93.672C112.877 93.672 114.773 95.568 114.773 97.92C114.773 100.272 112.877 102.168 110.525 102.168C108.173 102.168 106.277 100.272 106.277 97.92C106.277 95.568 108.173 93.672 110.525 93.672ZM110.525 101.1C112.265 101.1 113.609 99.66 113.609 97.92C113.609 96.18 112.265 94.74 110.525 94.74C108.773 94.74 107.429 96.18 107.429 97.92C107.429 99.66 108.773 101.1 110.525 101.1ZM116.538 93.84H119.49C121.998 93.84 123.81 95.532 123.81 97.872C123.81 100.272 121.998 102 119.49 102H116.538V93.84ZM117.678 100.944H119.49C121.302 100.944 122.634 99.648 122.634 97.872C122.634 96.168 121.302 94.896 119.49 94.896H117.678V100.944ZM132.381 93.84V98.46C132.381 100.692 130.965 102.18 128.841 102.18C126.717 102.18 125.301 100.692 125.301 98.46V93.84H126.441V98.46C126.441 99.996 127.401 101.112 128.841 101.112C130.281 101.112 131.241 99.996 131.241 98.46V93.84H132.381ZM138.158 101.064C139.562 101.064 140.558 100.272 140.894 98.988H142.07C141.686 100.884 140.174 102.168 138.158 102.168C135.806 102.168 133.91 100.344 133.91 97.92C133.91 95.496 135.806 93.672 138.158 93.672C140.174 93.672 141.686 94.956 142.07 96.852H140.894C140.558 95.568 139.562 94.776 138.158 94.776C136.406 94.776 135.062 96.096 135.062 97.92C135.062 99.744 136.406 101.064 138.158 101.064ZM149.44 94.896H146.5V102H145.36V94.896H142.42V93.84H149.44V94.896Z" fill="#A0ADB9"/>
<path d="M130.444 67.3973L128.751 65.3625C128.409 64.9628 127.902 64.7024 127.333 64.7024H112.667C112.098 64.7024 111.591 64.9628 111.255 65.3625L109.562 67.3973C109.208 67.8212 109 68.3542 109 68.9416V84.0816C109 85.4199 110.094 86.504 111.444 86.504H128.556C129.906 86.504 131 85.4199 131 84.0816V68.9416C131 68.3542 130.792 67.8212 130.444 67.3973ZM120 72.5752L126.722 79.2368H122.444V81.6592H117.556V79.2368H113.278L120 72.5752ZM111.597 67.1248L112.593 65.9136H127.26L128.403 67.1248H111.597Z" fill="#D0D6DC"/>
<rect x="112" y="70.6484" width="16" height="12.8827" fill="#D0D6DC"/>
<path d="M122.934 74.9321C122.934 73.1435 121.415 72.6304 120.18 72.6304H116C116.343 73.1612 116.537 73.779 116.563 74.4161V80.559H118.124V77.2832H118.624C119.266 77.2832 119.716 77.5006 120.383 78.4167L121.949 80.559H124L121.269 77.1411C122.16 76.8425 122.934 76.1758 122.934 74.9321ZM118.129 76.6077V73.3058H119.629C120.489 73.3058 121.297 73.7465 121.297 74.9814C121.297 76.2164 120.422 76.6077 119.724 76.6077H118.129Z" fill="white"/>
<rect x="38" y="65" width="22" height="22" rx="3.5" fill="#D0D6DC"/>
<path d="M54 80.5501V74.2653L49 70.6394L44 74.2653V80.5501H47.1579V76.4408H50.8421V80.5501H54Z" fill="white"/>
<path d="M38.824 92.8429V101.003H37.672V97.5109H33.172V101.003H32.032V92.8429H33.172V96.4549H37.672V92.8429H38.824ZM44.8394 92.6749C47.1914 92.6749 49.0874 94.5709 49.0874 96.9229C49.0874 99.2749 47.1914 101.171 44.8394 101.171C42.4874 101.171 40.5914 99.2749 40.5914 96.9229C40.5914 94.5709 42.4874 92.6749 44.8394 92.6749ZM44.8394 100.103C46.5794 100.103 47.9234 98.6629 47.9234 96.9229C47.9234 95.1829 46.5794 93.7429 44.8394 93.7429C43.0874 93.7429 41.7434 95.1829 41.7434 96.9229C41.7434 98.6629 43.0874 100.103 44.8394 100.103ZM58.9763 92.8429V101.003H57.8243V95.3749L55.2803 99.5509H54.5483L51.9803 95.3389L52.0043 101.003H50.8523V92.8429H51.6923L54.9083 98.1349L58.1243 92.8429H58.9763ZM62.1759 93.8989V96.4309H66.3519V97.4869H62.1759V99.9469H66.8319V101.003H61.0359V92.8429H66.8319V93.8989H62.1759Z" fill="#A0ADB9"/>
<defs>
<filter id="filter0_d_435_5675" x="-30" y="0" width="435" height="155" filterUnits="userSpaceOnUse" color-interpolation-filters="sRGB">
<feFlood flood-opacity="0" result="BackgroundImageFix"/>
<feColorMatrix in="SourceAlpha" type="matrix" values="0 0 0 0 0 0 0 0 0 0 0 0 0 0 0 0 0 0 127 0" result="hardAlpha"/>
<feOffset dy="-3"/>
<feGaussianBlur stdDeviation="15"/>
<feComposite in2="hardAlpha" operator="out"/>
<feColorMatrix type="matrix" values="0 0 0 0 0 0 0 0 0 0 0 0 0 0 0 0 0 0 0.05 0"/>
<feBlend mode="normal" in2="BackgroundImageFix" result="effect1_dropShadow_435_5675"/>
<feBlend mode="normal" in="SourceGraphic" in2="effect1_dropShadow_435_5675" result="shape"/>
</filter>
<filter id="filter1_i_435_5675" x="158" y="29" width="60" height="64" filterUnits="userSpaceOnUse" color-interpolation-filters="sRGB">
<feFlood flood-opacity="0" result="BackgroundImageFix"/>
<feBlend mode="normal" in="SourceGraphic" in2="BackgroundImageFix" result="shape"/>
<feColorMatrix in="SourceAlpha" type="matrix" values="0 0 0 0 0 0 0 0 0 0 0 0 0 0 0 0 0 0 127 0" result="hardAlpha"/>
<feOffset dy="-5"/>
<feGaussianBlur stdDeviation="2"/>
<feComposite in2="hardAlpha" operator="arithmetic" k2="-1" k3="1"/>
<feColorMatrix type="matrix" values="0 0 0 0 0 0 0 0 0 0 0 0 0 0 0 0 0 0 0.1 0"/>
<feBlend mode="normal" in2="shape" result="effect1_innerShadow_435_5675"/>
</filter>
<filter id="filter2_i_435_5675" x="165" y="40" width="48" height="47.9957" filterUnits="userSpaceOnUse" color-interpolation-filters="sRGB">
<feFlood flood-opacity="0" result="BackgroundImageFix"/>
<feBlend mode="normal" in="SourceGraphic" in2="BackgroundImageFix" result="shape"/>
<feColorMatrix in="SourceAlpha" type="matrix" values="0 0 0 0 0 0 0 0 0 0 0 0 0 0 0 0 0 0 127 0" result="hardAlpha"/>
<feOffset dx="3" dy="3"/>
<feGaussianBlur stdDeviation="2.5"/>
<feComposite in2="hardAlpha" operator="arithmetic" k2="-1" k3="1"/>
<feColorMatrix type="matrix" values="0 0 0 0 0 0 0 0 0 0 0 0 0 0 0 0 0 0 0.3 0"/>
<feBlend mode="normal" in2="shape" result="effect1_innerShadow_435_5675"/>
</filter>
<clipPath id="clip0_435_5675">
<rect width="35" height="35" fill="white" transform="translate(238 57.9999)"/>
</clipPath>
</defs>
</svg>
