<svg width="178" height="16" viewBox="0 0 178 16" fill="none" xmlns="http://www.w3.org/2000/svg">
<path d="M20.2324 0.0416718C20.2324 0.0416718 21.4112 1.69221 21.4112 3.63845V15.9987H24.6504V0.0416718H20.2324Z" fill="#003053"/>
<path d="M46.8882 0.0416718L41.122 12.2325L35.0804 0.0416718H30.5186C30.5186 0.0416718 31.6973 1.69221 31.6973 3.63845V15.9987H33.411V3.62097L39.3398 16H41.0535L46.8868 3.66667V16H50.1261V0.0416718H46.8882Z" fill="#003053"/>
<path d="M89.2419 0.0416718V10.6116L80.1263 0.0416718H75.5645C75.5645 0.0416718 76.7432 1.69221 76.7432 3.63845V15.9987H78.4569V3.4664L89.2405 15.9987H90.9542V0.0416718H89.2419Z" fill="#003053"/>
<path d="M14.3858 4.67339C14.3858 1.07662 11.2325 0.0416718 8.67339 0.0416718H0C0 0.0416718 1.17876 1.69221 1.17876 3.63845V15.9987H4.41801V9.40726H5.45968C6.79032 9.40726 7.72043 9.84409 9.10753 11.6841L12.3548 15.9973H16.6102L10.9409 9.12097C12.7769 8.52151 14.3858 7.1613 14.3858 4.67339ZM4.41801 8.04705V1.40323H7.52823C9.31586 1.40323 10.9879 2.2863 10.9879 4.77689C10.9879 7.26748 9.17608 8.04705 7.72446 8.04705H4.41801Z" fill="#003053"/>
<path d="M60.2848 0.0416718C60.2848 0.0416718 61.805 1.95027 60.4165 4.74194L54.5254 15.9987H56.3426C58.4152 12.4772 60.4286 12.2487 62.5093 12.9691L68.7176 15.9987H72.3896L64.2754 0.0416718H60.2848ZM59.5335 9.90054L62.6181 4.00538L67.5886 13.7796L59.5335 9.90054Z" fill="#003053"/>
<path d="M120.249 0L114.482 12.1909L108.441 0H103.879C103.879 0 105.058 1.65054 105.058 3.59677V15.957H106.771V3.57796L112.7 15.957H114.414L120.247 3.62366V15.957H123.486V0H120.249Z" fill="#003053"/>
<path d="M133.645 0C133.645 0 135.165 1.9086 133.777 4.70027L127.886 15.957H129.703C131.776 12.4355 133.789 12.207 135.87 12.9274L142.078 15.957H145.75L137.636 0H133.645ZM132.894 9.85887L135.978 3.96371L140.949 13.7379L132.894 9.85887Z" fill="#003053"/>
<path d="M152.999 0H148.581C148.581 0 149.76 1.65188 149.76 3.59677V15.957H161.811V14.5954H152.999V0Z" fill="#003053"/>
<path d="M168.443 0H164.025C164.025 0 165.204 1.65188 165.204 3.59677V15.957H177.255V14.5954H168.443V0Z" fill="#003053"/>
</svg>
