<svg width="200" height="50" viewBox="0 0 200 50" fill="none" xmlns="http://www.w3.org/2000/svg">
<path d="M47.1807 21.5883C41.0565 21.5883 38.5193 16.2187 38.5193 11.3988C38.5193 6.38546 40.9851 1.20936 47.0779 1.20936C50.8302 1.20936 53.4478 3.72485 53.4478 3.72485L54.4886 1.56557C52.1584 0.537656 49.6313 0.0142618 47.0779 0.0307744C40.3776 0.0307744 35.3389 4.11185 35.3389 11.4648C35.3389 18.2857 40.1944 22.8988 47.1807 22.8988C49.9429 22.9105 52.6464 22.1146 54.9487 20.612L53.8632 18.9761C52.0706 20.6771 49.6702 21.6154 47.1807 21.5883Z" fill="#29131F"/>
<path d="M115.967 0.439697H108.342C108.342 0.439697 108.601 4.90777 108.601 11.434C108.601 17.9602 108.342 22.4282 108.342 22.4282H115.891C125.665 22.4282 128.845 16.9927 128.845 11.434C128.845 5.32115 125.928 0.439697 115.967 0.439697ZM115.176 21.2584C113.938 21.2856 112.7 21.2165 111.473 21.0517C111.473 21.0517 111.259 16.654 111.259 11.412C111.259 6.16991 111.473 1.7722 111.473 1.7722C113.157 1.5438 114.859 1.47312 116.556 1.56111C121.269 1.74142 125.825 4.23932 125.825 11.0118C125.825 17.8854 121.332 21.2584 115.176 21.2584Z" fill="#29131F"/>
<path d="M190.765 0.0263672L181.555 17.626L171.692 0.0263672L168.547 22.3843H170.816L172.375 5.99845L180.737 22.3227L189.206 5.99845L191.779 22.3843H195L190.765 0.0263672Z" fill="#29131F"/>
<path d="M6 0.439697C6 0.439697 6.25908 4.90777 6.25908 11.434C6.25908 17.9602 6 22.4282 6 22.4282H9.18045C9.18045 22.4282 8.92137 17.9602 8.92137 11.434C8.92137 4.90777 9.18045 0.439697 9.18045 0.439697H6Z" fill="#29131F"/>
<path d="M95.0347 11.412C95.0347 4.90778 95.2937 0.417725 95.2937 0.417725H92.1133C92.1133 0.417725 92.3724 4.88579 92.3724 11.412C92.3724 17.9382 92.1133 22.4063 92.1133 22.4063H103.7V20.4889C100.832 20.9074 97.9348 21.1132 95.0347 21.1045C95.0347 19.3323 95.0347 15.8449 95.0347 11.412Z" fill="#29131F"/>
<path d="M78.8159 11.412C78.8159 4.90778 79.075 0.417725 79.075 0.417725H75.8945C75.8945 0.417725 76.1581 4.88579 76.1581 11.412C76.1581 17.9382 75.8945 22.4063 75.8945 22.4063H87.4773V20.4889C84.6031 20.9159 81.7003 21.1291 78.7936 21.1265C78.8025 19.3323 78.8159 15.8449 78.8159 11.412Z" fill="#29131F"/>
<path d="M156.49 11.8913C162.204 11.412 164.084 8.65901 163.803 5.48826C163.477 1.84257 160.332 0.439697 155.928 0.439697H149.674C149.674 0.439697 149.933 4.90777 149.933 11.434C149.933 17.9602 149.674 22.4282 149.674 22.4282H152.85C152.85 22.4282 152.604 18.1668 152.595 11.9177C160.332 13.369 161.802 22.4282 161.802 22.4282H165.165C165.165 22.4282 163.159 14.3584 156.49 11.8913ZM152.582 10.616C152.582 6.60968 152.51 3.46092 152.582 1.781C153.691 1.6573 154.807 1.60441 155.923 1.62268C159.019 1.64907 160.989 3.14428 160.948 5.8049C160.948 7.34849 160.256 10.7787 154.753 10.7787C154.026 10.7778 153.3 10.7234 152.582 10.616Z" fill="#29131F"/>
<path d="M15.8636 6.17878L31.4978 23C30.9662 11.2361 31.4978 0.439771 31.4978 0.439771H29.4162C29.4162 0.439771 29.778 7.70918 29.6083 16.9092L29.5815 16.8212L13.9473 0C14.4788 11.7639 13.9473 22.3843 13.9473 22.3843H16.0155C16.0155 22.3843 15.6536 15.2908 15.8234 6.09082L15.8636 6.17878Z" fill="#29131F"/>
<path d="M62.2381 11.5571C66.2047 11.5571 69.4879 11.8429 69.4879 11.8429V9.89476C67.0813 10.1429 64.662 10.2501 62.2425 10.2158C62.2425 6.35461 62.3676 3.32899 62.4346 1.71943C65.1142 1.7249 67.7892 1.93811 70.4349 2.3571V0.439697H59.2988C59.2988 0.439697 59.5624 4.90777 59.5624 11.434C59.5624 17.9602 59.2988 22.4282 59.2988 22.4282H71.3595V20.5108C68.3974 20.9014 65.414 21.1143 62.4257 21.1485C62.3587 19.3498 62.2425 15.9196 62.2381 11.5571Z" fill="#29131F"/>
<path d="M136.005 11.5571C139.976 11.5571 143.255 11.8429 143.255 11.8429V9.89476C140.848 10.1431 138.429 10.2503 136.009 10.2158C136.009 6.35461 136.134 3.32899 136.206 1.71943C138.885 1.72521 141.56 1.93842 144.206 2.3571V0.439697H133.088C133.088 0.439697 133.347 4.90777 133.347 11.434C133.347 17.9602 133.088 22.4282 133.088 22.4282H145.149V20.5108C142.187 20.9015 139.203 21.1144 136.215 21.1485C136.13 19.3498 136.009 15.9196 136.005 11.5571Z" fill="#29131F"/>
<path d="M36.656 39.296H39.936V40.464H36.656V39.296ZM35.44 43.952H40.864V45.008H35.44V43.952ZM30.144 35.12H34.592V36.336H30.144V35.12ZM34.192 35.12H34.448L34.688 35.072L35.632 35.536C34.448 38.272 31.856 40.08 29.216 41.008C29.024 40.688 28.656 40.16 28.4 39.904C30.8 39.168 33.264 37.472 34.192 35.36V35.12ZM37.088 34.544C38.208 36.976 40.544 38.88 43.52 39.664C43.2 39.952 42.816 40.48 42.608 40.848C39.52 39.872 37.168 37.76 35.872 34.912L37.088 34.544ZM39.984 34.608L41.088 35.376C40.32 36.08 39.376 36.8 38.656 37.296L37.776 36.608C38.464 36.096 39.44 35.232 39.984 34.608ZM41.968 36.208L43.072 36.976C42.304 37.68 41.328 38.4 40.592 38.88L39.68 38.192C40.4 37.68 41.408 36.816 41.968 36.208ZM30.848 39.36H34.736V43.136H33.376V40.528H30.848V39.36ZM30.336 41.984H31.584C31.424 43.216 31.216 44.72 31.024 45.68H29.744C29.968 44.688 30.192 43.168 30.336 41.984ZM33.376 44.544H34.752C34.752 44.544 34.736 44.912 34.704 45.104C34.528 47.312 34.336 48.304 33.936 48.704C33.616 49.024 33.28 49.136 32.768 49.168C32.336 49.2 31.504 49.2 30.624 49.152C30.608 48.752 30.432 48.224 30.192 47.872C31.04 47.936 31.888 47.952 32.192 47.952C32.48 47.952 32.656 47.936 32.784 47.808C33.056 47.584 33.232 46.736 33.376 44.736V44.544ZM36.096 39.296H37.376V40.528C37.376 41.632 37.04 42.896 35.616 43.76C35.424 43.488 34.928 42.992 34.656 42.816C35.904 42.128 36.096 41.264 36.096 40.496V39.296ZM40.544 43.952H40.816L41.056 43.904L41.888 44.208C40.816 47.152 38.304 48.64 35.28 49.36C35.152 49.04 34.864 48.544 34.624 48.256C37.328 47.744 39.68 46.4 40.544 44.128V43.952ZM30.896 41.984H33.856V43.136H30.688L30.896 41.984ZM30.432 44.544H33.76V45.68H30.208L30.432 44.544ZM29.68 37.296L30.544 36.496C31.248 36.88 32.128 37.472 32.56 37.904L31.648 38.816C31.248 38.368 30.384 37.728 29.68 37.296ZM39.248 39.296H40.512V41.76C40.512 42.144 40.544 42.256 40.768 42.256C40.944 42.256 41.6 42.256 41.776 42.256C42 42.256 42.384 42.24 42.576 42.192C42.592 42.496 42.624 42.944 42.672 43.232C42.464 43.312 42.128 43.312 41.808 43.312C41.584 43.312 40.832 43.312 40.608 43.312C39.472 43.312 39.248 42.864 39.248 41.744V39.296ZM35.328 45.792L36.048 44.944C37.952 45.952 40.624 47.456 41.984 48.384L41.216 49.376C39.92 48.448 37.28 46.864 35.328 45.792ZM44.72 35.328H50.288V36.736H44.72V35.328ZM44.896 39.888H50.128V41.28H44.896V39.888ZM44.384 45.52C45.904 45.152 48.176 44.528 50.368 43.904L50.56 45.248C48.544 45.856 46.384 46.48 44.784 46.96L44.384 45.52ZM52.384 38.928V40.272H57.168V38.928H52.384ZM52.384 41.456V42.8H57.168V41.456H52.384ZM52.384 36.416V37.744H57.168V36.416H52.384ZM50.976 35.168H58.656V44.08H50.976V35.168ZM55.104 43.488H56.544V47.456C56.544 47.888 56.608 47.952 56.944 47.952C57.088 47.952 57.744 47.952 57.936 47.952C58.272 47.952 58.336 47.696 58.368 46.08C58.672 46.304 59.264 46.544 59.664 46.64C59.52 48.704 59.168 49.264 58.112 49.264C57.84 49.264 56.944 49.264 56.688 49.264C55.392 49.264 55.104 48.832 55.104 47.472V43.488ZM52.32 43.824H53.808C53.536 46.544 52.768 48.432 49.408 49.456C49.248 49.088 48.864 48.496 48.56 48.208C51.536 47.424 52.096 45.968 52.32 43.824ZM46.832 35.888H48.288V45.296L46.832 45.536V35.888ZM64.224 34.432L65.76 34.832C64.896 37.2 63.472 39.472 62.016 40.896C61.728 40.64 61.088 40.144 60.704 39.92C62.192 38.64 63.488 36.576 64.224 34.432ZM64.24 36.352H74.496V37.824H63.504L64.24 36.352ZM63.296 40.048H74.128V41.472H64.816V45.072H63.296V40.048ZM60.704 44.32H75.296V45.776H60.704V44.32ZM68.064 37.12H69.616V49.36H68.064V37.12ZM83.216 35.232H91.232V36.512H83.216V35.232ZM83.552 43.568H90.944V44.848H83.552V43.568ZM82.72 47.664H91.456V48.96H82.72V47.664ZM86.368 44.176H87.888V48.64H86.368V44.176ZM84.4 36.928L85.648 37.216C85.248 38.08 84.72 39.088 84.24 39.904C84.88 40.848 85.52 41.968 85.824 42.688L84.624 43.168C84.304 42.32 83.648 41.056 82.912 39.92C83.472 38.944 84.08 37.712 84.4 36.928ZM86.992 36.928L88.24 37.216C87.84 38.08 87.28 39.072 86.8 39.888C87.472 40.816 88.144 41.92 88.48 42.64L87.28 43.136C86.96 42.288 86.24 41.04 85.44 39.904C86.048 38.928 86.672 37.712 86.992 36.928ZM89.712 36.928L90.992 37.232C90.544 38.112 89.952 39.088 89.44 39.904C90.16 40.832 90.88 41.936 91.232 42.672L90.048 43.168C89.68 42.32 88.896 41.056 88.048 39.92C88.688 38.944 89.36 37.712 89.712 36.928ZM76.752 36.16H82.8V37.472H76.752V36.16ZM76.528 45.344H82.96V46.672H76.528V45.344ZM79.136 34.512H80.4V39.008H79.136V34.512ZM79.28 39.056H80.288V43.616H80.416V49.36H79.152V43.616H79.28V39.056ZM78.112 41.856V43.104H81.472V41.856H78.112ZM78.112 39.6V40.816H81.472V39.6H78.112ZM77.04 38.512H82.608V44.192H77.04V38.512ZM96.464 40.912L97.488 40.544C97.984 41.52 98.464 42.8 98.608 43.584L97.488 44.032C97.36 43.216 96.912 41.92 96.464 40.912ZM94.896 45.072L95.968 44.832C96.16 45.904 96.352 47.28 96.4 48.208L95.28 48.48C95.248 47.552 95.072 46.144 94.896 45.072ZM93.136 44.912L94.32 45.104C94.16 46.512 93.888 48.016 93.552 49.008C93.28 48.864 92.72 48.688 92.416 48.608C92.8 47.648 93.008 46.208 93.136 44.912ZM92.912 40.656C92.848 40.384 92.624 39.744 92.48 39.392C92.752 39.328 93.04 39.008 93.36 38.528C93.696 38.064 94.768 36.24 95.376 34.528L96.656 35.056C95.872 36.816 94.8 38.656 93.76 39.936V39.952C93.76 39.952 92.912 40.384 92.912 40.656ZM92.912 40.624L92.896 39.616L93.52 39.216L96.32 39.008C96.256 39.36 96.192 39.856 96.192 40.128C93.664 40.384 93.2 40.496 92.912 40.624ZM93.024 44.304C92.96 44.032 92.752 43.392 92.592 43.04C92.96 42.96 93.312 42.56 93.792 41.952C94.336 41.36 95.984 39.04 96.992 36.816L98.176 37.536C96.976 39.728 95.424 41.984 93.888 43.6V43.632C93.888 43.632 93.024 44.032 93.024 44.304ZM93.024 44.304L92.976 43.28L93.616 42.864L97.904 42.288C97.856 42.624 97.824 43.12 97.84 43.392C93.936 43.984 93.36 44.128 93.024 44.304ZM96.672 44.72L97.664 44.4C98.064 45.376 98.448 46.64 98.624 47.456L97.568 47.84C97.408 46.992 97.008 45.696 96.672 44.72ZM99.984 46.704H106.192V48.112H99.984V46.704ZM99.952 41.12H106.256V42.528H99.952V41.12ZM102.32 36.4H103.696V47.376H102.32V36.4ZM99.2 35.296H107.024V48.944H105.568V36.816H100.576V49.088H99.2V35.296ZM116.464 36.288H121.648V37.616H116.464V36.288ZM121.168 36.288H122.576C122.576 36.288 122.576 36.752 122.576 36.944C122.528 42.432 122.464 44.32 122.064 44.88C121.792 45.312 121.472 45.44 121.008 45.504C120.576 45.568 119.904 45.568 119.216 45.536C119.184 45.136 119.024 44.56 118.8 44.192C119.456 44.256 120.032 44.256 120.304 44.256C120.528 44.256 120.672 44.224 120.8 44.032C121.056 43.632 121.12 41.824 121.168 36.576V36.288ZM116.528 34.528L117.936 34.912C117.168 37.04 115.936 39.104 114.608 40.448C114.4 40.16 113.888 39.568 113.584 39.312C114.832 38.176 115.92 36.384 116.528 34.528ZM115.232 39.152H116.592V46.96C116.592 47.664 116.752 47.792 117.728 47.792C118.176 47.792 120.448 47.792 121.008 47.792C121.808 47.792 121.952 47.488 122.048 45.936C122.368 46.16 122.944 46.384 123.328 46.464C123.136 48.496 122.72 49.088 121.104 49.088C120.672 49.088 118.048 49.088 117.632 49.088C115.744 49.088 115.232 48.656 115.232 46.96V39.152ZM115.68 39.152H119.952V44.16H115.68V42.912H118.64V40.4H115.68V39.152ZM110.128 35.072H113.376V36.448H110.128V35.072ZM109.472 35.072H110.768V40.848C110.768 43.344 110.624 46.96 109.616 49.328C109.36 49.104 108.768 48.8 108.432 48.672C109.392 46.432 109.472 43.2 109.472 40.848V35.072ZM112.576 35.072H113.904V47.568C113.904 48.256 113.792 48.688 113.376 48.912C112.944 49.168 112.336 49.2 111.344 49.2C111.312 48.832 111.136 48.176 110.944 47.808C111.552 47.824 112.128 47.824 112.304 47.824C112.496 47.808 112.576 47.744 112.576 47.536V35.072ZM110.56 43.296C111.232 42.912 112.208 42.24 113.168 41.552L113.6 42.448C112.8 43.168 112 43.872 111.248 44.528L110.56 43.296ZM110.496 38.928L111.392 38.272C111.968 38.784 112.608 39.472 112.96 39.92L112.016 40.672C111.696 40.208 111.04 39.456 110.496 38.928ZM126.176 37.088H131.056V47.68H126.176V46.336H129.68V38.416H126.176V37.088ZM125.28 37.088H126.672V48.912H125.28V37.088ZM126.096 41.456H130.368V42.784H126.096V41.456ZM127.664 34.48L129.296 34.736C128.96 35.776 128.56 36.896 128.24 37.632L127.024 37.344C127.28 36.544 127.552 35.328 127.664 34.48ZM133.264 37.008H138.08V38.4H133.264V37.008ZM137.552 37.008H138.96C138.96 37.008 138.96 37.536 138.944 37.728C138.72 45.008 138.512 47.52 137.856 48.336C137.472 48.864 137.072 49.024 136.464 49.104C135.888 49.168 134.928 49.136 134.016 49.104C133.984 48.672 133.792 48.032 133.52 47.632C134.56 47.712 135.52 47.728 135.904 47.728C136.224 47.728 136.416 47.68 136.592 47.456C137.12 46.896 137.36 44.192 137.552 37.312V37.008ZM133.472 34.464L134.928 34.8C134.32 37.184 133.328 39.568 132.24 41.088C131.968 40.848 131.344 40.416 130.992 40.224C132.08 38.832 132.96 36.64 133.472 34.464ZM132.72 41.36L133.904 40.688C134.752 41.808 135.84 43.36 136.352 44.304L135.056 45.088C134.592 44.112 133.552 42.528 132.72 41.36ZM148.64 38.128H150.08V47.072C150.08 47.728 150.16 47.84 150.72 47.84C150.976 47.84 152.112 47.84 152.4 47.84C152.928 47.84 153.008 47.44 153.072 45.536C153.392 45.792 153.984 46.032 154.368 46.128C154.224 48.464 153.84 49.184 152.528 49.184C152.224 49.184 150.816 49.184 150.512 49.184C149.024 49.184 148.64 48.72 148.64 47.056V38.128ZM146.832 39.44L147.968 39.696C147.808 41.36 147.504 43.552 146.944 44.848L145.76 44.448C146.336 43.152 146.672 41.088 146.832 39.44ZM152.72 40.464L154.016 40.096C154.672 41.6 155.264 43.52 155.488 44.8L154.112 45.2C153.92 43.92 153.328 41.952 152.72 40.464ZM148.24 35.488L149.152 34.464C150.16 35.104 151.536 36.096 152.192 36.752L151.232 37.92C150.608 37.232 149.264 36.192 148.24 35.488ZM153.136 35.504L154.576 35.792C153.008 41.536 150.544 46.128 146.768 49.04C146.512 48.752 145.888 48.224 145.536 47.984C149.344 45.344 151.712 40.912 153.136 35.504ZM142.928 35.84H144.336V49.36H142.928V35.84ZM140.832 39.056H146.128V40.48H140.832V39.056ZM143.024 39.616L143.952 40C143.392 42.272 142.336 45.152 141.216 46.688C141.056 46.256 140.704 45.6 140.448 45.216C141.472 43.904 142.544 41.472 143.024 39.616ZM145.232 34.592L146.16 35.824C144.8 36.4 142.928 36.8 141.36 37.04C141.296 36.72 141.088 36.208 140.928 35.872C142.464 35.584 144.176 35.12 145.232 34.592ZM144.272 40.704C144.624 41.104 145.888 42.896 146.16 43.328L145.264 44.544C144.944 43.728 144.032 41.984 143.616 41.296L144.272 40.704ZM158.8 39.104L160.032 39.664C159.52 40.672 158.816 41.856 157.92 42.624L156.688 41.888C157.584 41.2 158.352 40.064 158.8 39.104ZM160.736 38.912H162.096V41.824C162.096 42.272 162.272 42.352 163.184 42.352C163.6 42.352 165.632 42.352 166.192 42.352C166.928 42.352 167.056 42.144 167.136 40.704C167.44 40.912 168 41.104 168.368 41.184C168.192 43.088 167.776 43.568 166.288 43.568C165.888 43.568 163.456 43.568 163.072 43.568C161.216 43.568 160.736 43.2 160.736 41.84V38.912ZM161.504 38.08L162.24 37.2C163.2 37.584 164.432 38.256 165.04 38.768L164.256 39.744C163.68 39.2 162.48 38.496 161.504 38.08ZM167.584 39.936L168.672 39.2C169.648 40.048 170.848 41.248 171.376 42.096L170.208 42.912C169.712 42.08 168.576 40.816 167.584 39.936ZM166.88 37.744L168.144 38.368C165.68 41.376 161.52 43.36 157.408 44.56C157.232 44.224 156.8 43.6 156.528 43.312C160.672 42.304 164.688 40.432 166.88 37.744ZM163.184 44.016H164.736V48H163.184V44.016ZM168.096 44.656H169.6V49.296H168.096V44.656ZM157.168 35.792H170.848V39.04H169.296V37.152H158.656V39.04H157.168V35.792ZM162.896 34.56L164.352 34.304C164.608 34.928 164.864 35.728 164.944 36.224L163.408 36.528C163.344 36 163.136 35.184 162.896 34.56ZM158.496 44.832H159.984V47.248H168.912V48.672H158.496V44.832Z" fill="#123250"/>
</svg>
