<svg width="240" height="24" viewBox="0 0 240 24" fill="none" xmlns="http://www.w3.org/2000/svg">
<path d="M12 13.656H21.072V16.248H12V13.656ZM6.672 14.568C8.472 19.272 12.528 20.112 17.256 20.112C18.336 20.136 21.96 20.112 23.328 20.064C22.944 20.712 22.488 22.032 22.32 22.848H17.088C11.184 22.848 6.792 21.6 4.392 15.456L6.672 14.568ZM3.432 3.072H20.808V5.712H3.432V3.072ZM1.296 8.064H22.68V10.728H1.296V8.064ZM10.416 0.623999H13.392V9.552H10.416V0.623999ZM10.416 9.816H13.392V21.192L10.416 20.112V9.816ZM4.656 11.736L7.632 12.096C6.984 16.128 5.616 20.712 2.664 23.16C2.16 22.632 1.128 21.744 0.504 21.312C3.192 19.2 4.296 15.12 4.656 11.736ZM26.064 4.656H44.136V7.464H28.92V23.136H26.064V4.656ZM43.104 4.656H46.008V19.824C46.008 21.384 45.672 22.2 44.664 22.656C43.632 23.112 42.096 23.184 39.936 23.184C39.816 22.368 39.384 21.024 38.976 20.256C40.392 20.352 42.024 20.352 42.504 20.328C42.96 20.328 43.104 20.208 43.104 19.776V4.656ZM33.96 0.623999L37.656 1.152C36.816 3.072 35.784 5.04 35.016 6.36L32.232 5.736C32.904 4.272 33.624 2.184 33.96 0.623999ZM31.272 9.792H33.888V19.704H31.272V9.792ZM32.4 9.792H40.704V18.024H32.4V15.504H38.04V12.312H32.4V9.792ZM49.296 2.856H70.584V5.28H49.296V2.856ZM55.368 8.136V9.432H64.704V8.136H55.368ZM52.488 6.192H67.752V11.376H52.488V6.192ZM49.968 12.336H69.216V14.688H52.752V23.16H49.968V12.336ZM67.152 12.336H70.056V20.52C70.056 21.768 69.744 22.32 68.832 22.656C67.944 22.968 66.648 22.992 64.968 22.968C64.824 22.32 64.44 21.456 64.104 20.88C65.064 20.952 66.36 20.928 66.672 20.928C67.008 20.904 67.152 20.832 67.152 20.52V12.336ZM58.008 1.176L60.96 0.455998C61.392 1.464 61.944 2.856 62.184 3.672L59.064 4.536C58.872 3.672 58.368 2.232 58.008 1.176ZM56.16 15.552H65.088V20.928H56.16V18.936H62.544V17.544H56.16V15.552ZM54.576 15.552H57.24V21.912H54.576V15.552ZM80.88 9.168H95.088V11.712H80.88V9.168ZM85.2 14.16H87.36V22.968H85.2V14.16ZM88.656 14.16H90.84V22.944H88.656V14.16ZM86.52 0.696H89.28V6.936H86.52V0.696ZM81.384 13.2H93.552V15.6H83.952V23.136H81.384V13.2ZM92.136 13.2H94.632V20.76C94.632 21.816 94.512 22.416 93.864 22.824C93.24 23.184 92.472 23.232 91.44 23.232C91.344 22.536 91.032 21.6 90.744 20.976C91.224 21 91.704 21 91.872 20.976C92.064 20.976 92.136 20.904 92.136 20.712V13.2ZM86.4 10.056L89.784 10.776C89.136 12.312 88.56 13.896 88.08 14.928L85.632 14.232C85.944 13.008 86.28 11.304 86.4 10.056ZM81.72 1.8H84.36V5.496H91.608V1.8H94.344V7.968H81.72V1.8ZM72.984 4.824H81.096V7.464H72.984V4.824ZM72.696 18.144C74.784 17.784 77.88 17.112 80.832 16.44L81.144 19.104C78.432 19.776 75.576 20.448 73.272 21L72.696 18.144ZM73.56 8.76L75.672 8.4C76.104 10.944 76.44 14.16 76.512 16.368L74.28 16.776C74.256 14.568 73.92 11.28 73.56 8.76ZM78.192 8.256L80.616 8.64C80.184 11.784 79.56 15.672 78.984 18.048L77.064 17.664C77.544 15.168 78.024 11.136 78.192 8.256ZM75.168 1.56L77.592 0.863999C78.168 1.92 78.816 3.312 79.08 4.248L76.56 5.088C76.32 4.128 75.72 2.64 75.168 1.56ZM97.944 3.576H117.984V6.12H97.944V3.576ZM99.312 7.32H116.808V9.744H99.312V7.32ZM97.728 14.76H118.32V17.208H97.728V14.76ZM97.176 11.016H119.016V13.536H97.176V11.016ZM106.464 5.16H109.416V13.032H106.464V5.16ZM101.16 1.464L103.728 0.455998C104.496 1.296 105.24 2.448 105.552 3.264L102.864 4.44C102.6 3.6 101.88 2.352 101.16 1.464ZM111.864 0.455998L114.96 1.224C114.144 2.52 113.256 3.744 112.56 4.584L109.968 3.816C110.616 2.88 111.408 1.488 111.864 0.455998ZM106.128 13.032H109.152C108.624 18.408 107.208 21.648 98.136 23.112C97.92 22.368 97.224 21.168 96.672 20.52C104.856 19.464 105.696 17.16 106.128 13.032ZM108.072 19.032L109.344 16.848C112.344 17.832 116.832 19.56 119.064 20.712L117.72 23.232C115.608 22.008 111.192 20.16 108.072 19.032ZM127.608 5.64L130.32 6.528C128.808 8.712 126.36 10.752 124.128 11.976C123.72 11.424 122.76 10.272 122.184 9.768C124.296 8.808 126.408 7.272 127.608 5.64ZM133.464 7.296L135.432 5.664C137.448 6.864 140.136 8.712 141.456 10.032L139.344 11.904C138.144 10.584 135.528 8.616 133.464 7.296ZM125.04 14.88H139.032V23.136H136.104V17.4H127.824V23.16H125.04V14.88ZM126.552 19.968H137.424V22.488H126.552V19.968ZM121.704 2.544H142.296V7.728H139.344V5.136H124.512V7.728H121.704V2.544ZM129.888 0.983999L132.912 0.335999C133.464 1.272 134.016 2.52 134.232 3.384L131.04 4.08C130.872 3.264 130.368 1.968 129.888 0.983999ZM131.496 7.848L133.992 8.928C131.4 13.152 127.2 16.176 122.448 18.072C122.064 17.352 121.32 16.368 120.672 15.744C125.112 14.232 129.288 11.52 131.496 7.848ZM132.912 8.76C135.744 12 139.2 13.896 143.28 15.384C142.608 15.984 141.84 16.944 141.48 17.784C137.232 15.888 133.824 13.704 130.608 9.84L132.912 8.76ZM147.432 4.512H154.8V20.688H147.432V18.144H152.184V7.032H147.432V4.512ZM145.752 4.512H148.368V22.464H145.752V4.512ZM147.312 10.92H153.456V13.416H147.312V10.92ZM149.16 0.599999L152.304 1.056C151.752 2.688 151.152 4.392 150.672 5.52L148.368 5.016C148.704 3.768 149.04 1.92 149.16 0.599999ZM157.968 4.344H164.976V6.96H157.968V4.344ZM163.992 4.344H166.656C166.656 4.344 166.656 5.28 166.632 5.64C166.32 16.44 166.032 20.256 165.048 21.528C164.376 22.464 163.704 22.728 162.72 22.872C161.808 23.016 160.344 22.992 158.952 22.92C158.904 22.128 158.52 20.904 157.992 20.136C159.552 20.256 160.992 20.28 161.592 20.28C162.072 20.28 162.336 20.184 162.648 19.848C163.416 19.032 163.728 14.904 163.992 4.896V4.344ZM158.04 0.623999L160.8 1.272C159.864 4.824 158.304 8.472 156.672 10.776C156.144 10.296 154.968 9.48 154.296 9.096C155.904 7.08 157.272 3.816 158.04 0.623999ZM156.864 11.256L159.12 9.984C160.296 11.64 161.88 13.944 162.624 15.36L160.176 16.848C159.528 15.384 158.016 13.032 156.864 11.256ZM182.352 8.568H191.208V11.232H182.352V8.568ZM169.272 3H180.072V5.352H169.272V3ZM169.032 12.552H180.048V14.976H169.032V12.552ZM168.888 8.352H180.456V10.728H168.888V8.352ZM186.168 9.744H188.976V23.04H186.168V9.744ZM170.544 5.808L172.824 5.256C173.184 6.072 173.52 7.152 173.64 7.848L171.264 8.52C171.144 7.8 170.856 6.648 170.544 5.808ZM176.424 5.232L179.04 5.736C178.512 7.008 178.032 8.256 177.576 9.12L175.248 8.616C175.656 7.68 176.16 6.24 176.424 5.232ZM188.568 0.839999L190.8 2.952C188.28 3.936 184.968 4.656 182.112 5.088C181.992 4.488 181.584 3.504 181.272 2.904C183.912 2.424 186.816 1.656 188.568 0.839999ZM172.656 1.08L175.56 0.383999C176.04 1.416 176.616 2.784 176.832 3.672L173.808 4.488C173.616 3.6 173.112 2.16 172.656 1.08ZM181.272 2.904H183.936V11.52C183.936 15.048 183.624 20.016 181.56 23.088C181.104 22.584 179.952 21.696 179.352 21.384C181.128 18.648 181.272 14.64 181.272 11.52V2.904ZM176.832 16.512L178.704 15.456C179.448 16.56 180.264 17.976 180.648 18.888L178.704 20.112C178.32 19.152 177.504 17.616 176.832 16.512ZM170.736 15.744L172.944 16.392C172.344 18.096 171.336 20.088 170.496 21.336C170.088 20.976 169.152 20.328 168.6 20.016C169.44 18.912 170.232 17.232 170.736 15.744ZM173.52 9.672H176.328V22.992H173.52V9.672ZM193.032 6.408H214.92V9.192H193.032V6.408ZM196.296 1.32H199.296V19.056H214.32V21.864H196.296V1.32ZM202.536 0.816H205.416V13.728H208.728V1.056H211.752V16.368H202.536V0.816ZM222.336 7.632V9.384H233.664V7.632H222.336ZM222.336 3.768V5.472H233.664V3.768H222.336ZM219.456 1.44H236.664V11.688H219.456V1.44ZM231.288 10.176C232.872 12.336 235.992 14.112 239.352 14.952C238.704 15.528 237.84 16.656 237.432 17.4C233.904 16.248 230.784 13.944 228.864 11.064L231.288 10.176ZM224.736 10.152L227.28 11.136C225.336 13.92 222.096 16.272 218.688 17.496C218.256 16.776 217.392 15.696 216.768 15.12C220.008 14.208 223.152 12.312 224.736 10.152ZM223.032 14.544H226.008V16.2C226.008 18.504 225.312 21.576 220.512 23.328C220.128 22.608 219.168 21.528 218.544 20.976C222.552 19.68 223.032 17.64 223.032 16.104V14.544ZM226.536 2.616H229.44V10.536H226.536V2.616ZM230.352 14.592H233.352V23.088H230.352V14.592Z" fill="black"/>
</svg>
