<svg width="144" height="16" viewBox="0 0 144 16" fill="none" xmlns="http://www.w3.org/2000/svg">
<path d="M8.656 5.296H11.936V6.464H8.656V5.296ZM7.44 9.952H12.864V11.008H7.44V9.952ZM2.144 1.12H6.592V2.336H2.144V1.12ZM6.192 1.12H6.448L6.688 1.072L7.632 1.536C6.448 4.272 3.856 6.08 1.216 7.008C1.024 6.688 0.656 6.16 0.4 5.904C2.8 5.168 5.264 3.472 6.192 1.36V1.12ZM9.088 0.544C10.208 2.976 12.544 4.88 15.52 5.664C15.2 5.952 14.816 6.48 14.608 6.848C11.52 5.872 9.168 3.76 7.872 0.912L9.088 0.544ZM11.984 0.608L13.088 1.376C12.32 2.08 11.376 2.8 10.656 3.296L9.776 2.608C10.464 2.096 11.44 1.232 11.984 0.608ZM13.968 2.208L15.072 2.976C14.304 3.68 13.328 4.4 12.592 4.88L11.68 4.192C12.4 3.68 13.408 2.816 13.968 2.208ZM2.848 5.36H6.736V9.136H5.376V6.528H2.848V5.36ZM2.336 7.984H3.584C3.424 9.216 3.216 10.72 3.024 11.68H1.744C1.968 10.688 2.192 9.168 2.336 7.984ZM5.376 10.544H6.752C6.752 10.544 6.736 10.912 6.704 11.104C6.528 13.312 6.336 14.304 5.936 14.704C5.616 15.024 5.28 15.136 4.768 15.168C4.336 15.2 3.504 15.2 2.624 15.152C2.608 14.752 2.432 14.224 2.192 13.872C3.04 13.936 3.888 13.952 4.192 13.952C4.48 13.952 4.656 13.936 4.784 13.808C5.056 13.584 5.232 12.736 5.376 10.736V10.544ZM8.096 5.296H9.376V6.528C9.376 7.632 9.04 8.896 7.616 9.76C7.424 9.488 6.928 8.992 6.656 8.816C7.904 8.128 8.096 7.264 8.096 6.496V5.296ZM12.544 9.952H12.816L13.056 9.904L13.888 10.208C12.816 13.152 10.304 14.64 7.28 15.36C7.152 15.04 6.864 14.544 6.624 14.256C9.328 13.744 11.68 12.4 12.544 10.128V9.952ZM2.896 7.984H5.856V9.136H2.688L2.896 7.984ZM2.432 10.544H5.76V11.68H2.208L2.432 10.544ZM1.68 3.296L2.544 2.496C3.248 2.88 4.128 3.472 4.56 3.904L3.648 4.816C3.248 4.368 2.384 3.728 1.68 3.296ZM11.248 5.296H12.512V7.76C12.512 8.144 12.544 8.256 12.768 8.256C12.944 8.256 13.6 8.256 13.776 8.256C14 8.256 14.384 8.24 14.576 8.192C14.592 8.496 14.624 8.944 14.672 9.232C14.464 9.312 14.128 9.312 13.808 9.312C13.584 9.312 12.832 9.312 12.608 9.312C11.472 9.312 11.248 8.864 11.248 7.744V5.296ZM7.328 11.792L8.048 10.944C9.952 11.952 12.624 13.456 13.984 14.384L13.216 15.376C11.92 14.448 9.28 12.864 7.328 11.792ZM16.72 1.328H22.288V2.736H16.72V1.328ZM16.896 5.888H22.128V7.28H16.896V5.888ZM16.384 11.52C17.904 11.152 20.176 10.528 22.368 9.904L22.56 11.248C20.544 11.856 18.384 12.48 16.784 12.96L16.384 11.52ZM24.384 4.928V6.272H29.168V4.928H24.384ZM24.384 7.456V8.8H29.168V7.456H24.384ZM24.384 2.416V3.744H29.168V2.416H24.384ZM22.976 1.168H30.656V10.08H22.976V1.168ZM27.104 9.488H28.544V13.456C28.544 13.888 28.608 13.952 28.944 13.952C29.088 13.952 29.744 13.952 29.936 13.952C30.272 13.952 30.336 13.696 30.368 12.08C30.672 12.304 31.264 12.544 31.664 12.64C31.52 14.704 31.168 15.264 30.112 15.264C29.84 15.264 28.944 15.264 28.688 15.264C27.392 15.264 27.104 14.832 27.104 13.472V9.488ZM24.32 9.824H25.808C25.536 12.544 24.768 14.432 21.408 15.456C21.248 15.088 20.864 14.496 20.56 14.208C23.536 13.424 24.096 11.968 24.32 9.824ZM18.832 1.888H20.288V11.296L18.832 11.536V1.888ZM36.224 0.431999L37.76 0.832C36.896 3.2 35.472 5.472 34.016 6.896C33.728 6.64 33.088 6.144 32.704 5.92C34.192 4.64 35.488 2.576 36.224 0.431999ZM36.24 2.352H46.496V3.824H35.504L36.24 2.352ZM35.296 6.048H46.128V7.472H36.816V11.072H35.296V6.048ZM32.704 10.32H47.296V11.776H32.704V10.32ZM40.064 3.12H41.616V15.36H40.064V3.12ZM55.216 1.232H63.232V2.512H55.216V1.232ZM55.552 9.568H62.944V10.848H55.552V9.568ZM54.72 13.664H63.456V14.96H54.72V13.664ZM58.368 10.176H59.888V14.64H58.368V10.176ZM56.4 2.928L57.648 3.216C57.248 4.08 56.72 5.088 56.24 5.904C56.88 6.848 57.52 7.968 57.824 8.688L56.624 9.168C56.304 8.32 55.648 7.056 54.912 5.92C55.472 4.944 56.08 3.712 56.4 2.928ZM58.992 2.928L60.24 3.216C59.84 4.08 59.28 5.072 58.8 5.888C59.472 6.816 60.144 7.92 60.48 8.64L59.28 9.136C58.96 8.288 58.24 7.04 57.44 5.904C58.048 4.928 58.672 3.712 58.992 2.928ZM61.712 2.928L62.992 3.232C62.544 4.112 61.952 5.088 61.44 5.904C62.16 6.832 62.88 7.936 63.232 8.672L62.048 9.168C61.68 8.32 60.896 7.056 60.048 5.92C60.688 4.944 61.36 3.712 61.712 2.928ZM48.752 2.16H54.8V3.472H48.752V2.16ZM48.528 11.344H54.96V12.672H48.528V11.344ZM51.136 0.511999H52.4V5.008H51.136V0.511999ZM51.28 5.056H52.288V9.616H52.416V15.36H51.152V9.616H51.28V5.056ZM50.112 7.856V9.104H53.472V7.856H50.112ZM50.112 5.6V6.816H53.472V5.6H50.112ZM49.04 4.512H54.608V10.192H49.04V4.512ZM68.464 6.912L69.488 6.544C69.984 7.52 70.464 8.8 70.608 9.584L69.488 10.032C69.36 9.216 68.912 7.92 68.464 6.912ZM66.896 11.072L67.968 10.832C68.16 11.904 68.352 13.28 68.4 14.208L67.28 14.48C67.248 13.552 67.072 12.144 66.896 11.072ZM65.136 10.912L66.32 11.104C66.16 12.512 65.888 14.016 65.552 15.008C65.28 14.864 64.72 14.688 64.416 14.608C64.8 13.648 65.008 12.208 65.136 10.912ZM64.912 6.656C64.848 6.384 64.624 5.744 64.48 5.392C64.752 5.328 65.04 5.008 65.36 4.528C65.696 4.064 66.768 2.24 67.376 0.527999L68.656 1.056C67.872 2.816 66.8 4.656 65.76 5.936V5.952C65.76 5.952 64.912 6.384 64.912 6.656ZM64.912 6.624L64.896 5.616L65.52 5.216L68.32 5.008C68.256 5.36 68.192 5.856 68.192 6.128C65.664 6.384 65.2 6.496 64.912 6.624ZM65.024 10.304C64.96 10.032 64.752 9.392 64.592 9.04C64.96 8.96 65.312 8.56 65.792 7.952C66.336 7.36 67.984 5.04 68.992 2.816L70.176 3.536C68.976 5.728 67.424 7.984 65.888 9.6V9.632C65.888 9.632 65.024 10.032 65.024 10.304ZM65.024 10.304L64.976 9.28L65.616 8.864L69.904 8.288C69.856 8.624 69.824 9.12 69.84 9.392C65.936 9.984 65.36 10.128 65.024 10.304ZM68.672 10.72L69.664 10.4C70.064 11.376 70.448 12.64 70.624 13.456L69.568 13.84C69.408 12.992 69.008 11.696 68.672 10.72ZM71.984 12.704H78.192V14.112H71.984V12.704ZM71.952 7.12H78.256V8.528H71.952V7.12ZM74.32 2.4H75.696V13.376H74.32V2.4ZM71.2 1.296H79.024V14.944H77.568V2.816H72.576V15.088H71.2V1.296ZM88.464 2.288H93.648V3.616H88.464V2.288ZM93.168 2.288H94.576C94.576 2.288 94.576 2.752 94.576 2.944C94.528 8.432 94.464 10.32 94.064 10.88C93.792 11.312 93.472 11.44 93.008 11.504C92.576 11.568 91.904 11.568 91.216 11.536C91.184 11.136 91.024 10.56 90.8 10.192C91.456 10.256 92.032 10.256 92.304 10.256C92.528 10.256 92.672 10.224 92.8 10.032C93.056 9.632 93.12 7.824 93.168 2.576V2.288ZM88.528 0.527999L89.936 0.912C89.168 3.04 87.936 5.104 86.608 6.448C86.4 6.16 85.888 5.568 85.584 5.312C86.832 4.176 87.92 2.384 88.528 0.527999ZM87.232 5.152H88.592V12.96C88.592 13.664 88.752 13.792 89.728 13.792C90.176 13.792 92.448 13.792 93.008 13.792C93.808 13.792 93.952 13.488 94.048 11.936C94.368 12.16 94.944 12.384 95.328 12.464C95.136 14.496 94.72 15.088 93.104 15.088C92.672 15.088 90.048 15.088 89.632 15.088C87.744 15.088 87.232 14.656 87.232 12.96V5.152ZM87.68 5.152H91.952V10.16H87.68V8.912H90.64V6.4H87.68V5.152ZM82.128 1.072H85.376V2.448H82.128V1.072ZM81.472 1.072H82.768V6.848C82.768 9.344 82.624 12.96 81.616 15.328C81.36 15.104 80.768 14.8 80.432 14.672C81.392 12.432 81.472 9.2 81.472 6.848V1.072ZM84.576 1.072H85.904V13.568C85.904 14.256 85.792 14.688 85.376 14.912C84.944 15.168 84.336 15.2 83.344 15.2C83.312 14.832 83.136 14.176 82.944 13.808C83.552 13.824 84.128 13.824 84.304 13.824C84.496 13.808 84.576 13.744 84.576 13.536V1.072ZM82.56 9.296C83.232 8.912 84.208 8.24 85.168 7.552L85.6 8.448C84.8 9.168 84 9.872 83.248 10.528L82.56 9.296ZM82.496 4.928L83.392 4.272C83.968 4.784 84.608 5.472 84.96 5.92L84.016 6.672C83.696 6.208 83.04 5.456 82.496 4.928ZM98.176 3.088H103.056V13.68H98.176V12.336H101.68V4.416H98.176V3.088ZM97.28 3.088H98.672V14.912H97.28V3.088ZM98.096 7.456H102.368V8.784H98.096V7.456ZM99.664 0.48L101.296 0.735999C100.96 1.776 100.56 2.896 100.24 3.632L99.024 3.344C99.28 2.544 99.552 1.328 99.664 0.48ZM105.264 3.008H110.08V4.4H105.264V3.008ZM109.552 3.008H110.96C110.96 3.008 110.96 3.536 110.944 3.728C110.72 11.008 110.512 13.52 109.856 14.336C109.472 14.864 109.072 15.024 108.464 15.104C107.888 15.168 106.928 15.136 106.016 15.104C105.984 14.672 105.792 14.032 105.52 13.632C106.56 13.712 107.52 13.728 107.904 13.728C108.224 13.728 108.416 13.68 108.592 13.456C109.12 12.896 109.36 10.192 109.552 3.312V3.008ZM105.472 0.464L106.928 0.799999C106.32 3.184 105.328 5.568 104.24 7.088C103.968 6.848 103.344 6.416 102.992 6.224C104.08 4.832 104.96 2.64 105.472 0.464ZM104.72 7.36L105.904 6.688C106.752 7.808 107.84 9.36 108.352 10.304L107.056 11.088C106.592 10.112 105.552 8.528 104.72 7.36ZM120.64 4.128H122.08V13.072C122.08 13.728 122.16 13.84 122.72 13.84C122.976 13.84 124.112 13.84 124.4 13.84C124.928 13.84 125.008 13.44 125.072 11.536C125.392 11.792 125.984 12.032 126.368 12.128C126.224 14.464 125.84 15.184 124.528 15.184C124.224 15.184 122.816 15.184 122.512 15.184C121.024 15.184 120.64 14.72 120.64 13.056V4.128ZM118.832 5.44L119.968 5.696C119.808 7.36 119.504 9.552 118.944 10.848L117.76 10.448C118.336 9.152 118.672 7.088 118.832 5.44ZM124.72 6.464L126.016 6.096C126.672 7.6 127.264 9.52 127.488 10.8L126.112 11.2C125.92 9.92 125.328 7.952 124.72 6.464ZM120.24 1.488L121.152 0.464C122.16 1.104 123.536 2.096 124.192 2.752L123.232 3.92C122.608 3.232 121.264 2.192 120.24 1.488ZM125.136 1.504L126.576 1.792C125.008 7.536 122.544 12.128 118.768 15.04C118.512 14.752 117.888 14.224 117.536 13.984C121.344 11.344 123.712 6.912 125.136 1.504ZM114.928 1.84H116.336V15.36H114.928V1.84ZM112.832 5.056H118.128V6.48H112.832V5.056ZM115.024 5.616L115.952 6C115.392 8.272 114.336 11.152 113.216 12.688C113.056 12.256 112.704 11.6 112.448 11.216C113.472 9.904 114.544 7.472 115.024 5.616ZM117.232 0.591999L118.16 1.824C116.8 2.4 114.928 2.8 113.36 3.04C113.296 2.72 113.088 2.208 112.928 1.872C114.464 1.584 116.176 1.12 117.232 0.591999ZM116.272 6.704C116.624 7.104 117.888 8.896 118.16 9.328L117.264 10.544C116.944 9.728 116.032 7.984 115.616 7.296L116.272 6.704ZM130.8 5.104L132.032 5.664C131.52 6.672 130.816 7.856 129.92 8.624L128.688 7.888C129.584 7.2 130.352 6.064 130.8 5.104ZM132.736 4.912H134.096V7.824C134.096 8.272 134.272 8.352 135.184 8.352C135.6 8.352 137.632 8.352 138.192 8.352C138.928 8.352 139.056 8.144 139.136 6.704C139.44 6.912 140 7.104 140.368 7.184C140.192 9.088 139.776 9.568 138.288 9.568C137.888 9.568 135.456 9.568 135.072 9.568C133.216 9.568 132.736 9.2 132.736 7.84V4.912ZM133.504 4.08L134.24 3.2C135.2 3.584 136.432 4.256 137.04 4.768L136.256 5.744C135.68 5.2 134.48 4.496 133.504 4.08ZM139.584 5.936L140.672 5.2C141.648 6.048 142.848 7.248 143.376 8.096L142.208 8.912C141.712 8.08 140.576 6.816 139.584 5.936ZM138.88 3.744L140.144 4.368C137.68 7.376 133.52 9.36 129.408 10.56C129.232 10.224 128.8 9.6 128.528 9.312C132.672 8.304 136.688 6.432 138.88 3.744ZM135.184 10.016H136.736V14H135.184V10.016ZM140.096 10.656H141.6V15.296H140.096V10.656ZM129.168 1.792H142.848V5.04H141.296V3.152H130.656V5.04H129.168V1.792ZM134.896 0.559999L136.352 0.303999C136.608 0.927999 136.864 1.728 136.944 2.224L135.408 2.528C135.344 2 135.136 1.184 134.896 0.559999ZM130.496 10.832H131.984V13.248H140.912V14.672H130.496V10.832Z" fill="#123250"/>
</svg>
