<svg width="80" height="80" viewBox="0 0 80 80" fill="none" xmlns="http://www.w3.org/2000/svg">
<path d="M40.0108 69C36.0006 69 32.2303 68.239 28.7 66.7171C25.1697 65.1952 22.0988 63.1297 19.4873 60.5206C16.8758 57.9116 14.8084 54.8436 13.285 51.3166C11.7617 47.7896 11 44.021 11 40.0108C11 36.0006 11.761 32.2303 13.2829 28.7C14.8048 25.1697 16.8703 22.0988 19.4794 19.4873C22.0884 16.8758 25.1564 14.8084 28.6834 13.285C32.2104 11.7617 35.979 11 39.9892 11C43.9994 11 47.7697 11.761 51.3 13.2829C54.8303 14.8048 57.9012 16.8703 60.5127 19.4794C63.1242 22.0884 65.1916 25.1564 66.715 28.6834C68.2383 32.2104 69 35.979 69 39.9892C69 43.9994 68.239 47.7697 66.7171 51.3C65.1952 54.8303 63.1297 57.9012 60.5206 60.5127C57.9116 63.1242 54.8436 65.1916 51.3166 66.715C47.7896 68.2383 44.021 69 40.0108 69ZM36.66 66.3789V59.9592C34.8145 59.9592 33.2594 59.3023 31.9948 57.9887C30.7302 56.675 30.0979 55.099 30.0979 53.2607V49.9021L14.1417 33.9459C13.9557 34.9374 13.7988 35.9376 13.6707 36.9466C13.5427 37.9556 13.4786 38.978 13.4786 40.0138C13.4786 46.7382 15.6753 52.6121 20.0687 57.6355C24.4621 62.6589 29.9925 65.5733 36.66 66.3789ZM59.5998 57.9268C60.6986 56.7205 61.6808 55.4167 62.5463 54.0156C63.4117 52.6145 64.1465 51.1481 64.7505 49.6166C65.3545 48.085 65.8007 46.5147 66.089 44.9054C66.3772 43.2961 66.5214 41.661 66.5214 40C66.5214 34.5241 65.026 29.5229 62.0351 24.9964C59.0442 20.4698 55.0061 17.1945 49.9207 15.1703V16.7037C49.9207 18.5277 49.2884 20.0966 48.0238 21.4103C46.7592 22.7239 45.2041 23.3807 43.3585 23.3807H36.66V30.0793C36.66 31.0098 36.3285 31.7764 35.6655 32.379C35.0024 32.9816 34.2217 33.2829 33.3232 33.2829H26.7393V40H46.7171C47.6476 40 48.4142 40.3284 49.0168 40.9853C49.6194 41.6421 49.9207 42.427 49.9207 43.34V53.2607H53.2344C54.7267 53.2607 56.0549 53.6943 57.2191 54.5615C58.3832 55.4288 59.1768 56.5505 59.5998 57.9268Z" fill="#333333"/>
<path d="M37 23.5H45C49.8 22.7 50.3333 17.5 50 15C25.5 9.00006 16 27.0001 14 34L30 50C30 51.0885 30.2045 54.9044 30.2045 55.3398C32 59 34.7576 60.1814 36.5 60V66.5C52 67.0001 59.4714 57.9122 59.5 58C58.7 53.6 52.8333 52.8334 50 53V52.7534V44.4555C50 41.4079 48.4318 40.0001 47.3864 40.0001H27V33.5001H34.5C37 33.5001 37 31.5 37 30V23.5Z" fill="#273E82" stroke="#273E82" stroke-width="0.3"/>
</svg>
