<svg width="80" height="80" viewBox="0 0 80 80" fill="none" xmlns="http://www.w3.org/2000/svg">
<path d="M65 25C63.4 27 54 29.3333 50 30V46C54.4 45.6 62.6667 43.3333 65 42V25Z" fill="#273E82"/>
<path d="M65 43C63.4 45 54 47.3333 50 48V64C54.4 63.6 62.6667 60.3333 65 59V43Z" fill="#273E82"/>
<path d="M40 67C32.112 67 25.64 65.9951 20.584 63.9852C15.528 61.9754 13 59.389 13 56.226V23.125C13 20.3212 15.6319 17.9327 20.8956 15.9596C26.1593 13.9865 32.5274 13 40 13C47.4726 13 53.8407 13.9865 59.1044 15.9596C64.3681 17.9327 67 20.3212 67 23.125V56.226C67 59.389 64.472 61.9754 59.416 63.9852C54.36 65.9951 47.888 67 40 67ZM40 29.1351C44.751 29.1351 49.5961 28.4547 54.5352 27.0938C59.4744 25.733 62.6103 24.1894 63.943 22.463C62.5973 20.7062 59.4766 19.1226 54.5807 17.712C49.6847 16.3014 44.8245 15.5961 40 15.5961C35.1798 15.5961 30.2882 16.2733 25.3252 17.6276C20.3623 18.982 17.2231 20.5072 15.9076 22.2034C17.1798 24.0423 20.2584 25.6573 25.1435 27.0484C30.0286 28.4396 34.9808 29.1351 40 29.1351ZM39.9805 46.737C42.2998 46.737 44.619 46.6104 46.9382 46.3573C49.2575 46.1042 51.4675 45.7353 53.5682 45.2507C55.6689 44.7661 57.6495 44.169 59.5101 43.4594C61.3707 42.7498 63.0019 41.9666 64.4039 41.1099V25.8899C62.9457 26.7899 61.2971 27.5947 59.4581 28.3044C57.6192 29.014 55.6353 29.6111 53.5065 30.0957C51.3777 30.5803 49.1709 30.9524 46.8863 31.212C44.6017 31.4717 42.2998 31.6015 39.9805 31.6015C37.5748 31.6015 35.2015 31.4609 32.8606 31.1796C30.5197 30.8984 28.2989 30.5154 26.1982 30.0308C24.0975 29.5462 22.1525 28.9599 20.3633 28.2719C18.5741 27.5839 16.9851 26.7899 15.5961 25.8899V41.1099C16.9418 41.9666 18.5168 42.739 20.3211 43.4269C22.1255 44.1149 24.078 44.712 26.1787 45.2183C28.2794 45.7245 30.4894 46.1042 32.8086 46.3573C35.1279 46.6104 37.5185 46.737 39.9805 46.737ZM40 64.4039C42.9596 64.4039 45.7872 64.2189 48.4829 63.8489C51.1786 63.479 53.6028 62.9652 55.7554 62.3075C57.9081 61.6498 59.7383 60.8644 61.2463 59.9515C62.7542 59.0385 63.8067 58.0541 64.4039 56.9984V43.7255C63.0019 44.6255 61.3707 45.4162 59.5101 46.0977C57.6495 46.7792 55.6689 47.3623 53.5682 47.8469C51.4675 48.3315 49.2607 48.7004 46.9479 48.9535C44.6352 49.2067 42.3127 49.3332 39.9805 49.3332C37.5185 49.3332 35.1279 49.2067 32.8086 48.9535C30.4894 48.7004 28.2794 48.3315 26.1787 47.8469C24.078 47.3623 22.1363 46.7684 20.3536 46.0653C18.5709 45.3622 16.9851 44.5822 15.5961 43.7255V57.0178C16.1803 58.1038 17.2231 59.0958 18.7245 59.9937C20.2259 60.8915 22.0562 61.666 24.2154 62.3172C26.3745 62.9684 28.8019 63.479 31.4976 63.8489C34.1933 64.2189 37.0274 64.4039 40 64.4039Z" fill="black"/>
</svg>
