<svg width="80" height="80" viewBox="0 0 80 80" fill="none" xmlns="http://www.w3.org/2000/svg">
<path d="M16.0377 49.766V37H39L40 39.5C33 52.8723 36.5 56 36.5 59C34.83 62.4043 29.9542 62 28.0407 62C17.6033 62 15.6898 53.844 16.0377 49.766Z" fill="#273E82"/>
<path d="M27.6059 64.3354C24.0898 64.3354 21.0926 63.0991 18.6144 60.6266C16.1361 58.1541 14.897 55.1639 14.897 51.6558V24.8428C13.5406 24.8428 12.3853 24.3644 11.4312 23.4076C10.4771 22.4508 10 21.3007 10 19.9571V15.8857C10 14.5421 10.4795 13.392 11.4385 12.4352C12.3975 11.4784 13.5503 11 14.897 11H40.3149C41.6615 11 42.8143 11.4784 43.7733 12.4352C44.7323 13.392 45.2118 14.5421 45.2118 15.8857V19.9571C45.2118 21.3007 44.7323 22.4508 43.7733 23.4076C42.8143 24.3644 41.6615 24.8428 40.3149 24.8428V40.4362C39.8718 40.9519 39.4462 41.4754 39.0381 42.0067C38.63 42.5379 38.2452 43.1175 37.8838 43.7457H30.2876C29.9573 43.7457 29.6803 43.6327 29.4569 43.4066C29.2334 43.1805 29.1217 42.9004 29.1217 42.5661C29.1217 42.2319 29.2334 41.9572 29.4569 41.742C29.6803 41.5268 29.9573 41.4192 30.2876 41.4192H37.9829V34.6723H30.2876C29.9573 34.6723 29.6803 34.5593 29.4569 34.3332C29.2334 34.1071 29.1217 33.827 29.1217 33.4927C29.1217 33.1585 29.2334 32.8838 29.4569 32.6686C29.6803 32.4534 29.9573 32.3458 30.2876 32.3458H37.9829V24.8428H17.2289V51.6558C17.2289 54.564 18.2275 57.0165 20.2245 59.0134C22.2215 61.0103 24.6742 62.0088 27.5826 62.0088C29.4481 62.0088 31.1368 61.5765 32.6487 60.7118C34.1606 59.8471 35.3654 58.6877 36.2631 57.2336C36.4219 57.6995 36.5967 58.1407 36.7874 58.5573C36.9781 58.9739 37.1764 59.3799 37.3824 59.7754C36.201 61.2023 34.7657 62.3191 33.0765 63.1256C31.3874 63.9321 29.5639 64.3354 27.6059 64.3354ZM35.6802 52.8191H30.2876C29.9573 52.8191 29.6803 52.7061 29.4569 52.48C29.2334 52.2539 29.1217 51.9738 29.1217 51.6395C29.1217 51.3053 29.2334 51.0306 29.4569 50.8154C29.6803 50.6002 29.9573 50.4925 30.2876 50.4925H35.7676C35.717 50.8609 35.6908 51.239 35.6889 51.6268C35.6869 52.0145 35.684 52.412 35.6802 52.8191ZM14.1975 22.5163H41.0144C41.5585 22.5163 42.0055 22.3418 42.3553 21.9928C42.7051 21.6438 42.8799 21.1979 42.8799 20.6551V15.1877C42.8799 14.6449 42.7051 14.199 42.3553 13.85C42.0055 13.5011 41.5585 13.3266 41.0144 13.3266H14.1975C13.6533 13.3266 13.2063 13.5011 12.8566 13.85C12.5068 14.199 12.3319 14.6449 12.3319 15.1877V20.6551C12.3319 21.1979 12.5068 21.6438 12.8566 21.9928C13.2063 22.3418 13.6533 22.5163 14.1975 22.5163ZM53.3628 61.2527C55.8495 61.2527 57.9498 60.4012 59.6638 58.6984C61.3777 56.9955 62.2347 54.9036 62.2347 52.4226C62.2347 49.9416 61.3813 47.8462 59.6745 46.1362C57.9677 44.4262 55.8709 43.5712 53.3842 43.5712C50.8974 43.5712 48.7971 44.4226 47.0832 46.1255C45.3692 47.8284 44.5122 49.9203 44.5122 52.4013C44.5122 54.8823 45.3657 56.9777 47.0725 58.6877C48.7793 60.3977 50.8761 61.2527 53.3628 61.2527ZM53.3735 63.5792C50.2642 63.5792 47.6214 62.4923 45.445 60.3185C43.2686 58.1447 42.1804 55.505 42.1804 52.3996C42.1804 49.2942 43.2698 46.6587 45.4486 44.4931C47.6275 42.3275 50.2732 41.2447 53.3858 41.2447C56.4985 41.2447 59.1401 42.3304 61.3107 44.5018C63.4813 46.6732 64.5666 49.3099 64.5666 52.4119C64.5666 53.713 64.3451 54.964 63.902 56.165C63.459 57.366 62.8391 58.4628 62.0424 59.4555L69.6677 67.005C69.8892 67.2225 70 67.4989 70 67.8341C70 68.1694 69.8906 68.4475 69.6718 68.6684C69.4531 68.8895 69.1752 69 68.8382 69C68.5012 69 68.2219 68.8895 68.0004 68.6684L60.4333 61.0608C59.4384 61.8557 58.339 62.4741 57.1352 62.9161C55.9315 63.3582 54.6776 63.5792 53.3735 63.5792Z" fill="black"/>
</svg>
